<svg width="74" height="75" viewBox="0 0 74 75" fill="none" xmlns="http://www.w3.org/2000/svg">
<g clip-path="url(#clip0_380_745)">
<path d="M29.9532 26.4885H44.0485C44.2821 26.4885 44.5062 26.3957 44.6714 26.2304C44.8366 26.0652 44.9294 25.8412 44.9294 25.6075C44.9294 25.3739 44.8366 25.1498 44.6714 24.9846C44.5062 24.8194 44.2821 24.7266 44.0485 24.7266H29.9532C29.7196 24.7266 29.4955 24.8194 29.3303 24.9846C29.1651 25.1498 29.0723 25.3739 29.0723 25.6075C29.0723 25.8412 29.1651 26.0652 29.3303 26.2304C29.4955 26.3957 29.7196 26.4885 29.9532 26.4885Z" fill="#0BCEB2"/>
<path d="M29.9532 30.0119H39.6437C39.8773 30.0119 40.1014 29.9191 40.2666 29.7539C40.4318 29.5887 40.5246 29.3646 40.5246 29.131C40.5246 28.8973 40.4318 28.6732 40.2666 28.508C40.1014 28.3428 39.8773 28.25 39.6437 28.25H29.9532C29.7196 28.25 29.4955 28.3428 29.3303 28.508C29.1651 28.6732 29.0723 28.8973 29.0723 29.131C29.0723 29.3646 29.1651 29.5887 29.3303 29.7539C29.4955 29.9191 29.7196 30.0119 29.9532 30.0119Z" fill="#2D4356"/>
<path d="M29.9532 35.298H44.0485C44.2821 35.298 44.5062 35.2052 44.6714 35.04C44.8366 34.8748 44.9294 34.6507 44.9294 34.4171C44.9294 34.1834 44.8366 33.9594 44.6714 33.7942C44.5062 33.6289 44.2821 33.5361 44.0485 33.5361H29.9532C29.7196 33.5361 29.4955 33.6289 29.3303 33.7942C29.1651 33.9594 29.0723 34.1834 29.0723 34.4171C29.0723 34.6507 29.1651 34.8748 29.3303 35.04C29.4955 35.2052 29.7196 35.298 29.9532 35.298Z" fill="#0BCEB2"/>
<path d="M28.9424 51.5912C29.2776 51.2553 29.5007 50.8238 29.5811 50.3561C29.6615 49.8884 29.5953 49.4072 29.3916 48.9786C29.5248 48.702 29.6425 48.4182 29.744 48.1285C30.1911 47.9694 30.578 47.676 30.8518 47.2884C31.1256 46.9008 31.2729 46.4381 31.2734 45.9636V44.8938C31.2729 44.4193 31.1256 43.9566 30.8518 43.569C30.578 43.1814 30.1911 42.888 29.744 42.7289C29.6425 42.4392 29.5248 42.1554 29.3916 41.8788C29.5953 41.4501 29.6615 40.969 29.5811 40.5013C29.5007 40.0335 29.2776 39.6021 28.9424 39.2662L28.186 38.5098C27.8499 38.1743 27.4183 37.9509 26.9504 37.8704C26.4824 37.7899 26.001 37.8561 25.5721 38.0599C25.2959 37.927 25.0125 37.8095 24.7233 37.7081C24.5642 37.261 24.2707 36.8741 23.8831 36.6003C23.4956 36.3265 23.0328 36.1793 22.5583 36.1787H21.4886C21.014 36.1793 20.5513 36.3265 20.1637 36.6003C19.7762 36.8741 19.4827 37.2611 19.3236 37.7081C19.0344 37.8095 18.751 37.927 18.4748 38.0599C18.0459 37.8561 17.5645 37.7899 17.0965 37.8704C16.6285 37.9509 16.1969 38.1743 15.8609 38.5098L15.1045 39.2662C14.7693 39.6022 14.5462 40.0336 14.4658 40.5013C14.3854 40.969 14.4515 41.4502 14.6552 41.8788C14.522 42.1554 14.4044 42.4392 14.3029 42.7289C13.8558 42.888 13.4689 43.1814 13.1951 43.569C12.9213 43.9566 12.774 44.4193 12.7734 44.8938V45.9636C12.774 46.4381 12.9213 46.9008 13.1951 47.2884C13.4689 47.676 13.8558 47.9694 14.3028 48.1285C14.4044 48.4182 14.5221 48.702 14.6553 48.9786C14.4516 49.4072 14.3854 49.8884 14.4658 50.3561C14.5462 50.8238 14.7693 51.2552 15.1045 51.5912L15.8609 52.3477C16.1969 52.6832 16.6285 52.9065 17.0965 52.987C17.5645 53.0676 18.0459 53.0014 18.4748 52.7975C18.751 52.9304 19.0343 53.0479 19.3236 53.1493C19.4827 53.5964 19.7762 53.9833 20.1637 54.2571C20.5513 54.5309 21.014 54.6781 21.4886 54.6787H22.5583C23.0328 54.6781 23.4956 54.5309 23.8831 54.2571C24.2707 53.9833 24.5641 53.5964 24.7232 53.1493C25.0125 53.0479 25.2959 52.9304 25.5721 52.7975C26.001 53.0014 26.4824 53.0676 26.9504 52.987C27.4183 52.9065 27.8499 52.6831 28.186 52.3476L28.9424 51.5912ZM27.6965 50.3454L26.9401 51.1018C26.8904 51.1515 26.8315 51.1909 26.7666 51.2177C26.7017 51.2446 26.6321 51.2585 26.5619 51.2585C26.4917 51.2585 26.4221 51.2446 26.3572 51.2177C26.2923 51.1909 26.2334 51.1515 26.1837 51.1018L25.7411 50.6592C24.9531 51.221 24.0476 51.5963 23.0932 51.7566V52.3819C23.0932 52.5238 23.0368 52.6598 22.9365 52.7601C22.8362 52.8604 22.7002 52.9168 22.5583 52.9168H21.4886C21.3467 52.9168 21.2107 52.8604 21.1104 52.7601C21.0101 52.6598 20.9537 52.5238 20.9537 52.3819V51.7566C19.9993 51.5963 19.0938 51.221 18.3058 50.6592L17.8632 51.1018C17.8135 51.1515 17.7545 51.1909 17.6896 51.2177C17.6248 51.2446 17.5552 51.2585 17.485 51.2585C17.4147 51.2585 17.3452 51.2446 17.2803 51.2177C17.2154 51.1909 17.1564 51.1515 17.1068 51.1018L16.3503 50.3454C16.25 50.2451 16.1937 50.109 16.1937 49.9672C16.1937 49.8253 16.25 49.6893 16.3503 49.589L16.793 49.1463C16.2311 48.3583 15.8558 47.4529 15.6955 46.4984H15.0702C15 46.4984 14.9304 46.4846 14.8655 46.4577C14.8006 46.4308 14.7417 46.3914 14.692 46.3418C14.6423 46.2921 14.6029 46.2331 14.5761 46.1683C14.5492 46.1034 14.5353 46.0338 14.5353 45.9636V44.8938C14.5353 44.8236 14.5492 44.754 14.5761 44.6892C14.6029 44.6243 14.6423 44.5653 14.692 44.5156C14.7417 44.466 14.8006 44.4266 14.8655 44.3997C14.9304 44.3728 15 44.359 15.0702 44.359H15.6955C15.8558 43.4045 16.2311 42.4991 16.793 41.7111L16.3503 41.2684C16.25 41.1681 16.1937 41.0321 16.1937 40.8902C16.1937 40.7484 16.25 40.6123 16.3503 40.512L17.1068 39.7556C17.1564 39.706 17.2154 39.6666 17.2803 39.6397C17.3452 39.6128 17.4147 39.599 17.485 39.599C17.5552 39.599 17.6248 39.6128 17.6896 39.6397C17.7545 39.6666 17.8135 39.706 17.8632 39.7556L18.3058 40.1983C19.0938 39.6364 19.9993 39.2611 20.9537 39.1008V38.4755C20.9537 38.3336 21.0101 38.1976 21.1104 38.0973C21.2107 37.997 21.3467 37.9406 21.4886 37.9406H22.5583C22.7002 37.9406 22.8362 37.997 22.9365 38.0973C23.0368 38.1976 23.0932 38.3336 23.0932 38.4755V39.1008C24.0476 39.2611 24.9531 39.6364 25.7411 40.1983L26.1837 39.7556C26.2334 39.706 26.2923 39.6666 26.3572 39.6397C26.4221 39.6128 26.4917 39.599 26.5619 39.599C26.6321 39.599 26.7017 39.6128 26.7666 39.6397C26.8315 39.6666 26.8904 39.706 26.9401 39.7556L27.6965 40.512C27.7968 40.6123 27.8532 40.7484 27.8532 40.8902C27.8532 41.0321 27.7968 41.1681 27.6965 41.2684L27.2539 41.7111C27.8158 42.4991 28.1911 43.4045 28.3514 44.359H28.9767C29.0469 44.359 29.1165 44.3728 29.1814 44.3997C29.2462 44.4266 29.3052 44.466 29.3549 44.5156C29.4045 44.5653 29.4439 44.6243 29.4708 44.6892C29.4977 44.7541 29.5115 44.8236 29.5115 44.8938V45.9636C29.5115 46.0338 29.4977 46.1034 29.4708 46.1683C29.4439 46.2332 29.4045 46.2921 29.3549 46.3418C29.3052 46.3914 29.2462 46.4308 29.1813 46.4577C29.1165 46.4846 29.0469 46.4984 28.9767 46.4984H28.3514C28.1911 47.4529 27.8158 48.3583 27.2539 49.1463L27.6965 49.589C27.7968 49.6893 27.8532 49.8253 27.8532 49.9672C27.8532 50.109 27.7968 50.2451 27.6965 50.3454Z" fill="#2D4356"/>
<path d="M22.0229 41.4639C21.2388 41.4639 20.4724 41.6964 19.8204 42.132C19.1685 42.5676 18.6604 43.1867 18.3604 43.9111C18.0603 44.6355 17.9818 45.4326 18.1348 46.2015C18.2877 46.9705 18.6653 47.6769 19.2197 48.2313C19.7741 48.7857 20.4805 49.1633 21.2495 49.3163C22.0185 49.4692 22.8156 49.3907 23.5399 49.0907C24.2643 48.7906 24.8835 48.2825 25.3191 47.6306C25.7547 46.9787 25.9872 46.2122 25.9872 45.4282C25.986 44.3771 25.5679 43.3695 24.8247 42.6263C24.0816 41.8831 23.0739 41.4651 22.0229 41.4639ZM22.0229 47.6305C21.5873 47.6305 21.1615 47.5014 20.7993 47.2594C20.4371 47.0174 20.1548 46.6734 19.9881 46.271C19.8215 45.8685 19.7778 45.4257 19.8628 44.9985C19.9478 44.5713 20.1576 44.1788 20.4656 43.8708C20.7736 43.5628 21.166 43.3531 21.5932 43.2681C22.0204 43.1831 22.4633 43.2267 22.8657 43.3934C23.2681 43.5601 23.6121 43.8424 23.8541 44.2046C24.0961 44.5668 24.2253 44.9926 24.2253 45.4282C24.2246 46.012 23.9923 46.5718 23.5794 46.9847C23.1666 47.3976 22.6068 47.6298 22.0229 47.6305Z" fill="#0BCEB2"/>
<path d="M40.5235 37.9405C40.5235 37.7069 40.4306 37.4828 40.2654 37.3176C40.1002 37.1524 39.8762 37.0596 39.6425 37.0596H29.952C29.7567 37.0603 29.5673 37.1265 29.4141 37.2475C29.4196 37.253 29.4258 37.2576 29.4313 37.2631L30.1891 38.0209C30.428 38.2608 30.6358 38.5297 30.8076 38.8215H39.6425C39.8762 38.8215 40.1002 38.7286 40.2654 38.5634C40.4306 38.3982 40.5235 38.1742 40.5235 37.9405Z" fill="#2D4356"/>
<path d="M44.0471 42.3457H32.125C32.539 42.8574 32.8224 43.4621 32.9507 44.1076H44.0471C44.2808 44.1076 44.5049 44.0148 44.6701 43.8496C44.8353 43.6844 44.9281 43.4603 44.9281 43.2267C44.9281 42.993 44.8353 42.7689 44.6701 42.6037C44.5049 42.4385 44.2808 42.3457 44.0471 42.3457Z" fill="#0BCEB2"/>
<path d="M39.6429 45.8691H33.0358V45.9633C33.0336 46.5391 32.9082 47.1078 32.668 47.631H39.6429C39.8766 47.631 40.1006 47.5382 40.2658 47.373C40.431 47.2078 40.5239 46.9837 40.5239 46.7501C40.5239 46.5164 40.431 46.2924 40.2658 46.1272C40.1006 45.962 39.8766 45.8691 39.6429 45.8691Z" fill="#2D4356"/>
<path d="M0.880952 65.2502C1.36749 65.2502 1.7619 64.8558 1.7619 64.3692C1.7619 63.8827 1.36749 63.4883 0.880952 63.4883C0.394416 63.4883 0 63.8827 0 64.3692C0 64.8558 0.394416 65.2502 0.880952 65.2502Z" fill="#2D4356"/>
<path d="M4.84496 63.4883H3.52353C3.28989 63.4883 3.06581 63.5811 2.9006 63.7463C2.73539 63.9115 2.64258 64.1356 2.64258 64.3692C2.64258 64.6029 2.73539 64.827 2.9006 64.9922C3.06581 65.1574 3.28989 65.2502 3.52353 65.2502H4.84496C5.0786 65.2502 5.30268 65.1574 5.46789 64.9922C5.6331 64.827 5.72591 64.6029 5.72591 64.3692C5.72591 64.1356 5.6331 63.9115 5.46789 63.7463C5.30268 63.5811 5.0786 63.4883 4.84496 63.4883ZM70.4759 63.4883H69.1545C68.9208 63.4883 68.6968 63.5811 68.5316 63.7463C68.3663 63.9115 68.2735 64.1356 68.2735 64.3692C68.2735 64.6029 68.3663 64.827 68.5316 64.9922C68.6968 65.1574 68.9208 65.2502 69.1545 65.2502H70.4759C70.7096 65.2502 70.9336 65.1574 71.0988 64.9922C71.2641 64.827 71.3569 64.6029 71.3569 64.3692C71.3569 64.1356 71.2641 63.9115 71.0988 63.7463C70.9336 63.5811 70.7096 63.4883 70.4759 63.4883Z" fill="#2D4356"/>
<path d="M73.1192 65.2502C73.6058 65.2502 74.0002 64.8558 74.0002 64.3692C74.0002 63.8827 73.6058 63.4883 73.1192 63.4883C72.6327 63.4883 72.2383 63.8827 72.2383 64.3692C72.2383 64.8558 72.6327 65.2502 73.1192 65.2502Z" fill="#2D4356"/>
<path d="M52.0437 67.0117H48.3843C48.1629 67.0295 47.9562 67.13 47.8055 67.2932C47.6548 67.4565 47.5711 67.6705 47.5711 67.8927C47.5711 68.1148 47.6548 68.3289 47.8055 68.4921C47.9562 68.6554 48.1629 68.7559 48.3843 68.7736H52.0437C52.2652 68.7559 52.4718 68.6554 52.6225 68.4921C52.7732 68.3289 52.8569 68.1148 52.8569 67.8927C52.8569 67.6705 52.7732 67.4565 52.6225 67.2932C52.4718 67.13 52.2652 67.0295 52.0437 67.0117ZM25.6151 67.0117H21.9558C21.7343 67.0295 21.5276 67.13 21.377 67.2932C21.2263 67.4565 21.1426 67.6705 21.1426 67.8927C21.1426 68.1148 21.2263 68.3289 21.377 68.4921C21.5276 68.6554 21.7343 68.7559 21.9558 68.7736H25.6151C25.8366 68.7559 26.0432 68.6554 26.1939 68.4921C26.3446 68.3289 26.4283 68.1148 26.4283 67.8927C26.4283 67.6705 26.3446 67.4565 26.1939 67.2932C26.0432 67.13 25.8366 67.0295 25.6151 67.0117ZM45.8093 67.0117H28.1902C27.9566 67.0117 27.7325 67.1045 27.5673 67.2697C27.4021 67.435 27.3093 67.659 27.3093 67.8927C27.3093 68.1263 27.4021 68.3504 27.5673 68.5156C27.7325 68.6808 27.9566 68.7736 28.1902 68.7736H35.2114V69.6546H31.714C31.4804 69.6546 31.2563 69.7474 31.0911 69.9126C30.9259 70.0778 30.8331 70.3019 30.8331 70.5355C30.8331 70.7692 30.9259 70.9932 31.0911 71.1585C31.2563 71.3237 31.4804 71.4165 31.714 71.4165H42.7259C42.9596 71.4165 43.1836 71.3237 43.3489 71.1585C43.5141 70.9932 43.6069 70.7692 43.6069 70.5355C43.6069 70.3019 43.5141 70.0778 43.3489 69.9126C43.1836 69.7474 42.9596 69.6546 42.7259 69.6546H38.7881V68.7736H45.8093C46.0429 68.7736 46.267 68.6808 46.4322 68.5156C46.5974 68.3504 46.6902 68.1263 46.6902 67.8927C46.6902 67.659 46.5974 67.435 46.4322 67.2697C46.267 67.1045 46.0429 67.0117 45.8093 67.0117Z" fill="#0BCEB2"/>
<path d="M66.3898 63.4878H37.8816V61.7259H62.5483C63.249 61.7251 63.9207 61.4464 64.4162 60.9509C64.9117 60.4555 65.1904 59.7837 65.1911 59.083V30.8925C65.1904 30.1918 64.9117 29.5201 64.4162 29.0246C63.9207 28.5291 63.249 28.2504 62.5483 28.2497H55.5007V27.2952C55.4994 27.2545 55.4953 27.2139 55.4884 27.1738C55.4864 27.1591 55.4868 27.1444 55.484 27.1298C55.4712 27.0632 55.4507 26.9983 55.4229 26.9365C55.4213 26.9331 55.4211 26.9295 55.4196 26.9261L52.8578 21.3756V20.3211C52.857 19.6204 52.5783 18.9486 52.0829 18.4532C51.5874 17.9577 50.9156 17.679 50.2149 17.6782H23.7864C23.0857 17.679 22.4139 17.9577 21.9184 18.4532C21.423 18.9486 21.1443 19.6204 21.1435 20.3211V28.2497H11.453C10.7523 28.2504 10.0806 28.5291 9.5851 29.0246C9.08963 29.5201 8.81094 30.1918 8.81018 30.8925V59.083C8.81094 59.7837 9.08963 60.4555 9.5851 60.9509C10.0806 61.4464 10.7523 61.7251 11.453 61.7259H36.1197V63.4878H7.6115C7.48618 63.4714 7.3588 63.4819 7.23787 63.5187C7.11695 63.5555 7.00527 63.6177 6.91028 63.701C6.8153 63.7844 6.73919 63.8871 6.68706 64.0023C6.63492 64.1174 6.60796 64.2423 6.60796 64.3687C6.60796 64.4951 6.63492 64.6201 6.68706 64.7352C6.73919 64.8503 6.8153 64.953 6.91028 65.0364C7.00527 65.1198 7.11695 65.1819 7.23787 65.2187C7.3588 65.2555 7.48618 65.266 7.6115 65.2497H66.3898C66.5151 65.266 66.6425 65.2555 66.7634 65.2187C66.8844 65.1819 66.996 65.1198 67.091 65.0364C67.186 64.953 67.2621 64.8503 67.3142 64.7352C67.3664 64.6201 67.3933 64.4951 67.3933 64.3687C67.3933 64.2423 67.3664 64.1174 67.3142 64.0023C67.2621 63.8871 67.186 63.7844 67.091 63.701C66.996 63.6177 66.8844 63.5555 66.7634 63.5187C66.6425 63.4819 66.5151 63.4714 66.3898 63.4878ZM50.2149 46.2356V28.1761H53.7387V46.2356H50.2149ZM53.7387 47.9975V50.714H50.2149V47.9975H53.7387ZM53.2428 26.4142H50.7109L51.9768 23.6711L53.2428 26.4142ZM10.5721 30.8925C10.5723 30.659 10.6652 30.4351 10.8304 30.2699C10.9956 30.1047 11.2195 30.0118 11.453 30.0116H21.1435V34.4376C21.2584 34.4277 21.373 34.4163 21.4898 34.4163H22.5591C22.6759 34.4163 22.7905 34.4277 22.9054 34.4376V20.3211C22.9057 20.0875 22.9986 19.8636 23.1637 19.6985C23.3289 19.5333 23.5528 19.4404 23.7864 19.4402H50.2149C50.4485 19.4404 50.6724 19.5333 50.8376 19.6985C51.0027 19.8636 51.0956 20.0875 51.0959 20.3211V21.3756L48.5341 26.9261C48.5326 26.9295 48.5324 26.9332 48.5308 26.9365C48.503 26.9983 48.4825 27.0632 48.4697 27.1298C48.4669 27.1444 48.4673 27.1591 48.4653 27.1738C48.4584 27.2139 48.4543 27.2545 48.453 27.2952V50.714C48.4535 51.1811 48.6393 51.629 48.9696 51.9593C49.2999 52.2896 49.7478 52.4754 50.2149 52.4759H50.9733C50.8966 52.6093 50.7862 52.7203 50.6531 52.7976C50.52 52.8749 50.3689 52.9158 50.2149 52.9163H30.1094L29.4321 53.5937C28.8919 54.1345 28.2092 54.5107 27.4635 54.6782H50.2149C50.8389 54.6772 51.4424 54.4556 51.9188 54.0525C52.3951 53.6495 52.7136 53.091 52.818 52.4759H53.7387C54.2059 52.4754 54.6537 52.2896 54.9841 51.9593C55.3144 51.629 55.5002 51.1811 55.5007 50.714V30.0116H62.5483C62.7818 30.0118 63.0058 30.1047 63.1709 30.2699C63.3361 30.4351 63.429 30.659 63.4292 30.8925V56.4401H10.5721V30.8925ZM11.453 59.964C11.2195 59.9637 10.9956 59.8708 10.8304 59.7056C10.6652 59.5405 10.5723 59.3166 10.5721 59.083V58.2021H63.4292V59.083C63.429 59.3166 63.3361 59.5405 63.1709 59.7056C63.0058 59.8708 62.7818 59.9637 62.5483 59.964H11.453ZM53.2983 7.10682C53.5596 7.10682 53.8151 7.02932 54.0324 6.88412C54.2497 6.73892 54.4191 6.53254 54.5191 6.29108C54.6191 6.04962 54.6453 5.78392 54.5943 5.52759C54.5433 5.27126 54.4175 5.0358 54.2327 4.851C54.0479 4.66619 53.8124 4.54034 53.5561 4.48935C53.2997 4.43836 53.034 4.46453 52.7926 4.56455C52.5511 4.66456 52.3447 4.83393 52.1995 5.05124C52.0543 5.26855 51.9768 5.52403 51.9768 5.78539C51.9772 6.13573 52.1166 6.47161 52.3643 6.71934C52.6121 6.96707 52.9479 7.10642 53.2983 7.10682ZM53.2983 5.12467C53.4289 5.12467 53.5567 5.16342 53.6653 5.23602C53.774 5.30862 53.8587 5.41181 53.9087 5.53254C53.9587 5.65327 53.9718 5.78612 53.9463 5.91429C53.9208 6.04245 53.8579 6.16018 53.7655 6.25258C53.6731 6.34499 53.5553 6.40791 53.4272 6.43341C53.299 6.4589 53.1662 6.44582 53.0454 6.39581C52.9247 6.3458 52.8215 6.26112 52.7489 6.15246C52.6763 6.04381 52.6376 5.91607 52.6376 5.78539C52.6377 5.61021 52.7074 5.44225 52.8313 5.31838C52.9551 5.19451 53.1231 5.12485 53.2983 5.12467ZM17.1792 15.5604C17.005 15.5604 16.8347 15.6121 16.6898 15.7089C16.5449 15.8057 16.432 15.9433 16.3653 16.1043C16.2987 16.2652 16.2812 16.4424 16.3152 16.6133C16.3492 16.7841 16.4331 16.9411 16.5563 17.0643C16.6795 17.1875 16.8365 17.2714 17.0074 17.3054C17.1782 17.3394 17.3554 17.322 17.5163 17.2553C17.6773 17.1886 17.8149 17.0757 17.9117 16.9308C18.0085 16.7859 18.0602 16.6156 18.0602 16.4414C18.0599 16.2078 17.967 15.9839 17.8019 15.8188C17.6367 15.6536 17.4128 15.5607 17.1792 15.5604ZM17.1792 16.8819C17.0921 16.8819 17.0069 16.856 16.9345 16.8076C16.8621 16.7592 16.8056 16.6904 16.7723 16.61C16.7389 16.5295 16.7302 16.4409 16.7472 16.3555C16.7642 16.27 16.8062 16.1915 16.8678 16.1299C16.9294 16.0683 17.0078 16.0264 17.0933 16.0094C17.1787 15.9924 17.2673 16.0011 17.3478 16.0344C17.4283 16.0678 17.4971 16.1242 17.5455 16.1967C17.5939 16.2691 17.6197 16.3543 17.6197 16.4414C17.6196 16.5582 17.5731 16.6701 17.4906 16.7527C17.408 16.8353 17.296 16.8817 17.1792 16.8819ZM26.8697 3.58301C26.6955 3.58301 26.5251 3.63467 26.3803 3.73148C26.2354 3.82828 26.1225 3.96586 26.0558 4.12683C25.9891 4.28781 25.9717 4.46494 26.0057 4.63583C26.0397 4.80671 26.1236 4.96368 26.2468 5.08689C26.37 5.21009 26.5269 5.29399 26.6978 5.32799C26.8687 5.36198 27.0459 5.34453 27.2068 5.27785C27.3678 5.21118 27.5054 5.09826 27.6022 4.95339C27.699 4.80852 27.7507 4.6382 27.7507 4.46396C27.7504 4.2304 27.6575 4.00648 27.4923 3.84133C27.3272 3.67617 27.1033 3.58327 26.8697 3.58301ZM26.8697 4.90444C26.7826 4.90444 26.6974 4.8786 26.625 4.8302C26.5525 4.7818 26.4961 4.71301 26.4628 4.63252C26.4294 4.55204 26.4207 4.46347 26.4377 4.37803C26.4547 4.29258 26.4966 4.2141 26.5582 4.1525C26.6198 4.09089 26.6983 4.04894 26.7838 4.03195C26.8692 4.01495 26.9578 4.02367 27.0383 4.05701C27.1187 4.09035 27.1875 4.14681 27.2359 4.21924C27.2843 4.29168 27.3102 4.37684 27.3102 4.46396C27.3101 4.58075 27.2636 4.69272 27.181 4.7753C27.0985 4.85788 26.9865 4.90432 26.8697 4.90444ZM70.0364 21.2021C69.8621 21.2021 69.6918 21.2537 69.5469 21.3505C69.4021 21.4473 69.2891 21.5849 69.2225 21.7459C69.1558 21.9069 69.1384 22.084 69.1723 22.2549C69.2063 22.4258 69.2902 22.5827 69.4134 22.7059C69.5366 22.8291 69.6936 22.913 69.8645 22.947C70.0354 22.981 70.2125 22.9636 70.3735 22.8969C70.5345 22.8302 70.6721 22.7173 70.7689 22.5724C70.8657 22.4276 70.9173 22.2572 70.9173 22.083C70.9171 21.8494 70.8242 21.6255 70.659 21.4604C70.4939 21.2952 70.2699 21.2023 70.0364 21.2021ZM70.0364 22.5235C69.9492 22.5235 69.8641 22.4977 69.7916 22.4493C69.7192 22.4009 69.6628 22.3321 69.6294 22.2516C69.5961 22.1711 69.5874 22.0825 69.6044 21.9971C69.6214 21.9116 69.6633 21.8331 69.7249 21.7715C69.7865 21.7099 69.865 21.668 69.9504 21.651C70.0359 21.634 70.1245 21.6427 70.2049 21.6761C70.2854 21.7094 70.3542 21.7659 70.4026 21.8383C70.451 21.9107 70.4768 21.9959 70.4768 22.083C70.4767 22.1998 70.4303 22.3118 70.3477 22.3943C70.2651 22.4769 70.1532 22.5234 70.0364 22.5235ZM4.84589 9.3092C4.84589 9.13496 4.79422 8.96464 4.69742 8.81977C4.60062 8.67489 4.46304 8.56198 4.30206 8.4953C4.14109 8.42863 3.96396 8.41118 3.79307 8.44517C3.62218 8.47916 3.46521 8.56307 3.34201 8.68627C3.21881 8.80947 3.1349 8.96644 3.10091 9.13733C3.06692 9.30822 3.08437 9.48535 3.15104 9.64632C3.21772 9.8073 3.33063 9.94488 3.47551 10.0417C3.62038 10.1385 3.7907 10.1902 3.96494 10.1902C4.1985 10.1899 4.42242 10.097 4.58757 9.93183C4.75272 9.76668 4.84562 9.54276 4.84589 9.3092ZM3.52446 9.3092C3.52446 9.22208 3.55029 9.13692 3.59869 9.06448C3.64709 8.99205 3.71589 8.93559 3.79637 8.90225C3.87686 8.86891 3.96543 8.86019 4.05087 8.87719C4.13631 8.89418 4.2148 8.93613 4.2764 8.99773C4.338 9.05934 4.37995 9.13782 4.39695 9.22327C4.41395 9.30871 4.40522 9.39727 4.37188 9.47776C4.33855 9.55825 4.28209 9.62704 4.20965 9.67544C4.13722 9.72384 4.05206 9.74967 3.96494 9.74967C3.84815 9.74956 3.73618 9.70311 3.6536 9.62053C3.57102 9.53795 3.52458 9.42598 3.52446 9.3092Z" fill="#2D4356"/>
<path d="M37.697 11.9578L38.352 11.0966L37.9384 10.8623L37.5182 11.8269H37.5041L37.0768 10.8689L36.6562 11.1103L37.3041 11.9512V11.9648L36.291 11.834V12.3027L37.3112 12.1718V12.1855L36.6562 13.0259L37.0491 13.2744L37.4975 12.3027H37.5107L37.9243 13.2673L38.3586 13.0193L37.697 12.1921V12.1784L38.7374 12.3027V11.834L37.697 11.9714V11.9578Z" fill="#0BCEB2"/>
<path d="M6.06806 22.1126L5.69058 22.5967L5.91698 22.7394L6.1751 22.18H6.18303L6.42089 22.7354L6.67108 22.5927L6.29006 22.1161V22.1082L6.88911 22.18V21.91L6.29006 21.9893V21.9813L6.66711 21.4854L6.42925 21.3506L6.18699 21.906H6.17906L5.93328 21.3541L5.69058 21.4933L6.0641 21.9774V21.9853L5.48047 21.91V22.18L6.06806 22.1047V22.1126Z" fill="#0BCEB2"/>
<path d="M58.1439 16.6714V16.212L57.1233 16.3472V16.3336L57.7659 15.4887L57.3602 15.2588L56.948 16.2049H56.9339L56.515 15.2654L56.1022 15.5024L56.7379 16.3269V16.3406L55.7441 16.212V16.6714L56.7445 16.5432V16.5569L56.1022 17.3814L56.4877 17.625L56.9273 16.6714H56.9405L57.3461 17.618L57.7721 17.3748L57.1233 16.5635V16.5498L58.1439 16.6714Z" fill="#0BCEB2"/>
<path d="M69.3499 5.60396L69.904 4.87497L69.5543 4.67676L69.1984 5.49296H69.1865L68.8253 4.68248L68.4694 4.88687L69.0178 5.59823V5.60969L68.1602 5.49913V5.89556L69.0235 5.78456V5.79645L68.4694 6.50782L68.8015 6.71792L69.1812 5.89556H69.1922L69.5424 6.71176L69.9097 6.50209L69.3499 5.80217V5.79028L70.2304 5.89556V5.49913L69.3499 5.61541V5.60396Z" fill="#0BCEB2"/>
</g>
<defs>
<clipPath id="clip0_380_745">
<rect width="74" height="74" fill="white" transform="translate(0 0.5)"/>
</clipPath>
</defs>
</svg>
