<svg width="75" height="74" viewBox="0 0 75 74" fill="none" xmlns="http://www.w3.org/2000/svg">
<g clip-path="url(#clip0_380_676)">
<path d="M1.38095 66.9523C1.86749 66.9523 2.2619 66.5579 2.2619 66.0714C2.2619 65.5848 1.86749 65.1904 1.38095 65.1904C0.894416 65.1904 0.5 65.5848 0.5 66.0714C0.5 66.5579 0.894416 66.9523 1.38095 66.9523Z" fill="#2D4356"/>
<path d="M5.34301 65.1904H4.02158C3.78793 65.1904 3.56386 65.2832 3.39865 65.4485C3.23344 65.6137 3.14063 65.8377 3.14062 66.0714C3.14063 66.305 3.23344 66.5291 3.39865 66.6943C3.56386 66.8595 3.78793 66.9523 4.02158 66.9523H5.34301C5.57665 66.9523 5.80072 66.8595 5.96593 66.6943C6.13114 66.5291 6.22396 66.305 6.22396 66.0714C6.22396 65.8377 6.13114 65.6137 5.96593 65.4485C5.80072 65.2832 5.57665 65.1904 5.34301 65.1904ZM70.974 65.1904H69.6525C69.4189 65.1904 69.1948 65.2832 69.0296 65.4485C68.8644 65.6137 68.7716 65.8377 68.7716 66.0714C68.7716 66.305 68.8644 66.5291 69.0296 66.6943C69.1948 66.8595 69.4189 66.9523 69.6525 66.9523H70.974C71.2076 66.9523 71.4317 66.8595 71.5969 66.6943C71.7621 66.5291 71.8549 66.305 71.8549 66.0714C71.8549 65.8377 71.7621 65.6137 71.5969 65.4485C71.4317 65.2832 71.2076 65.1904 70.974 65.1904Z" fill="#2D4356"/>
<path d="M73.6192 66.9523C74.1058 66.9523 74.5002 66.5579 74.5002 66.0714C74.5002 65.5848 74.1058 65.1904 73.6192 65.1904C73.1327 65.1904 72.7383 65.5848 72.7383 66.0714C72.7383 66.5579 73.1327 66.9523 73.6192 66.9523Z" fill="#2D4356"/>
<path d="M52.5417 68.7139H48.8824C48.6609 68.7316 48.4543 68.8321 48.3036 68.9954C48.1529 69.1586 48.0692 69.3726 48.0692 69.5948C48.0692 69.817 48.1529 70.031 48.3036 70.1943C48.4543 70.3575 48.6609 70.458 48.8824 70.4758H52.5417C52.7632 70.458 52.9699 70.3575 53.1206 70.1943C53.2713 70.031 53.3549 69.817 53.3549 69.5948C53.3549 69.3726 53.2713 69.1586 53.1206 68.9954C52.9699 68.8321 52.7632 68.7316 52.5417 68.7139ZM26.1132 68.7139H22.4538C22.2324 68.7316 22.0257 68.8321 21.875 68.9954C21.7243 69.1586 21.6406 69.3726 21.6406 69.5948C21.6406 69.817 21.7243 70.031 21.875 70.1943C22.0257 70.3575 22.2324 70.458 22.4538 70.4758H26.1132C26.3346 70.458 26.5413 70.3575 26.692 70.1943C26.8427 70.031 26.9264 69.817 26.9264 69.5948C26.9264 69.3726 26.8427 69.1586 26.692 68.9954C26.5413 68.8321 26.3346 68.7316 26.1132 68.7139ZM46.3073 68.7139H28.6883C28.4546 68.7139 28.2305 68.8067 28.0653 68.9719C27.9001 69.1371 27.8073 69.3612 27.8073 69.5948C27.8073 69.8285 27.9001 70.0525 28.0653 70.2177C28.2305 70.383 28.4546 70.4758 28.6883 70.4758H35.7094V71.3567H32.2121C31.9784 71.3567 31.7543 71.4495 31.5891 71.6147C31.4239 71.78 31.3311 72.004 31.3311 72.2377C31.3311 72.4713 31.4239 72.6954 31.5891 72.8606C31.7543 73.0258 31.9784 73.1186 32.2121 73.1186H43.224C43.4576 73.1186 43.6817 73.0258 43.8469 72.8606C44.0121 72.6954 44.1049 72.4713 44.1049 72.2377C44.1049 72.004 44.0121 71.78 43.8469 71.6147C43.6817 71.4495 43.4576 71.3567 43.224 71.3567H39.2861V70.4758H46.3073C46.5409 70.4758 46.765 70.383 46.9302 70.2177C47.0954 70.0525 47.1883 69.8285 47.1883 69.5948C47.1883 69.3612 47.0954 69.1371 46.9302 68.9719C46.765 68.8067 46.5409 68.7139 46.3073 68.7139Z" fill="#0BCEB2"/>
<path d="M40.3908 6.82729C40.6522 6.82729 40.9076 6.74979 41.125 6.60459C41.3423 6.45939 41.5116 6.25301 41.6117 6.01155C41.7117 5.77009 41.7378 5.50439 41.6869 5.24806C41.6359 4.99173 41.51 4.75627 41.3252 4.57147C41.1404 4.38666 40.9049 4.26081 40.6486 4.20982C40.3923 4.15883 40.1266 4.185 39.8851 4.28502C39.6437 4.38503 39.4373 4.55441 39.2921 4.77171C39.1469 4.98902 39.0694 5.24451 39.0694 5.50586C39.0698 5.8562 39.2091 6.19208 39.4569 6.43981C39.7046 6.68754 40.0405 6.82689 40.3908 6.82729ZM40.3908 4.84515C40.5215 4.84515 40.6492 4.8839 40.7579 4.9565C40.8665 5.0291 40.9512 5.13229 41.0012 5.25302C41.0512 5.37374 41.0643 5.50659 41.0388 5.63476C41.0133 5.76292 40.9504 5.88065 40.858 5.97306C40.7656 6.06546 40.6479 6.12838 40.5197 6.15388C40.3915 6.17937 40.2587 6.16629 40.138 6.11628C40.0172 6.06627 39.9141 5.98159 39.8414 5.87293C39.7688 5.76428 39.7301 5.63654 39.7301 5.50586C39.7303 5.33068 39.7999 5.16272 39.9238 5.03885C40.0477 4.91498 40.2156 4.84532 40.3908 4.84515ZM55.5872 2.20229C55.413 2.20229 55.2427 2.25396 55.0978 2.35076C54.9529 2.44756 54.84 2.58514 54.7733 2.74611C54.7067 2.90709 54.6892 3.08422 54.7232 3.25511C54.7572 3.42599 54.8411 3.58296 54.9643 3.70617C55.0875 3.82937 55.2445 3.91327 55.4154 3.94727C55.5863 3.98126 55.7634 3.96381 55.9244 3.89713C56.0853 3.83046 56.2229 3.71754 56.3197 3.57267C56.4165 3.4278 56.4682 3.25748 56.4682 3.08324C56.4679 2.84968 56.375 2.62576 56.2099 2.46061C56.0447 2.29546 55.8208 2.20255 55.5872 2.20229ZM55.5872 3.52372C55.5001 3.52372 55.415 3.49788 55.3425 3.44948C55.2701 3.40108 55.2136 3.33229 55.1803 3.2518C55.147 3.17132 55.1382 3.08275 55.1552 2.99731C55.1722 2.91186 55.2142 2.83338 55.2758 2.77178C55.3374 2.71018 55.4159 2.66822 55.5013 2.65123C55.5868 2.63423 55.6753 2.64295 55.7558 2.67629C55.8363 2.70963 55.9051 2.76609 55.9535 2.83852C56.0019 2.91096 56.0277 2.99612 56.0277 3.08324C56.0276 3.20003 55.9812 3.312 55.8986 3.39458C55.816 3.47716 55.704 3.5236 55.5872 3.52372ZM27.3968 0.880859C27.2225 0.880859 27.0522 0.932526 26.9073 1.02933C26.7625 1.12613 26.6495 1.26371 26.5829 1.42469C26.5162 1.58566 26.4987 1.76279 26.5327 1.93368C26.5667 2.10457 26.6506 2.26154 26.7738 2.38474C26.897 2.50794 27.054 2.59185 27.2249 2.62584C27.3958 2.65983 27.5729 2.64238 27.7339 2.57571C27.8949 2.50903 28.0324 2.39611 28.1292 2.25124C28.2261 2.10637 28.2777 1.93605 28.2777 1.76181C28.2775 1.52825 28.1846 1.30433 28.0194 1.13918C27.8542 0.974026 27.6303 0.881126 27.3968 0.880859ZM27.3968 2.20229C27.3096 2.20229 27.2245 2.17645 27.1521 2.12805C27.0796 2.07965 27.0232 2.01086 26.9898 1.93037C26.9565 1.84989 26.9478 1.76132 26.9648 1.67588C26.9817 1.59044 27.0237 1.51195 27.0853 1.45035C27.1469 1.38875 27.2254 1.3468 27.3108 1.3298C27.3963 1.3128 27.4848 1.32153 27.5653 1.35486C27.6458 1.3882 27.7146 1.44466 27.763 1.5171C27.8114 1.58953 27.8372 1.67469 27.8372 1.76181C27.8371 1.8786 27.7907 1.99057 27.7081 2.07315C27.6255 2.15573 27.5136 2.20217 27.3968 2.20229ZM59.992 10.1309C59.8178 10.1309 59.6474 10.1825 59.5026 10.2793C59.3577 10.3761 59.2448 10.5137 59.1781 10.6747C59.1114 10.8357 59.094 11.0128 59.128 11.1837C59.162 11.3546 59.2459 11.5115 59.3691 11.6347C59.4923 11.7579 59.6493 11.8418 59.8201 11.8758C59.991 11.9098 60.1682 11.8924 60.3291 11.8257C60.4901 11.759 60.6277 11.6461 60.7245 11.5012C60.8213 11.3564 60.873 11.186 60.873 11.0118C60.8727 10.7783 60.7798 10.5543 60.6146 10.3892C60.4495 10.224 60.2256 10.1311 59.992 10.1309ZM59.992 11.4523C59.9049 11.4523 59.8197 11.4265 59.7473 11.3781C59.6749 11.3297 59.6184 11.2609 59.5851 11.1804C59.5517 11.0999 59.543 11.0113 59.56 10.9259C59.577 10.8404 59.6189 10.7619 59.6805 10.7003C59.7421 10.6387 59.8206 10.5968 59.9061 10.5798C59.9915 10.5628 60.0801 10.5715 60.1606 10.6049C60.2411 10.6382 60.3098 10.6947 60.3582 10.7671C60.4066 10.8395 60.4325 10.9247 60.4325 11.0118C60.4324 11.1286 60.3859 11.2406 60.3033 11.3231C60.2208 11.4057 60.1088 11.4522 59.992 11.4523ZM8.01581 25.107C8.01581 24.9328 7.96414 24.7625 7.86734 24.6176C7.77054 24.4727 7.63296 24.3598 7.47198 24.2932C7.31101 24.2265 7.13388 24.209 6.96299 24.243C6.79211 24.277 6.63513 24.3609 6.51193 24.4841C6.38873 24.6073 6.30483 24.7643 6.27083 24.9352C6.23684 25.1061 6.25429 25.2832 6.32097 25.4442C6.38764 25.6051 6.50056 25.7427 6.64543 25.8395C6.7903 25.9363 6.96062 25.988 7.13486 25.988C7.36842 25.9877 7.59234 25.8948 7.75749 25.7297C7.92264 25.5645 8.01554 25.3406 8.01581 25.107ZM6.69438 25.107C6.69438 25.0199 6.72022 24.9348 6.76862 24.8623C6.81702 24.7899 6.88581 24.7334 6.9663 24.7001C7.04678 24.6668 7.13535 24.658 7.22079 24.675C7.30624 24.692 7.38472 24.734 7.44632 24.7956C7.50792 24.8572 7.54988 24.9357 7.56687 25.0211C7.58387 25.1066 7.57514 25.1951 7.54181 25.2756C7.50847 25.3561 7.45201 25.4249 7.37957 25.4733C7.30714 25.5217 7.22198 25.5475 7.13486 25.5475C7.01807 25.5474 6.9061 25.501 6.82352 25.4184C6.74094 25.3358 6.6945 25.2238 6.69438 25.107Z" fill="#2D4356"/>
<path d="M20.6018 11.8982L21.2567 11.0371L20.8431 10.8027L20.4229 11.7674H20.4088L19.9816 10.8093L19.5609 11.0507L20.2088 11.8916V11.9052L19.1953 11.7744V12.2431L20.2155 12.1123V12.1259L19.5609 12.9664L19.9534 13.2148L20.4018 12.2431H20.4154L20.829 13.2077L21.2633 12.9597L20.6018 12.1325V12.1189L21.6422 12.2431V11.7744L20.6018 11.9119V11.8982Z" fill="#0BCEB2"/>
<path d="M4.39184 6.63605L4.01479 7.12013L4.2412 7.26284L4.49932 6.70344H4.50681L4.7451 7.25888L4.99529 7.11617L4.61428 6.63957V6.63164L5.21333 6.70344V6.43343L4.61428 6.51271V6.50479L4.99133 6.00881L4.75347 5.87402L4.51121 6.42946H4.50328L4.25706 5.87755L4.01479 6.01674L4.38832 6.50082V6.50875L3.80469 6.43343V6.70344L4.39184 6.62812V6.63605Z" fill="#0BCEB2"/>
<path d="M70.5603 21.0171V20.5577L69.5397 20.6929V20.6793L70.1819 19.8344L69.7763 19.6045L69.364 20.5506H69.3503L68.9314 19.6111L68.5187 19.8481L69.1543 20.6726V20.6863L68.1602 20.5577V21.0171L69.1609 20.8889V20.9026L68.5187 21.7271L68.9041 21.9707L69.3437 21.0171H69.3569L69.7626 21.9637L70.1886 21.7205L69.5397 20.9092V20.8955L70.5603 21.0171Z" fill="#0BCEB2"/>
<path d="M70.3186 2.46041L70.8728 1.73142L70.523 1.5332L70.1671 2.34941H70.1552L69.794 1.53893L69.4377 1.74331L69.9861 2.45468V2.46613L69.1289 2.35557V2.752L69.9918 2.641V2.65289L69.4377 3.36426L69.7702 3.57437L70.1495 2.752H70.1609L70.5111 3.5682L70.8785 3.35854L70.3186 2.65862V2.64673L71.1987 2.752V2.35557L70.3186 2.47186V2.46041Z" fill="#0BCEB2"/>
<path d="M66.8908 65.1904H59.0856V52.0422C59.0856 50.1261 57.8831 47.5141 55.9362 46.6331C52.9542 45.2765 46.7082 43.4705 44.7657 42.9199L44.0609 40.3387L42.6867 41.9597L42.6779 41.9685L43.0523 43.334L37.5023 50.7207L31.9523 43.334L32.3355 41.9376L30.9656 40.3079L30.9568 40.2947L30.2388 42.9199C28.2963 43.4705 22.0504 45.2765 19.0683 46.6331C17.1214 47.5141 15.9189 50.1261 15.9189 52.0422V65.1904H8.11369C7.9883 65.1739 7.86085 65.1844 7.73984 65.2211C7.61883 65.2578 7.50705 65.32 7.41198 65.4034C7.31691 65.4868 7.24074 65.5895 7.18855 65.7047C7.13637 65.8199 7.10938 65.9449 7.10938 66.0713C7.10938 66.1978 7.13637 66.3228 7.18855 66.438C7.24074 66.5532 7.31691 66.6559 7.41198 66.7393C7.50705 66.8227 7.61883 66.8848 7.73984 66.9216C7.86085 66.9583 7.9883 66.9688 8.11369 66.9523H66.8908C67.0162 66.9688 67.1437 66.9583 67.2647 66.9216C67.3857 66.8848 67.4975 66.8227 67.5925 66.7393C67.6876 66.6559 67.7638 66.5532 67.816 66.438C67.8681 66.3228 67.8951 66.1978 67.8951 66.0713C67.8951 65.9449 67.8681 65.8199 67.816 65.7047C67.7638 65.5895 67.6876 65.4868 67.5925 65.4034C67.4975 65.32 67.3857 65.2578 67.2647 65.2211C67.1437 65.1844 67.0162 65.1739 66.8908 65.1904ZM47.6332 45.6024C48.197 45.7742 48.7917 45.9548 49.3951 46.1442V54.1785H47.6332V45.6024ZM29.1332 45.0738C29.7851 44.8844 30.3357 44.7259 30.7145 44.6201L36.7975 52.7161C36.8835 52.8195 36.9913 52.9027 37.1131 52.9598C37.2349 53.0169 37.3677 53.0465 37.5023 53.0465C37.6368 53.0465 37.7696 53.0169 37.8914 52.9598C38.0132 52.9027 38.121 52.8195 38.207 52.7161L44.29 44.6201C44.6688 44.7259 45.2194 44.8844 45.8713 45.0738V54.1785H29.1332V45.0738ZM25.6094 46.1442C26.2129 45.9548 26.8075 45.7742 27.3713 45.6024V54.1785H25.6094V46.1442ZM21.6451 55.9404V65.1904H17.6808V52.0422C17.6808 50.5534 18.6895 48.7386 19.7951 48.2365C20.8258 47.7696 22.297 47.2366 23.8475 46.7168V54.1785H23.407C23.1756 54.1784 22.9465 54.2239 22.7327 54.3125C22.5189 54.401 22.3246 54.5308 22.161 54.6944C21.9974 54.858 21.8676 55.0523 21.7791 55.2661C21.6906 55.4798 21.6451 55.709 21.6451 55.9404ZM51.5975 65.1904H23.407V55.9404H51.5975V65.1904ZM57.3237 65.1904H53.3594V55.9404C53.3595 55.709 53.3139 55.4798 53.2254 55.2661C53.1369 55.0523 53.0071 54.858 52.8435 54.6944C52.6799 54.5308 52.4856 54.401 52.2718 54.3125C52.058 54.2239 51.8289 54.1784 51.5975 54.1785H51.157V46.7168C52.7075 47.2366 54.1787 47.7696 55.2094 48.2365C56.315 48.7386 57.3237 50.5533 57.3237 52.0422V65.1904ZM27.8118 29.0713H47.1927C47.816 29.0717 48.4193 28.8517 48.896 28.4502C49.3727 28.0486 49.692 27.4914 49.7975 26.8771C49.9029 26.2628 49.7877 25.631 49.4723 25.0935C49.1568 24.5559 48.6614 24.1473 48.0737 23.9398V22.0237C48.0709 19.9984 47.4867 18.0164 46.3904 16.3134C45.2941 14.6104 43.7319 13.258 41.8894 12.4169C41.9008 12.1211 41.8524 11.826 41.7471 11.5492C41.6418 11.2725 41.4818 11.0199 41.2766 10.8064C41.0714 10.593 40.8252 10.4232 40.5529 10.3071C40.2805 10.191 39.9875 10.1311 39.6914 10.1309H35.3131C35.017 10.1311 34.724 10.191 34.4517 10.3071C34.1793 10.4232 33.9331 10.593 33.7279 10.8064C33.5227 11.0199 33.3627 11.2725 33.2574 11.5492C33.1521 11.826 33.1037 12.1211 33.1151 12.4169C31.2726 13.258 29.7104 14.6104 28.6141 16.3134C27.5178 18.0164 26.9336 19.9984 26.9308 22.0237V23.9398C26.3431 24.1473 25.8477 24.5559 25.5322 25.0935C25.2168 25.631 25.1016 26.2628 25.207 26.8771C25.3125 27.4914 25.6318 28.0486 26.1085 28.4502C26.5852 28.8517 27.1885 29.0717 27.8118 29.0713ZM28.6927 22.0237C28.6959 20.3903 29.1532 18.79 30.0135 17.4016C30.8738 16.0131 32.1032 14.8912 33.5644 14.1612L34.5467 17.434C34.58 17.5449 34.635 17.6482 34.7083 17.738C34.7817 17.8277 34.872 17.9021 34.9741 17.9568C35.0762 18.0116 35.1882 18.0457 35.3035 18.0572C35.4188 18.0687 35.5352 18.0573 35.6462 18.0237C35.7571 17.9901 35.8603 17.9349 35.9499 17.8614C36.0394 17.7879 36.1136 17.6974 36.1682 17.5952C36.2228 17.493 36.2566 17.381 36.2679 17.2656C36.2791 17.1503 36.2675 17.0338 36.2337 16.923L34.8946 12.461C34.874 12.3954 34.869 12.3258 34.8803 12.258C34.8916 12.1902 34.9187 12.1259 34.9595 12.0706C35.0003 12.0152 35.0536 11.9702 35.115 11.9393C35.1764 11.9084 35.2443 11.8925 35.3131 11.8928H39.6914C39.7602 11.8925 39.8281 11.9084 39.8895 11.9393C39.951 11.9702 40.0042 12.0152 40.045 12.0706C40.0858 12.1259 40.1129 12.1902 40.1242 12.258C40.1355 12.3258 40.1306 12.3954 40.1099 12.461L38.7708 16.923C38.7031 17.1473 38.7273 17.3893 38.838 17.5958C38.9487 17.8023 39.1368 17.9564 39.3611 18.0242C39.4429 18.0467 39.5273 18.0585 39.6121 18.0594C39.8015 18.0593 39.9857 17.9985 40.138 17.8859C40.2902 17.7733 40.4023 17.6149 40.4579 17.434L41.4401 14.1612C42.9013 14.8912 44.1307 16.0131 44.991 17.4016C45.8513 18.79 46.3086 20.3903 46.3118 22.0237V23.7856H28.6927V22.0237ZM27.8118 25.5475H47.1927C47.4264 25.5475 47.6505 25.6403 47.8157 25.8055C47.9809 25.9708 48.0737 26.1948 48.0737 26.4285C48.0737 26.6621 47.9809 26.8862 47.8157 27.0514C47.6505 27.2166 47.4264 27.3094 47.1927 27.3094H27.8118C27.5781 27.3094 27.3541 27.2166 27.1889 27.0514C27.0236 26.8862 26.9308 26.6621 26.9308 26.4285C26.9308 26.1948 27.0236 25.9708 27.1889 25.8055C27.3541 25.6403 27.5781 25.5475 27.8118 25.5475Z" fill="#2D4356"/>
<path d="M46.7294 29.0713C46.6765 30.0359 46.54 31.0094 46.4034 31.9696C46.3418 32.4145 46.2757 32.8594 46.2228 33.2999C45.9321 35.6784 45.3992 38.2816 44.0601 40.3387L42.6858 41.9596L42.677 41.9684C41.4381 43.0624 39.9017 43.7631 38.2634 43.9814C38.0116 44.0238 37.7568 44.0459 37.5014 44.0475C37.2729 44.0466 37.0447 44.0289 36.8187 43.9946C35.1497 43.7806 33.5855 43.0631 32.3346 41.9376L30.9647 40.3078L30.9559 40.2946C29.5772 38.1759 29.0531 35.5243 28.78 33.2999C28.7271 32.8594 28.6611 32.4189 28.5994 31.974C28.4628 31.0138 28.3263 30.0403 28.2734 29.0713H30.0397C30.0882 29.9302 30.2159 30.82 30.3437 31.7274C30.4097 32.1811 30.4714 32.6347 30.5287 33.0884C31.2334 38.8499 33.2552 41.6733 37.083 42.2503C37.3822 42.3002 37.6878 42.2972 37.9859 42.2415C41.8753 41.6249 43.7562 38.9732 44.4742 33.0884C44.5314 32.6347 44.5931 32.1766 44.6592 31.723C44.7869 30.8156 44.9146 29.9302 44.9631 29.0713H46.7294Z" fill="#0BCEB2"/>
</g>
<defs>
<clipPath id="clip0_380_676">
<rect width="74" height="74" fill="white" transform="translate(0.5)"/>
</clipPath>
</defs>
</svg>
