<svg width="24" height="25" viewBox="0 0 24 25" fill="none" xmlns="http://www.w3.org/2000/svg">
<path d="M14.479 19.8736L13.508 20.8126C13.3217 21.0266 13.0919 21.1985 12.834 21.3169C12.5762 21.4352 12.296 21.4974 12.0123 21.4992C11.7285 21.501 11.4476 21.4424 11.1883 21.3273C10.9289 21.2122 10.697 21.0432 10.508 20.8316L5 15.4996C3.5 13.9996 2 12.2996 2 9.99955C2.00002 8.88675 2.33759 7.80014 2.96813 6.88322C3.59867 5.9663 4.49252 5.26221 5.53161 4.86395C6.5707 4.46569 7.70616 4.392 8.78801 4.6526C9.86987 4.9132 10.8472 5.49583 11.591 6.32355C11.6434 6.37957 11.7067 6.42422 11.7771 6.45475C11.8474 6.48528 11.9233 6.50104 12 6.50104C12.0767 6.50104 12.1526 6.48528 12.2229 6.45475C12.2933 6.42422 12.3566 6.37957 12.409 6.32355C13.1504 5.49045 14.128 4.90292 15.2116 4.63915C16.2952 4.37539 17.4335 4.4479 18.4749 4.84704C19.5163 5.24617 20.4114 5.953 21.0411 6.87345C21.6708 7.7939 22.0053 8.88431 22 9.99955C21.9997 10.5042 21.9259 11.0061 21.781 11.4896M15 15.4996H21M18 12.4996V18.4996" stroke="#359F6A" stroke-width="1.8" stroke-linecap="round" stroke-linejoin="round"/>
</svg>
