<svg width="30" height="30" viewBox="0 0 30 30" fill="none" xmlns="http://www.w3.org/2000/svg">
<path opacity="0.3" d="M10.9375 16.25C11.6834 16.25 12.3988 16.5463 12.9262 17.0738C13.4537 17.6012 13.75 18.3166 13.75 19.0625V23.4375C13.75 24.1834 13.4537 24.8988 12.9262 25.4262C12.3988 25.9537 11.6834 26.25 10.9375 26.25H6.5625C5.81658 26.25 5.10121 25.9537 4.57376 25.4262C4.04632 24.8988 3.75 24.1834 3.75 23.4375V19.0625C3.75 18.3166 4.04632 17.6012 4.57376 17.0738C5.10121 16.5463 5.81658 16.25 6.5625 16.25H10.9375ZM23.4375 3.75C24.1834 3.75 24.8988 4.04632 25.4262 4.57376C25.9537 5.10121 26.25 5.81658 26.25 6.5625V10.9375C26.25 11.6834 25.9537 12.3988 25.4262 12.9262C24.8988 13.4537 24.1834 13.75 23.4375 13.75H19.0625C18.3166 13.75 17.6012 13.4537 17.0738 12.9262C16.5463 12.3988 16.25 11.6834 16.25 10.9375V6.5625C16.25 5.81658 16.5463 5.10121 17.0738 4.57376C17.6012 4.04632 18.3166 3.75 19.0625 3.75H23.4375Z" fill="#359F6A"/>
<path d="M10.9375 3.75C11.6834 3.75 12.3988 4.04632 12.9262 4.57376C13.4537 5.10121 13.75 5.81658 13.75 6.5625V10.9375C13.75 11.6834 13.4537 12.3988 12.9262 12.9262C12.3988 13.4537 11.6834 13.75 10.9375 13.75H6.5625C5.81658 13.75 5.10121 13.4537 4.57376 12.9262C4.04632 12.3988 3.75 11.6834 3.75 10.9375V6.5625C3.75 5.81658 4.04632 5.10121 4.57376 4.57376C5.10121 4.04632 5.81658 3.75 6.5625 3.75H10.9375Z" fill="#359F6A"/>
<path opacity="0.3" d="M23.4375 16.25C24.1834 16.25 24.8988 16.5463 25.4262 17.0738C25.9537 17.6012 26.25 18.3166 26.25 19.0625V23.4375C26.25 24.1834 25.9537 24.8988 25.4262 25.4262C24.8988 25.9537 24.1834 26.25 23.4375 26.25H19.0625C18.3166 26.25 17.6012 25.9537 17.0738 25.4262C16.5463 24.8988 16.25 24.1834 16.25 23.4375V19.0625C16.25 18.3166 16.5463 17.6012 17.0738 17.0738C17.6012 16.5463 18.3166 16.25 19.0625 16.25H23.4375Z" fill="#359F6A"/>
</svg>
