<svg width="25" height="24" viewBox="0 0 25 24" fill="none" xmlns="http://www.w3.org/2000/svg">
<path d="M15.5 21.0005V13.0005C15.5 12.7352 15.3946 12.4809 15.2071 12.2933C15.0196 12.1058 14.7652 12.0005 14.5 12.0005H10.5C10.2348 12.0005 9.98043 12.1058 9.79289 12.2933C9.60536 12.4809 9.5 12.7352 9.5 13.0005V21.0005M3.5 10.0005C3.49993 9.70952 3.56333 9.42208 3.68579 9.15817C3.80824 8.89427 3.9868 8.66025 4.209 8.47246L11.209 2.47346C11.57 2.16836 12.0274 2.00098 12.5 2.00098C12.9726 2.00098 13.43 2.16836 13.791 2.47346L20.791 8.47246C21.0132 8.66025 21.1918 8.89427 21.3142 9.15817C21.4367 9.42208 21.5001 9.70952 21.5 10.0005V19.0005C21.5 19.5309 21.2893 20.0396 20.9142 20.4147C20.5391 20.7897 20.0304 21.0005 19.5 21.0005H5.5C4.96957 21.0005 4.46086 20.7897 4.08579 20.4147C3.71071 20.0396 3.5 19.5309 3.5 19.0005V10.0005Z" stroke="#359F6A" stroke-width="2" stroke-linecap="round" stroke-linejoin="round"/>
</svg>
