<svg width="75" height="75" viewBox="0 0 75 75" fill="none" xmlns="http://www.w3.org/2000/svg">
<g clip-path="url(#clip0_380_789)">
<path d="M1.38095 66.6818C1.86749 66.6818 2.2619 66.2874 2.2619 65.8009C2.2619 65.3143 1.86749 64.9199 1.38095 64.9199C0.894416 64.9199 0.5 65.3143 0.5 65.8009C0.5 66.2874 0.894416 66.6818 1.38095 66.6818Z" fill="#2D4356"/>
<path d="M5.34691 64.9199H4.02548C3.79184 64.9199 3.56777 65.0127 3.40256 65.1779C3.23735 65.3432 3.14453 65.5672 3.14453 65.8009C3.14453 66.0345 3.23735 66.2586 3.40256 66.4238C3.56777 66.589 3.79184 66.6818 4.02548 66.6818H5.34691C5.58056 66.6818 5.80463 66.589 5.96984 66.4238C6.13505 66.2586 6.22786 66.0345 6.22786 65.8009C6.22786 65.5672 6.13505 65.3432 5.96984 65.1779C5.80463 65.0127 5.58056 64.9199 5.34691 64.9199Z" fill="#2D4356"/>
<path d="M52.5457 68.4434H48.8863C48.6648 68.4611 48.4582 68.5616 48.3075 68.7249C48.1568 68.8881 48.0731 69.1021 48.0731 69.3243C48.0731 69.5465 48.1568 69.7605 48.3075 69.9238C48.4582 70.087 48.6648 70.1875 48.8863 70.2053H52.5457C52.7671 70.1875 52.9738 70.087 53.1245 69.9238C53.2752 69.7605 53.3588 69.5465 53.3588 69.3243C53.3588 69.1021 53.2752 68.8881 53.1245 68.7249C52.9738 68.5616 52.7671 68.4611 52.5457 68.4434ZM26.1171 68.4434H22.4577C22.2363 68.4611 22.0296 68.5616 21.8789 68.7249C21.7282 68.8881 21.6445 69.1021 21.6445 69.3243C21.6445 69.5465 21.7282 69.7605 21.8789 69.9238C22.0296 70.087 22.2363 70.1875 22.4577 70.2053H26.1171C26.3385 70.1875 26.5452 70.087 26.6959 69.9238C26.8466 69.7605 26.9303 69.5465 26.9303 69.3243C26.9303 69.1021 26.8466 68.8881 26.6959 68.7249C26.5452 68.5616 26.3385 68.4611 26.1171 68.4434ZM46.3112 68.4434H28.6922C28.4585 68.4434 28.2344 68.5362 28.0692 68.7014C27.904 68.8666 27.8112 69.0907 27.8112 69.3243C27.8112 69.558 27.904 69.782 28.0692 69.9472C28.2344 70.1125 28.4585 70.2053 28.6922 70.2053H35.7134V71.0862H32.216C31.9823 71.0862 31.7583 71.179 31.593 71.3442C31.4278 71.5095 31.335 71.7335 31.335 71.9672C31.335 72.2008 31.4278 72.4249 31.593 72.5901C31.7583 72.7553 31.9823 72.8481 32.216 72.8481H43.2279C43.4615 72.8481 43.6856 72.7553 43.8508 72.5901C44.016 72.4249 44.1088 72.2008 44.1088 71.9672C44.1088 71.7335 44.016 71.5095 43.8508 71.3442C43.6856 71.179 43.4615 71.0862 43.2279 71.0862H39.29V70.2053H46.3112C46.5449 70.2053 46.7689 70.1125 46.9341 69.9472C47.0993 69.782 47.1922 69.558 47.1922 69.3243C47.1922 69.0907 47.0993 68.8666 46.9341 68.7014C46.7689 68.5362 46.5449 68.4434 46.3112 68.4434Z" fill="#0BCEB2"/>
<path d="M46.3322 48.5626L50.0256 42.0044L51.5184 43.3525C51.6039 43.4309 51.704 43.4917 51.8131 43.5314C51.9221 43.5711 52.0379 43.5888 52.1538 43.5837C52.2697 43.5785 52.3834 43.5506 52.4885 43.5014C52.5936 43.4522 52.6879 43.3828 52.7661 43.2971C52.8443 43.2114 52.9048 43.1111 52.9442 43.0019C52.9836 42.8928 53.001 42.777 52.9956 42.6611C52.9901 42.5452 52.9618 42.4315 52.9123 42.3266C52.8629 42.2217 52.7932 42.1275 52.7073 42.0495C52.7073 42.0495 44.1233 34.31 44.1094 34.2938C44.0177 34.2062 43.9049 34.1439 43.7819 34.1129C43.6589 34.082 43.53 34.0835 43.4078 34.1173L29.2831 36.6766C29.0663 36.7151 28.8718 36.8336 28.738 37.0086C28.6043 37.1836 28.5411 37.4023 28.5608 37.6217C28.5806 37.841 28.682 38.045 28.8448 38.1932C29.0077 38.3414 29.2203 38.4232 29.4405 38.4223C29.4932 38.4223 31.521 38.0598 31.521 38.0598L27.497 45.1327C27.4265 45.2572 27.3874 45.3969 27.3832 45.5399C27.379 45.6829 27.4097 45.8247 27.4727 45.9531C27.5356 46.0816 27.629 46.1927 27.7447 46.2768C27.8603 46.361 27.9948 46.4157 28.1363 46.4361C28.1363 46.4361 45.5175 49.0123 45.5609 49.0123C45.7178 49.0125 45.8719 48.9709 46.0075 48.8919C46.143 48.8128 46.2551 48.6992 46.3322 48.5626ZM29.6705 44.8848L33.7871 37.6492L43.2952 35.9264L48.6818 40.7909L45.0874 47.1728L29.6705 44.8848Z" fill="#2D4356"/>
<path d="M44.2911 40.8858C44.0829 40.7788 43.8409 40.7583 43.6176 40.8288C43.3944 40.8993 43.208 41.0551 43.099 41.2623L42.054 43.2694L36.7128 42.4531L37.3845 41.2692C37.4415 41.1686 37.4781 41.0576 37.4921 40.9428C37.5061 40.828 37.4973 40.7115 37.4661 40.6001C37.4349 40.4887 37.382 40.3846 37.3104 40.2937C37.2388 40.2028 37.1499 40.127 37.0489 40.0706C36.8447 39.956 36.6034 39.9267 36.3777 39.9892C36.152 40.0518 35.9602 40.201 35.8441 40.4044L34.5434 42.6972C34.4733 42.8213 34.4344 42.9607 34.4301 43.1033C34.4258 43.2458 34.4563 43.3873 34.5189 43.5155C34.5814 43.6436 34.6743 43.7546 34.7893 43.8389C34.9044 43.9232 35.0382 43.9782 35.1793 43.9992C35.1793 43.9992 42.5029 45.1147 42.5474 45.1147C42.7092 45.1148 42.8679 45.0706 43.0063 44.9868C43.1447 44.9031 43.2575 44.783 43.3324 44.6396L44.6697 42.0717C44.723 41.9691 44.7556 41.8569 44.7655 41.7416C44.7753 41.6263 44.7623 41.5102 44.7271 41.4C44.6919 41.2898 44.6353 41.1876 44.5605 41.0994C44.4857 41.0111 44.3941 40.9385 44.2911 40.8858Z" fill="#0BCEB2"/>
<path d="M47.927 34.6825C48.1523 34.7461 48.3936 34.7178 48.5981 34.6039C48.8027 34.49 48.9537 34.2997 49.0182 34.0746L51.4363 25.5509H55.2532L56.8775 31.2765L57.3993 33.1159L57.6713 34.0746C57.7346 34.3003 57.885 34.4917 58.0895 34.6065C58.2939 34.7213 58.5355 34.7502 58.7613 34.6869C58.987 34.6236 59.1784 34.4731 59.2932 34.2687C59.408 34.0643 59.4369 33.8226 59.3736 33.5969L59.1949 32.9672L58.7834 31.5166L57.0911 25.5509H58.4302C58.5461 25.5514 58.661 25.5291 58.7683 25.4852C58.8755 25.4412 58.973 25.3765 59.0552 25.2947C59.1374 25.213 59.2026 25.1158 59.247 25.0088C59.2915 24.9017 59.3144 24.787 59.3144 24.6711C59.3144 24.5551 59.2915 24.4404 59.247 24.3333C59.2026 24.2263 59.1374 24.1291 59.0552 24.0474C58.973 23.9656 58.8755 23.9009 58.7683 23.857C58.661 23.813 58.5461 23.7907 58.4302 23.7912H56.5919L55.1395 18.6713C55.7422 18.3207 56.2266 17.7984 56.5309 17.1711C56.8353 16.5438 56.9456 15.84 56.8479 15.1496C56.7502 14.4593 56.4489 13.8138 55.9824 13.2955C55.5159 12.7773 54.9056 12.41 54.2293 12.2404V11.1808C54.2281 10.947 54.1344 10.7232 53.9687 10.5583C53.8029 10.3934 53.5787 10.3008 53.3449 10.3008C53.1111 10.3008 52.8868 10.3934 52.721 10.5583C52.5553 10.7232 52.4616 10.947 52.4604 11.1808V12.2404C51.7842 12.41 51.1738 12.7773 50.7073 13.2955C50.2409 13.8137 49.9395 14.4592 49.8418 15.1495C49.7441 15.8398 49.8544 16.5436 50.1587 17.1709C50.463 17.7982 50.9474 18.3205 51.5501 18.6711L50.0976 23.7912H48.2595C48.1436 23.7907 48.0287 23.813 47.9215 23.8569C47.8142 23.9009 47.7167 23.9656 47.6345 24.0474C47.5524 24.1291 47.4872 24.2263 47.4427 24.3333C47.3982 24.4404 47.3753 24.5551 47.3753 24.671C47.3753 24.787 47.3982 24.9017 47.4427 25.0088C47.4872 25.1158 47.5524 25.213 47.6345 25.2947C47.7167 25.3765 47.8142 25.4412 47.9215 25.4852C48.0287 25.5291 48.1436 25.5514 48.2595 25.5509H49.5984L47.3159 33.5969C47.2845 33.7083 47.2754 33.8248 47.2892 33.9397C47.3029 34.0547 47.3392 34.1658 47.396 34.2666C47.4527 34.3675 47.5289 34.4562 47.62 34.5275C47.7111 34.5989 47.8155 34.6516 47.927 34.6825ZM51.9354 23.7912L53.2497 19.1582C53.2816 19.1591 53.3127 19.163 53.3449 19.163C53.3769 19.163 53.408 19.1591 53.4398 19.1583L54.7541 23.7913L51.9354 23.7912ZM53.3449 13.8842C53.6925 13.886 54.0318 13.9908 54.3199 14.1852C54.6081 14.3797 54.8322 14.6551 54.964 14.9768C55.0957 15.2985 55.1293 15.652 55.0603 15.9928C54.9914 16.3335 54.8231 16.6462 54.5766 16.8913C54.3302 17.1365 54.0166 17.3032 53.6755 17.3703C53.3345 17.4375 52.9811 17.4021 52.6601 17.2686C52.3391 17.1352 52.0649 16.9096 51.8719 16.6205C51.679 16.3313 51.576 15.9914 51.576 15.6438C51.5778 15.1761 51.765 14.7281 52.0966 14.3983C52.4282 14.0684 52.8771 13.8835 53.3449 13.8842ZM27.806 35.7124C27.87 35.6161 27.9143 35.508 27.9364 35.3945C27.9585 35.2809 27.9579 35.1641 27.9346 35.0508C27.9114 34.9375 27.866 34.8299 27.801 34.7342C27.736 34.6385 27.6527 34.5566 27.556 34.4933C27.3602 34.3646 27.1215 34.3185 26.8919 34.3651C26.6623 34.4117 26.4605 34.5472 26.3304 34.742L17.2673 48.3805C17.1857 48.5037 17.1364 48.6456 17.1241 48.793C17.1119 48.9404 17.137 49.0885 17.1971 49.2236C17.2573 49.3587 17.3506 49.4764 17.4684 49.5659C17.5861 49.6553 17.7246 49.7136 17.8708 49.7354L42.1739 53.4481L45.172 52.1256L19.5047 48.2045L27.806 35.7124Z" fill="#2D4356"/>
<path d="M13.8655 52.8102C13.9184 52.8196 36.1248 56.1148 36.1248 56.1148L39.1458 54.7823C39.1458 54.7823 14.2457 51.0902 14.1778 51.0781C13.1944 50.8993 12.3221 50.338 11.7518 49.5173C11.1815 48.6965 10.9598 47.6831 11.1352 46.6992C11.2572 46.1746 11.4972 45.6846 11.8369 45.2666C12.1767 44.8486 12.6072 44.5135 13.0958 44.2868C13.7292 43.9773 14.4274 43.8236 15.1322 43.8386C15.837 43.8535 16.5281 44.0368 17.1478 44.373C17.341 44.4692 17.5626 44.4916 17.7712 44.4362C17.9798 44.3807 18.161 44.2511 18.2809 44.0716L28.0318 29.4165L46.0197 31.682L46.5055 29.9694L29.1208 27.7798L32.7448 22.3332C32.8088 22.2369 32.8532 22.1288 32.8753 22.0153C32.8974 21.9017 32.8969 21.7849 32.8737 21.6716C32.8506 21.5583 32.8052 21.4507 32.7403 21.3549C32.6753 21.2592 32.5921 21.1772 32.4954 21.1138C32.4079 21.0652 32.3171 21.0226 32.2238 20.9864C28.1908 19.4923 24.9706 22.2511 23.8262 23.9274L10.2836 44.2546C9.90913 44.9326 9.61052 45.6499 9.39318 46.3933C9.13802 47.837 9.46544 49.323 10.3037 50.5257C11.142 51.7284 12.4228 52.5499 13.8655 52.8102ZM25.2936 24.9099C25.3876 24.7737 27.4352 21.8769 30.5988 22.3701L17.2138 42.4873C16.1109 42.0785 14.916 41.985 13.7629 42.2173L25.2936 24.9099ZM61.161 33.589L63.374 33.8677L55.4178 47.6049L58.1597 46.3955L65.5703 33.6003C65.6429 33.4745 65.6832 33.3326 65.6875 33.1874C65.6919 33.0421 65.6602 32.8981 65.5952 32.7681C65.5303 32.6382 65.4342 32.5263 65.3155 32.4425C65.1968 32.3588 65.0592 32.3057 64.915 32.2881L60.6882 31.7558L61.0746 33.1181C61.1177 33.2721 61.1466 33.4297 61.161 33.589Z" fill="#2D4356"/>
<path d="M55.2814 53.79C55.1541 53.6728 54.9955 53.5952 54.8248 53.5668C54.6541 53.5383 54.4789 53.5603 54.3205 53.63L45.3892 57.5696C45.227 57.6406 45.0901 57.759 44.9964 57.9092C44.9027 58.0594 44.8566 58.2344 44.8641 58.4113C44.8716 58.5881 44.9324 58.7586 45.0385 58.9003C45.1446 59.042 45.2911 59.1483 45.4587 59.2053L52.1371 61.5008C52.3567 61.5767 52.5973 61.5632 52.8071 61.4633C53.0168 61.3634 53.1789 61.1851 53.2584 60.9668L55.5111 54.7319C55.5697 54.5698 55.5792 54.3939 55.5383 54.2263C55.4975 54.0588 55.4081 53.907 55.2814 53.79ZM51.8893 59.5539L48.1599 58.2722L53.1472 56.0723L51.8893 59.5539Z" fill="#0BCEB2"/>
<path d="M54.9745 31.0362L51.8331 30.6406L51.3477 32.3532L55.4965 32.8756L54.9745 31.0362Z" fill="#2D4356"/>
<path d="M70.9758 64.9199H69.6544C69.4207 64.9199 69.1967 65.0127 69.0315 65.1779C68.8663 65.3432 68.7734 65.5672 68.7734 65.8009C68.7734 66.0345 68.8663 66.2586 69.0315 66.4238C69.1967 66.589 69.4207 66.6818 69.6544 66.6818H70.9758C71.2095 66.6818 71.4335 66.589 71.5987 66.4238C71.764 66.2586 71.8568 66.0345 71.8568 65.8009C71.8568 65.5672 71.764 65.3432 71.5987 65.1779C71.4335 65.0127 71.2095 64.9199 70.9758 64.9199Z" fill="#2D4356"/>
<path d="M73.6192 66.6818C74.1058 66.6818 74.5002 66.2874 74.5002 65.8009C74.5002 65.3143 74.1058 64.9199 73.6192 64.9199C73.1327 64.9199 72.7383 65.3143 72.7383 65.8009C72.7383 66.2874 73.1327 66.6818 73.6192 66.6818Z" fill="#2D4356"/>
<path d="M66.8873 64.9192H55.504L61.4357 48.5025C61.4942 48.3403 61.5036 48.1645 61.4627 47.997C61.4218 47.8295 61.3324 47.6778 61.2057 47.5608C61.0786 47.4435 60.9199 47.3658 60.7492 47.3374C60.5785 47.309 60.4033 47.331 60.2449 47.4008L35.0392 58.5189C34.877 58.5899 34.7401 58.7082 34.6464 58.8584C34.5527 59.0086 34.5066 59.1836 34.5141 59.3605C34.5216 59.5374 34.5824 59.7078 34.6885 59.8495C34.7946 59.9912 34.9411 60.0975 35.1087 60.1545L48.9716 64.9192H8.10902C7.98369 64.9028 7.85631 64.9134 7.73539 64.9502C7.61446 64.987 7.50278 65.0491 7.40779 65.1325C7.31281 65.2159 7.23671 65.3186 7.18457 65.4337C7.13244 65.5488 7.10547 65.6738 7.10547 65.8002C7.10547 65.9266 7.13244 66.0515 7.18457 66.1666C7.23671 66.2818 7.31281 66.3845 7.40779 66.4678C7.50278 66.5512 7.61446 66.6134 7.73539 66.6502C7.85631 66.687 7.98369 66.6975 8.10902 66.6811H66.8873C67.0126 66.6975 67.14 66.687 67.2609 66.6502C67.3819 66.6134 67.4935 66.5512 67.5885 66.4678C67.6835 66.3845 67.7596 66.2818 67.8118 66.1666C67.8639 66.0515 67.8909 65.9266 67.8909 65.8002C67.8909 65.6738 67.8639 65.5488 67.8118 65.4337C67.7596 65.3186 67.6835 65.2159 67.5885 65.1325C67.4935 65.0491 67.3819 64.987 67.2609 64.9502C67.14 64.9134 67.0126 64.9028 66.8873 64.9192ZM59.0716 49.843L53.7088 64.6857L37.8101 59.2215L59.0716 49.843ZM41.5115 4.79422C41.7729 4.79422 42.0284 4.71672 42.2457 4.57152C42.463 4.42632 42.6324 4.21994 42.7324 3.97849C42.8324 3.73703 42.8586 3.47133 42.8076 3.215C42.7566 2.95867 42.6307 2.72321 42.4459 2.53841C42.2611 2.3536 42.0257 2.22775 41.7693 2.17676C41.513 2.12577 41.2473 2.15194 41.0058 2.25196C40.7644 2.35197 40.558 2.52134 40.4128 2.73865C40.2676 2.95596 40.1901 3.21144 40.1901 3.4728C40.1905 3.82314 40.3298 4.15902 40.5776 4.40674C40.8253 4.65447 41.1612 4.79382 41.5115 4.79422ZM41.5115 2.81208C41.6422 2.81208 41.7699 2.85083 41.8786 2.92343C41.9873 2.99603 42.0719 3.09922 42.1219 3.21995C42.172 3.34068 42.185 3.47353 42.1595 3.6017C42.1341 3.72986 42.0711 3.84759 41.9787 3.93999C41.8863 4.03239 41.7686 4.09532 41.6404 4.12082C41.5123 4.14631 41.3794 4.13322 41.2587 4.08322C41.138 4.03321 41.0348 3.94852 40.9622 3.83987C40.8896 3.73122 40.8508 3.60347 40.8508 3.4728C40.851 3.29762 40.9207 3.12966 41.0445 3.00579C41.1684 2.88192 41.3363 2.81225 41.5115 2.81208ZM71.8553 33.834C71.6811 33.834 71.5107 33.8857 71.3659 33.9825C71.221 34.0793 71.1081 34.2169 71.0414 34.3778C70.9747 34.5388 70.9573 34.7159 70.9913 34.8868C71.0253 35.0577 71.1092 35.2147 71.2324 35.3379C71.3556 35.4611 71.5126 35.545 71.6834 35.579C71.8543 35.613 72.0315 35.5955 72.1924 35.5289C72.3534 35.4622 72.491 35.3493 72.5878 35.2044C72.6846 35.0595 72.7363 34.8892 72.7363 34.715C72.736 34.4814 72.6431 34.2575 72.4779 34.0923C72.3128 33.9272 72.0889 33.8343 71.8553 33.834ZM71.8553 35.1554C71.7682 35.1554 71.683 35.1296 71.6106 35.0812C71.5382 35.0328 71.4817 34.964 71.4484 34.8835C71.415 34.803 71.4063 34.7145 71.4233 34.629C71.4403 34.5436 71.4822 34.4651 71.5438 34.4035C71.6054 34.3419 71.6839 34.2999 71.7694 34.2829C71.8548 34.266 71.9434 34.2747 72.0239 34.308C72.1044 34.3414 72.1731 34.3978 72.2215 34.4702C72.27 34.5427 72.2958 34.6278 72.2958 34.715C72.2957 34.8317 72.2492 34.9437 72.1666 35.0263C72.0841 35.1089 71.9721 35.1553 71.8553 35.1554ZM30.599 13.3752C30.4248 13.3752 30.2545 13.4269 30.1096 13.5237C29.9647 13.6205 29.8518 13.7581 29.7851 13.919C29.7185 14.08 29.701 14.2571 29.735 14.428C29.769 14.5989 29.8529 14.7559 29.9761 14.8791C30.0993 15.0023 30.2563 15.0862 30.4272 15.1202C30.5981 15.1542 30.7752 15.1367 30.9362 15.0701C31.0971 15.0034 31.2347 14.8905 31.3315 14.7456C31.4283 14.6007 31.48 14.4304 31.48 14.2562C31.4797 14.0226 31.3868 13.7987 31.2217 13.6335C31.0565 13.4684 30.8326 13.3755 30.599 13.3752ZM30.599 14.6966C30.5119 14.6966 30.4268 14.6708 30.3543 14.6224C30.2819 14.574 30.2254 14.5052 30.1921 14.4247C30.1587 14.3442 30.15 14.2557 30.167 14.1702C30.184 14.0848 30.226 14.0063 30.2876 13.9447C30.3492 13.8831 30.4277 13.8411 30.5131 13.8242C30.5985 13.8072 30.6871 13.8159 30.7676 13.8492C30.8481 13.8826 30.9169 13.939 30.9653 14.0114C31.0137 14.0839 31.0395 14.169 31.0395 14.2562C31.0394 14.3729 30.9929 14.4849 30.9104 14.5675C30.8278 14.6501 30.7158 14.6965 30.599 14.6966ZM70.2276 5.67518C70.0534 5.67518 69.8831 5.72684 69.7382 5.82364C69.5933 5.92044 69.4804 6.05803 69.4137 6.219C69.347 6.37998 69.3296 6.55711 69.3636 6.72799C69.3976 6.89888 69.4815 7.05585 69.6047 7.17906C69.7279 7.30226 69.8849 7.38616 70.0558 7.42015C70.2266 7.45415 70.4038 7.4367 70.5647 7.37002C70.7257 7.30335 70.8633 7.19043 70.9601 7.04556C71.0569 6.90069 71.1086 6.73037 71.1086 6.55613C71.1083 6.32257 71.0154 6.09865 70.8503 5.9335C70.6851 5.76834 70.4612 5.67544 70.2276 5.67518ZM70.2276 6.99661C70.1405 6.99661 70.0553 6.97077 69.9829 6.92237C69.9105 6.87397 69.854 6.80518 69.8207 6.72469C69.7873 6.64421 69.7786 6.55564 69.7956 6.4702C69.8126 6.38475 69.8546 6.30627 69.9162 6.24467C69.9778 6.18306 70.0562 6.14111 70.1417 6.12412C70.2271 6.10712 70.3157 6.11584 70.3962 6.14918C70.4767 6.18252 70.5455 6.23898 70.5939 6.31141C70.6423 6.38385 70.6681 6.46901 70.6681 6.55613C70.668 6.67291 70.6215 6.78488 70.539 6.86746C70.4564 6.95004 70.3444 6.99649 70.2276 6.99661ZM16.643 28.4956C16.643 28.3214 16.5913 28.151 16.4945 28.0062C16.3977 27.8613 16.2601 27.7484 16.0992 27.6817C15.9382 27.615 15.7611 27.5976 15.5902 27.6316C15.4193 27.6656 15.2623 27.7495 15.1391 27.8727C15.0159 27.9959 14.932 28.1528 14.898 28.3237C14.864 28.4946 14.8815 28.6718 14.9482 28.8327C15.0148 28.9937 15.1277 29.1313 15.2726 29.2281C15.4175 29.3249 15.5878 29.3766 15.7621 29.3766C15.9956 29.3763 16.2195 29.2834 16.3847 29.1182C16.5498 28.9531 16.6427 28.7292 16.643 28.4956ZM15.3216 28.4956C15.3216 28.4085 15.3474 28.3233 15.3958 28.2509C15.4442 28.1784 15.513 28.122 15.5935 28.0887C15.674 28.0553 15.7625 28.0466 15.848 28.0636C15.9334 28.0806 16.0119 28.1225 16.0735 28.1841C16.1351 28.2457 16.1771 28.3242 16.1941 28.4097C16.2111 28.4951 16.2023 28.5837 16.169 28.6642C16.1357 28.7446 16.0792 28.8134 16.0068 28.8618C15.9343 28.9102 15.8492 28.9361 15.7621 28.9361C15.6453 28.936 15.5333 28.8895 15.4507 28.8069C15.3681 28.7244 15.3217 28.6124 15.3216 28.4956Z" fill="#2D4356"/>
<path d="M4.07441 16.425L4.72896 15.5634L4.31535 15.3291L3.89514 16.2937H3.88104L3.45422 15.3361L3.03312 15.5771L3.6815 16.418V16.4321L2.66797 16.3008V16.7695L3.68811 16.6386V16.6523L3.03312 17.4932L3.42603 17.7411L3.87443 16.7695H3.88809L4.30169 17.7341L4.736 17.4861L4.07441 16.6593V16.6452L5.11481 16.7695V16.3008L4.07441 16.4387V16.425Z" fill="#0BCEB2"/>
<path d="M12.9431 7.94562L12.566 8.4297L12.7924 8.57286L13.0505 8.01301H13.058L13.2963 8.56889L13.5465 8.42574L13.1655 7.94958V7.94165L13.7646 8.01301V7.74344L13.1655 7.82272V7.8148L13.5426 7.31882L13.3043 7.18359L13.0624 7.73903H13.0545L12.8083 7.18756L12.566 7.32631L12.9391 7.81083V7.81876L12.3555 7.74344V8.01301L12.9431 7.93769V7.94562Z" fill="#0BCEB2"/>
<path d="M66.8919 19.3872V18.9274L65.8713 19.0626V19.0489L66.514 18.2041L66.1083 17.9746L65.696 18.9208H65.6819L65.2635 17.9812L64.8503 18.2178L65.4863 19.0423V19.056L64.4922 18.9274V19.3872L65.493 19.259V19.2723L64.8503 20.0968L65.2357 20.3404L65.6757 19.3872H65.6885L66.0942 20.3334L66.5206 20.0902L65.8713 19.2789V19.2656L66.8919 19.3872Z" fill="#0BCEB2"/>
<path d="M43.8889 19.0645L44.4431 18.3359L44.0929 18.1377L43.7374 18.9539H43.7255L43.3643 18.1434L43.008 18.3474L43.5564 19.0587V19.0706L42.6992 18.9596V19.3561L43.5621 19.2455V19.2569L43.008 19.9683L43.3406 20.1784L43.7198 19.3561H43.7313L44.0814 20.1727L44.4488 19.9626L43.8889 19.2627V19.2512L44.769 19.3561V18.9596L43.8889 19.0764V19.0645Z" fill="#0BCEB2"/>
</g>
<defs>
<clipPath id="clip0_380_789">
<rect width="74" height="74" fill="white" transform="translate(0.5 0.5)"/>
</clipPath>
</defs>
</svg>
