<svg width="74" height="74" viewBox="0 0 74 74" fill="none" xmlns="http://www.w3.org/2000/svg">
<g clip-path="url(#clip0_712_923)">
<path d="M25.9439 7.5049C26.2053 7.5049 26.4607 7.4274 26.678 7.2822C26.8954 7.137 27.0647 6.93062 27.1647 6.68916C27.2648 6.4477 27.2909 6.18201 27.2399 5.92568C27.189 5.66935 27.0631 5.43389 26.8783 5.24908C26.6935 5.06428 26.458 4.93843 26.2017 4.88744C25.9454 4.83645 25.6797 4.86262 25.4382 4.96263C25.1968 5.06265 24.9904 5.23202 24.8452 5.44933C24.7 5.66664 24.6225 5.92212 24.6225 6.18348C24.6229 6.53382 24.7622 6.86969 25.01 7.11742C25.2577 7.36515 25.5936 7.5045 25.9439 7.5049ZM25.9439 5.52276C26.0746 5.52276 26.2023 5.56151 26.311 5.63411C26.4196 5.70671 26.5043 5.8099 26.5543 5.93063C26.6043 6.05136 26.6174 6.18421 26.5919 6.31237C26.5664 6.44054 26.5035 6.55827 26.4111 6.65067C26.3187 6.74307 26.201 6.806 26.0728 6.83149C25.9446 6.85699 25.8118 6.8439 25.6911 6.7939C25.5703 6.74389 25.4671 6.6592 25.3945 6.55055C25.3219 6.44189 25.2832 6.31415 25.2832 6.18348C25.2834 6.0083 25.353 5.84034 25.4769 5.71647C25.6008 5.5926 25.7687 5.52293 25.9439 5.52276ZM72.2373 8.87681C72.063 8.87681 71.8927 8.92847 71.7478 9.02527C71.603 9.12207 71.49 9.25966 71.4234 9.42063C71.3567 9.5816 71.3392 9.75874 71.3732 9.92962C71.4072 10.1005 71.4911 10.2575 71.6143 10.3807C71.7375 10.5039 71.8945 10.5878 72.0654 10.6218C72.2363 10.6558 72.4134 10.6383 72.5744 10.5717C72.7354 10.505 72.8729 10.3921 72.9697 10.2472C73.0665 10.1023 73.1182 9.932 73.1182 9.75776C73.1179 9.5242 73.025 9.30028 72.8599 9.13513C72.6947 8.96997 72.4708 8.87707 72.2373 8.87681ZM72.2373 10.1982C72.1501 10.1982 72.065 10.1724 71.9925 10.124C71.9201 10.0756 71.8636 10.0068 71.8303 9.92632C71.797 9.84584 71.7882 9.75727 71.8052 9.67183C71.8222 9.58638 71.8642 9.5079 71.9258 9.44629C71.9874 9.38469 72.0659 9.34274 72.1513 9.32575C72.2368 9.30875 72.3253 9.31747 72.4058 9.35081C72.4863 9.38415 72.5551 9.44061 72.6035 9.51304C72.6519 9.58548 72.6777 9.67064 72.6777 9.75776C72.6776 9.87455 72.6312 9.98651 72.5486 10.0691C72.466 10.1517 72.354 10.1981 72.2373 10.1982ZM40.6572 1.37207C40.483 1.37207 40.3126 1.42374 40.1678 1.52054C40.0229 1.61734 39.91 1.75492 39.8433 1.9159C39.7766 2.07687 39.7592 2.254 39.7932 2.42489C39.8272 2.59578 39.9111 2.75275 40.0343 2.87595C40.1575 2.99915 40.3144 3.08306 40.4853 3.11705C40.6562 3.15104 40.8333 3.13359 40.9943 3.06692C41.1553 3.00024 41.2929 2.88733 41.3897 2.74245C41.4865 2.59758 41.5381 2.42726 41.5381 2.25302C41.5379 2.01946 41.445 1.79554 41.2798 1.63039C41.1147 1.46524 40.8908 1.37234 40.6572 1.37207ZM40.6572 2.6935C40.5701 2.6935 40.4849 2.66767 40.4125 2.61927C40.34 2.57087 40.2836 2.50207 40.2502 2.42159C40.2169 2.3411 40.2082 2.25253 40.2252 2.16709C40.2422 2.08165 40.2841 2.00316 40.3457 1.94156C40.4073 1.87996 40.4858 1.83801 40.5713 1.82101C40.6567 1.80401 40.7453 1.81274 40.8258 1.84608C40.9062 1.87941 40.975 1.93587 41.0234 2.00831C41.0718 2.08074 41.0977 2.1659 41.0977 2.25302C41.0975 2.36981 41.0511 2.48178 40.9685 2.56436C40.8859 2.64694 40.774 2.69338 40.6572 2.6935ZM64.3522 2.25302C64.178 2.25302 64.0077 2.30469 63.8628 2.40149C63.7179 2.49829 63.605 2.63588 63.5383 2.79685C63.4716 2.95782 63.4542 3.13495 63.4882 3.30584C63.5222 3.47673 63.6061 3.6337 63.7293 3.7569C63.8525 3.88011 64.0095 3.96401 64.1803 3.998C64.3512 4.03199 64.5284 4.01455 64.6893 3.94787C64.8503 3.88119 64.9879 3.76828 65.0847 3.62341C65.1815 3.47853 65.2332 3.30821 65.2332 3.13398C65.2329 2.90041 65.14 2.6765 64.9748 2.51134C64.8097 2.34619 64.5858 2.25329 64.3522 2.25302ZM64.3522 3.57445C64.2651 3.57445 64.1799 3.54862 64.1075 3.50022C64.0351 3.45182 63.9786 3.38302 63.9453 3.30254C63.9119 3.22205 63.9032 3.13349 63.9202 3.04804C63.9372 2.9626 63.9791 2.88411 64.0407 2.82251C64.1023 2.76091 64.1808 2.71896 64.2663 2.70196C64.3517 2.68497 64.4403 2.69369 64.5208 2.72703C64.6013 2.76037 64.6701 2.81682 64.7185 2.88926C64.7669 2.9617 64.7927 3.04686 64.7927 3.13398C64.7926 3.25076 64.7461 3.36273 64.6635 3.44531C64.581 3.52789 64.469 3.57433 64.3522 3.57445ZM5.06464 15.8738C5.06464 15.6996 5.01297 15.5293 4.91617 15.3844C4.81937 15.2395 4.68179 15.1266 4.52081 15.0599C4.35984 14.9933 4.18271 14.9758 4.01182 15.0098C3.84093 15.0438 3.68396 15.1277 3.56076 15.2509C3.43756 15.3741 3.35365 15.5311 3.31966 15.702C3.28567 15.8729 3.30312 16.05 3.36979 16.211C3.43647 16.3719 3.54938 16.5095 3.69426 16.6063C3.83913 16.7031 4.00945 16.7548 4.18369 16.7548C4.41725 16.7545 4.64117 16.6616 4.80632 16.4965C4.97147 16.3313 5.06437 16.1074 5.06464 15.8738ZM3.74321 15.8738C3.74321 15.7867 3.76904 15.7016 3.81744 15.6291C3.86584 15.5567 3.93464 15.5002 4.01512 15.4669C4.09561 15.4336 4.18418 15.4248 4.26962 15.4418C4.35506 15.4588 4.43355 15.5008 4.49515 15.5624C4.55675 15.624 4.5987 15.7025 4.6157 15.7879C4.6327 15.8734 4.62397 15.9619 4.59063 16.0424C4.5573 16.1229 4.50084 16.1917 4.4284 16.2401C4.35597 16.2885 4.27081 16.3143 4.18369 16.3143C4.0669 16.3142 3.95493 16.2678 3.87235 16.1852C3.78977 16.1026 3.74333 15.9906 3.74321 15.8738Z" fill="#2D4356"/>
<path d="M2.82592 5.63301L3.48091 4.77144L3.0673 4.53711L2.64709 5.50175H2.63299L2.20617 4.54416L1.78508 4.7851L2.43346 5.62597V5.64006L1.41992 5.5088V5.97747L2.44006 5.84664V5.8603L1.78508 6.70117L2.17798 6.94916L2.62639 5.97747H2.6396L3.05321 6.94255L3.48752 6.69412L2.82592 5.86735V5.85325L3.86633 5.97747V5.5088L2.82592 5.64667V5.63301Z" fill="#0BCEB2"/>
<path d="M14.5056 1.62628L14.1281 2.11036L14.3545 2.25308L14.6126 1.69367H14.6205L14.8584 2.24911L15.1086 2.1064L14.7276 1.62981V1.62188L15.3271 1.69367V1.42366L14.7276 1.50295V1.49502L15.1051 0.999043L14.8668 0.864258L14.6245 1.4197H14.6166L14.3708 0.867782L14.1281 1.00697L14.5016 1.49106V1.49898L13.918 1.42366V1.69367L14.5056 1.61835V1.62628Z" fill="#0BCEB2"/>
<path d="M70.6732 18.9097V18.4503L69.653 18.585V18.5718L70.2952 17.727L69.8895 17.4971L69.4773 18.4432H69.4636L69.0447 17.5037L68.6315 17.7402L69.2676 18.5652V18.5784L68.2734 18.4503V18.9097L69.2742 18.7815V18.7947L68.6315 19.6193L69.017 19.8629L69.457 18.9097H69.4702L69.8759 19.8563L70.3018 19.6127L69.653 18.8013V18.7881L70.6732 18.9097Z" fill="#0BCEB2"/>
<path d="M51.4241 8.64356L51.9782 7.91501L51.628 7.7168L51.2726 8.533H51.2607L50.8995 7.72252L50.5432 7.92646L51.0915 8.63783V8.64973L50.2344 8.53873V8.93515L51.0973 8.82459V8.83605L50.5432 9.54742L50.8757 9.75752L51.255 8.93515H51.2664L51.6166 9.7518L51.9839 9.54169L51.4241 8.84177V8.83032L52.3042 8.93515V8.53873L51.4241 8.65545V8.64356Z" fill="#0BCEB2"/>
<path d="M0.880952 66.9689C1.36749 66.9689 1.7619 66.5745 1.7619 66.088C1.7619 65.6014 1.36749 65.207 0.880952 65.207C0.394416 65.207 0 65.6014 0 66.088C0 66.5745 0.394416 66.9689 0.880952 66.9689Z" fill="#2D4356"/>
<path d="M4.84496 65.207H3.52353C3.28989 65.207 3.06581 65.2998 2.9006 65.4651C2.73539 65.6303 2.64258 65.8543 2.64258 66.088C2.64258 66.3216 2.73539 66.5457 2.9006 66.7109C3.06581 66.8761 3.28989 66.9689 3.52353 66.9689H4.84496C5.0786 66.9689 5.30268 66.8761 5.46789 66.7109C5.6331 66.5457 5.72591 66.3216 5.72591 66.088C5.72591 65.8543 5.6331 65.6303 5.46789 65.4651C5.30268 65.2998 5.0786 65.207 4.84496 65.207ZM70.4759 65.207H69.1545C68.9208 65.207 68.6968 65.2998 68.5316 65.4651C68.3663 65.6303 68.2735 65.8543 68.2735 66.088C68.2735 66.3216 68.3663 66.5457 68.5316 66.7109C68.6968 66.8761 68.9208 66.9689 69.1545 66.9689H70.4759C70.7096 66.9689 70.9336 66.8761 71.0988 66.7109C71.2641 66.5457 71.3569 66.3216 71.3569 66.088C71.3569 65.8543 71.2641 65.6303 71.0988 65.4651C70.9336 65.2998 70.7096 65.207 70.4759 65.207Z" fill="#2D4356"/>
<path d="M73.1192 66.9689C73.6058 66.9689 74.0002 66.5745 74.0002 66.088C74.0002 65.6014 73.6058 65.207 73.1192 65.207C72.6327 65.207 72.2383 65.6014 72.2383 66.088C72.2383 66.5745 72.6327 66.9689 73.1192 66.9689Z" fill="#2D4356"/>
<path d="M52.0437 68.7314H48.3843C48.1629 68.7492 47.9562 68.8497 47.8055 69.013C47.6548 69.1762 47.5711 69.3902 47.5711 69.6124C47.5711 69.8346 47.6548 70.0486 47.8055 70.2118C47.9562 70.3751 48.1629 70.4756 48.3843 70.4934H52.0437C52.2652 70.4756 52.4718 70.3751 52.6225 70.2118C52.7732 70.0486 52.8569 69.8346 52.8569 69.6124C52.8569 69.3902 52.7732 69.1762 52.6225 69.013C52.4718 68.8497 52.2652 68.7492 52.0437 68.7314ZM25.6151 68.7314H21.9558C21.7343 68.7492 21.5276 68.8497 21.377 69.013C21.2263 69.1762 21.1426 69.3902 21.1426 69.6124C21.1426 69.8346 21.2263 70.0486 21.377 70.2118C21.5276 70.3751 21.7343 70.4756 21.9558 70.4934H25.6151C25.8366 70.4756 26.0432 70.3751 26.1939 70.2118C26.3446 70.0486 26.4283 69.8346 26.4283 69.6124C26.4283 69.3902 26.3446 69.1762 26.1939 69.013C26.0432 68.8497 25.8366 68.7492 25.6151 68.7314ZM45.8093 68.7314H28.1902C27.9566 68.7314 27.7325 68.8243 27.5673 68.9895C27.4021 69.1547 27.3093 69.3788 27.3093 69.6124C27.3093 69.846 27.4021 70.0701 27.5673 70.2353C27.7325 70.4005 27.9566 70.4934 28.1902 70.4934H35.2114V71.3743H31.714C31.4804 71.3743 31.2563 71.4671 31.0911 71.6323C30.9259 71.7975 30.8331 72.0216 30.8331 72.2553C30.8331 72.4889 30.9259 72.713 31.0911 72.8782C31.2563 73.0434 31.4804 73.1362 31.714 73.1362H42.7259C42.9596 73.1362 43.1836 73.0434 43.3489 72.8782C43.5141 72.713 43.6069 72.4889 43.6069 72.2553C43.6069 72.0216 43.5141 71.7975 43.3489 71.6323C43.1836 71.4671 42.9596 71.3743 42.7259 71.3743H38.7881V70.4934H45.8093C46.0429 70.4934 46.267 70.4005 46.4322 70.2353C46.5974 70.0701 46.6902 69.846 46.6902 69.6124C46.6902 69.3788 46.5974 69.1547 46.4322 68.9895C46.267 68.8243 46.0429 68.7314 45.8093 68.7314Z" fill="#0BCEB2"/>
<path d="M62.0754 36.8252L37.3526 24.4989C37.2322 24.4389 37.0995 24.4072 36.9649 24.4063C36.8303 24.4054 36.6973 24.4353 36.576 24.4938L11.8366 36.8254C11.44 37.0232 11.0951 37.3112 10.8298 37.6663C10.5645 38.0214 10.3861 38.4337 10.309 38.8702C10.2318 39.3067 10.258 39.7552 10.3854 40.1797C10.5128 40.6043 10.738 40.9931 11.0428 41.3149L12.7857 43.156C13.2026 43.5993 13.7516 43.8961 14.3508 44.0021C14.9501 44.1081 15.5676 44.0177 16.1112 43.7442L36.4796 33.5932C36.6287 33.5194 36.7928 33.481 36.9591 33.481C37.1255 33.481 37.2896 33.5194 37.4387 33.5932L57.8006 43.744C58.3442 44.0177 58.9618 44.1084 59.5612 44.0023C60.1606 43.8963 60.7096 43.5992 61.1263 43.1555L62.8693 41.3149C63.1741 40.993 63.3992 40.6042 63.5266 40.1797C63.6541 39.7551 63.6802 39.3066 63.6031 38.8701C63.5259 38.4336 63.3475 38.0213 63.0822 37.6661C62.8169 37.311 62.4721 37.023 62.0754 36.8252ZM61.59 40.1036L59.847 41.9442C59.6891 42.1123 59.481 42.2249 59.2539 42.265C59.0267 42.3052 58.7927 42.2708 58.5867 42.167L38.2248 32.0163C37.8313 31.8215 37.3982 31.7201 36.9591 31.7201C36.5201 31.7201 36.087 31.8215 35.6935 32.0163L15.3254 42.1672C15.1194 42.2711 14.8853 42.3055 14.6582 42.2653C14.431 42.2251 14.2229 42.1126 14.065 41.9444L12.3221 40.1036C12.2065 39.9816 12.1212 39.8343 12.0729 39.6734C12.0246 39.5125 12.0147 39.3425 12.044 39.177C12.0732 39.0116 12.1408 38.8554 12.2414 38.7208C12.3419 38.5862 12.4726 38.4771 12.623 38.4021L36.956 26.2699L61.2891 38.4019C61.4395 38.4769 61.5701 38.5861 61.6707 38.7207C61.7712 38.8553 61.8388 39.0115 61.8681 39.177C61.8973 39.3424 61.8874 39.5124 61.8391 39.6733C61.7908 39.8342 61.7055 39.9816 61.59 40.1036ZM23.7248 61.9747C24.9217 60.8511 25.6892 59.3452 25.8951 57.7165C26.101 56.0879 25.7324 54.4384 24.8528 53.0523C23.9732 51.6662 22.6378 50.6303 21.0765 50.123C19.5152 49.6157 17.8259 49.6688 16.2996 50.2733C14.7733 50.8777 13.5055 51.9955 12.7148 53.4342C11.9241 54.8728 11.66 56.5422 11.9678 58.1547C12.2757 59.7672 13.1363 61.2218 14.4014 62.268C15.6665 63.3141 17.2569 63.8863 18.8985 63.8859C20.6927 63.8905 22.4203 63.2064 23.7248 61.9747ZM22.5262 60.6997C22.4437 60.7774 22.3559 60.8469 22.2695 60.9186L20.8478 58.4562C21.0312 58.2367 21.1756 57.9875 21.2748 57.7193H24.1158C23.9284 58.8606 23.3696 59.9082 22.5262 60.6997ZM22.7556 53.209C23.4741 53.969 23.9499 54.9258 24.1221 55.9574H21.2845C21.2062 55.7529 21.1016 55.5594 20.9733 55.382L22.5869 53.0463C22.6429 53.1009 22.7017 53.1517 22.7556 53.209ZM18.8924 51.5405C18.9477 51.5405 19.0031 51.5413 19.0587 51.5428C19.7794 51.5646 20.488 51.7337 21.1409 52.0397L19.5254 54.3781C19.1795 54.289 18.8188 54.2732 18.4665 54.3318L17.048 51.8748C17.6379 51.6542 18.2625 51.541 18.8924 51.5405ZM19.4336 57.4093C19.3207 57.5154 19.1789 57.5857 19.026 57.6112C18.8732 57.6367 18.7162 57.6163 18.5749 57.5526C18.4337 57.4889 18.3145 57.3848 18.2324 57.2533C18.1503 57.1219 18.109 56.9691 18.1138 56.8142C18.1185 56.6593 18.1691 56.5093 18.2591 56.3832C18.349 56.257 18.4744 56.1604 18.6193 56.1055C18.7642 56.0505 18.9221 56.0398 19.0731 56.0746C19.2241 56.1094 19.3614 56.1882 19.4676 56.3011C19.6099 56.4526 19.6862 56.6544 19.6799 56.8622C19.6735 57.07 19.5849 57.2668 19.4336 57.4093ZM15.2668 52.9796C15.3496 52.9016 15.4374 52.8311 15.5242 52.7592L16.9458 55.2214C16.7627 55.4407 16.6184 55.6896 16.5191 55.9574H13.6777C13.8657 54.8171 14.4242 53.7705 15.2668 52.9796ZM15.0374 60.4705C14.3183 59.7098 13.8424 58.7519 13.6705 57.7193H16.5083C16.5871 57.9234 16.692 58.1165 16.8204 58.2936L15.2049 60.6321C15.1493 60.5778 15.0909 60.5274 15.0374 60.4705ZM16.6507 61.639L18.2659 59.301C18.6117 59.3934 18.9737 59.408 19.3258 59.3437L20.7466 61.8045C20.1032 62.0427 19.4201 62.1555 18.7343 62.1366C18.013 62.1148 17.3039 61.9454 16.6507 61.639Z" fill="#2D4356"/>
<path d="M11.9368 16.7546H12.4588C12.234 17.224 12.132 17.7429 12.1623 18.2625C12.1926 18.7821 12.3544 19.2856 12.6323 19.7257C12.9102 20.1658 13.2953 20.5282 13.7514 20.7789C14.2076 21.0297 14.7199 21.1605 15.2404 21.1593H16.1214V32.7213L17.8833 31.8431V21.1593H56.2047V31.9286L57.9666 32.807V21.1593H58.8476C59.3681 21.1605 59.8804 21.0297 60.3366 20.7789C60.7927 20.5282 61.1778 20.1658 61.4557 19.7257C61.7336 19.2856 61.8953 18.7821 61.9257 18.2625C61.956 17.7429 61.854 17.224 61.6292 16.7546H62.1511C62.9689 16.7546 63.7531 16.4297 64.3314 15.8515C64.9096 15.2732 65.2345 14.489 65.2345 13.6712C65.2345 12.8535 64.9096 12.0692 64.3314 11.491C63.7531 10.9127 62.9689 10.5879 62.1511 10.5879H11.9368C11.1191 10.5879 10.3348 10.9127 9.7566 11.491C9.17837 12.0692 8.85352 12.8535 8.85352 13.6712C8.85352 14.489 9.17837 15.2732 9.7566 15.8515C10.3348 16.4297 11.1191 16.7546 11.9368 16.7546ZM58.8476 19.3974H15.2404C14.89 19.3974 14.5538 19.2582 14.306 19.0104C14.0582 18.7626 13.919 18.4264 13.919 18.076C13.919 17.7255 14.0582 17.3894 14.306 17.1416C14.5538 16.8938 14.89 16.7546 15.2404 16.7546H58.8476C59.198 16.7546 59.5341 16.8938 59.782 17.1416C60.0298 17.3894 60.169 17.7255 60.169 18.076C60.169 18.4264 60.0298 18.7626 59.782 19.0104C59.5341 19.2582 59.198 19.3974 58.8476 19.3974ZM11.9368 12.3498H62.1511C62.5016 12.3498 62.8377 12.489 63.0855 12.7368C63.3333 12.9846 63.4726 13.3208 63.4726 13.6712C63.4726 14.0217 63.3333 14.3578 63.0855 14.6056C62.8377 14.8534 62.5016 14.9927 62.1511 14.9927H11.9368C11.5864 14.9927 11.2503 14.8534 11.0025 14.6056C10.7546 14.3578 10.6154 14.0217 10.6154 13.6712C10.6154 13.3208 10.7546 12.9846 11.0025 12.7368C11.2503 12.489 11.5864 12.3498 11.9368 12.3498Z" fill="#2D4356"/>
<path d="M49.7305 61.6831V63.445H29.3365C29.1744 63.4452 29.0155 63.3994 28.8784 63.3129C29.2163 62.794 29.5123 62.249 29.7638 61.6831H49.7305ZM49.7305 54.6355V56.3974H30.7813C30.759 55.8062 30.6943 55.2174 30.5875 54.6355H49.7305ZM49.7305 47.5879V49.3498H28.134C27.949 49.1252 27.7596 48.9049 27.5614 48.6891C27.1879 48.2949 26.7875 47.9269 26.3633 47.5879H49.7305Z" fill="#0BCEB2"/>
<path d="M66.3889 65.2073H57.967V45.7955L56.2051 44.9146V65.2073H51.492V44.9454C51.492 44.8297 51.4692 44.7151 51.425 44.6082C51.3807 44.5013 51.3158 44.4042 51.234 44.3224C51.1522 44.2406 51.0551 44.1757 50.9482 44.1314C50.8413 44.0872 50.7267 44.0644 50.611 44.0645H23.3015C23.0681 44.0651 22.8444 44.1582 22.6793 44.3232C22.5143 44.4883 22.4212 44.712 22.4205 44.9454V45.4828C23.0249 45.6726 23.6139 45.9082 24.1824 46.1876V45.8264H49.7301V51.1121H29.3272C29.6359 51.6771 29.8982 52.2664 30.1113 52.874H49.7301V58.1597H30.7147C30.6497 58.7546 30.5393 59.3436 30.3844 59.9216H49.7301V65.2073H24.5921C25.0337 64.9112 25.4506 64.5797 25.8386 64.2162C27.375 62.7777 28.4265 60.8974 28.8476 58.8352C29.2687 56.7731 29.0387 54.631 28.1894 52.7053C27.3401 50.7795 25.9134 49.1653 24.1067 48.0857C22.2999 47.0062 20.2024 46.5146 18.1041 46.6791C16.0058 46.8436 14.0105 47.656 12.3941 49.004C10.7776 50.3519 9.61992 52.1688 9.08108 54.2033C8.54223 56.2379 8.64885 58.3896 9.3862 60.3609C10.1235 62.3323 11.4552 64.0258 13.197 65.2073H7.61173C7.48635 65.1908 7.3589 65.2013 7.23789 65.238C7.11688 65.2748 7.0051 65.3369 6.91003 65.4203C6.81496 65.5037 6.73879 65.6064 6.6866 65.7216C6.63442 65.8368 6.60742 65.9618 6.60742 66.0883C6.60742 66.2147 6.63442 66.3397 6.6866 66.4549C6.73879 66.5701 6.81496 66.6728 6.91003 66.7562C7.0051 66.8396 7.11688 66.9018 7.23789 66.9385C7.3589 66.9752 7.48635 66.9857 7.61173 66.9692H66.3889C66.5143 66.9857 66.6417 66.9752 66.7627 66.9385C66.8837 66.9018 66.9955 66.8396 67.0906 66.7562C67.1857 66.6728 67.2618 66.5701 67.314 66.4549C67.3662 66.3397 67.3932 66.2147 67.3932 66.0883C67.3932 65.9618 67.3662 65.8368 67.314 65.7216C67.2618 65.6064 67.1857 65.5037 67.0906 65.4203C66.9955 65.3369 66.8837 65.2748 66.7627 65.238C66.6417 65.2013 66.5143 65.1908 66.3889 65.2073ZM12.8005 62.5733C11.6813 61.3838 10.9346 59.8928 10.6524 58.284C10.3702 56.6753 10.565 55.0192 11.2126 53.5198C11.8602 52.0204 12.9324 50.7433 14.297 49.8458C15.6616 48.9484 17.259 48.4698 18.8923 48.4692C18.9804 48.4692 19.0641 48.4692 19.1522 48.4736C20.5276 48.5159 21.8714 48.8968 23.0645 49.5824C24.2576 50.268 25.2633 51.2373 25.9924 52.4043C26.7214 53.5714 27.1515 54.9002 27.2444 56.2732C27.3373 57.6461 27.0902 59.0208 26.525 60.2754C25.9598 61.5301 25.0939 62.626 24.0041 63.4661C22.9142 64.3062 21.634 64.8646 20.2768 65.0919C18.9196 65.3191 17.5273 65.2081 16.2233 64.7688C14.9192 64.3295 13.7436 63.5754 12.8005 62.5733Z" fill="#2D4356"/>
</g>
<defs>
<clipPath id="clip0_712_923">
<rect width="74" height="74" fill="white"/>
</clipPath>
</defs>
</svg>
