<svg width="100" height="100" viewBox="0 0 100 100" fill="none" xmlns="http://www.w3.org/2000/svg">
<path d="M50.0014 94.3104C74.4731 94.3104 94.3114 74.4722 94.3114 50.0004C94.3114 25.5287 74.4731 5.69043 50.0014 5.69043C25.5297 5.69043 5.69141 25.5287 5.69141 50.0004C5.69141 74.4722 25.5297 94.3104 50.0014 94.3104Z" fill="white"/>
<path d="M50 95C25.19 95 5 74.81 5 50C5 25.19 25.19 5 50 5C74.81 5 95 25.19 95 50C95 74.81 74.81 95 50 95ZM50 6.38C25.95 6.38 6.38 25.95 6.38 50C6.38 74.05 25.95 93.62 50 93.62C74.05 93.62 93.62 74.05 93.62 50C93.62 25.95 74.05 6.38 50 6.38Z" fill="#191919"/>
<path d="M49.5597 86.5403C69.7899 86.5403 86.1897 70.1405 86.1897 49.9103C86.1897 29.6801 69.7899 13.2803 49.5597 13.2803C29.3295 13.2803 12.9297 29.6801 12.9297 49.9103C12.9297 70.1405 29.3295 86.5403 49.5597 86.5403Z" fill="url(#paint0_linear_382_1430)"/>
<path d="M34.7089 23.3596C34.4589 23.3596 34.2289 23.2296 34.0989 22.9996C33.9189 22.6596 34.0389 22.2496 34.3789 22.0596C36.2389 21.0496 38.2089 20.2396 40.2389 19.6396C40.6089 19.5296 40.9889 19.7396 41.0989 20.1096C41.2089 20.4796 40.9989 20.8596 40.6289 20.9696C38.6989 21.5396 36.8189 22.3196 35.0389 23.2796C34.9289 23.3296 34.8189 23.3596 34.7089 23.3596Z" fill="white"/>
<path d="M22.1707 36.3904C22.0707 36.3904 21.9607 36.3704 21.8707 36.3204C21.5307 36.1504 21.3907 35.7404 21.5607 35.4004C23.4807 31.5004 26.2907 27.9804 29.6707 25.2204C29.9707 24.9804 30.4007 25.0204 30.6407 25.3204C30.8807 25.6204 30.8407 26.0504 30.5407 26.2904C27.3107 28.9204 24.6307 32.2803 22.7907 36.0103C22.6707 36.2503 22.4307 36.3904 22.1707 36.3904Z" fill="white"/>
<path d="M41.8601 69.8397C41.7201 69.8397 41.5701 69.8397 41.4201 69.8297C39.5501 69.7097 37.8101 68.8397 36.5901 67.4097L28.5201 57.9197C26.0501 55.0097 26.4001 50.6597 29.3101 48.1897C32.2101 45.7197 36.5701 46.0697 39.0401 48.9797L42.4701 53.0197L61.5301 35.6197C64.3401 33.0497 68.7101 33.2397 71.2901 36.0597C73.8601 38.8797 73.6601 43.2397 70.8501 45.8197L46.5201 68.0397C45.2401 69.1997 43.5801 69.8397 41.8601 69.8397Z" fill="white"/>
<path d="M41.8619 70.54C41.7019 70.54 41.5419 70.54 41.3819 70.53C39.3319 70.4 37.4019 69.43 36.0719 67.87L28.0019 58.38C25.2919 55.19 25.6819 50.38 28.8719 47.67C30.4119 46.36 32.3819 45.73 34.4019 45.88C36.4219 46.04 38.2619 46.99 39.5819 48.53L42.5519 52.02L61.0819 35.1C62.5819 33.73 64.5119 33.03 66.5519 33.12C68.5819 33.21 70.4519 34.09 71.8219 35.59C73.1919 37.09 73.8919 39.03 73.8019 41.06C73.7119 43.09 72.8319 44.96 71.3319 46.32L46.9919 68.55C45.5819 69.83 43.7619 70.54 41.8619 70.54ZM33.7819 47.23C32.3119 47.23 30.9019 47.75 29.7719 48.71C27.1619 50.93 26.8419 54.86 29.0619 57.47L37.1319 66.96C38.2219 68.24 39.8019 69.03 41.4719 69.14C43.1819 69.25 44.8119 68.66 46.0519 67.53L70.4019 45.3C71.6319 44.18 72.3419 42.65 72.4219 40.99C72.4919 39.33 71.9219 37.74 70.8019 36.52C69.6819 35.29 68.1519 34.58 66.4919 34.5C64.8419 34.43 63.2419 35 62.0219 36.12L42.9619 53.52C42.8219 53.65 42.6519 53.73 42.4519 53.7C42.2619 53.69 42.0919 53.6 41.9719 53.46L38.5419 49.42C37.4619 48.15 35.9619 47.38 34.3019 47.25C34.1219 47.24 33.9519 47.23 33.7819 47.23Z" fill="#191919"/>
<defs>
<linearGradient id="paint0_linear_382_1430" x1="12.9267" y1="49.9123" x2="86.1917" y2="49.9123" gradientUnits="userSpaceOnUse">
<stop stop-color="#4AE095"/>
<stop offset="0.626" stop-color="#0BCEB2"/>
<stop offset="1" stop-color="#43CC88"/>
</linearGradient>
</defs>
</svg>
