<svg width="30" height="30" viewBox="0 0 30 30" fill="none" xmlns="http://www.w3.org/2000/svg">
<path opacity="0.3" d="M25 3.75C25.663 3.75 26.2989 4.01339 26.7678 4.48223C27.2366 4.95107 27.5 5.58696 27.5 6.25V23.75C27.5 24.413 27.2366 25.0489 26.7678 25.5178C26.2989 25.9866 25.663 26.25 25 26.25H5C4.33696 26.25 3.70107 25.9866 3.23223 25.5178C2.76339 25.0489 2.5 24.413 2.5 23.75V6.25C2.5 5.58696 2.76339 4.95107 3.23223 4.48223C3.70107 4.01339 4.33696 3.75 5 3.75H25Z" fill="#002E62"/>
<path d="M12.5 11.25V13.75H10V11.25H12.5ZM21.25 13.75H17.5C17.1814 13.7504 16.875 13.8723 16.6433 14.0911C16.4116 14.3098 16.2722 14.6087 16.2535 14.9267C16.2349 15.2448 16.3383 15.558 16.5428 15.8023C16.7473 16.0466 17.0374 16.2036 17.3538 16.2413L17.5 16.25H21.25C21.5686 16.2496 21.875 16.1277 22.1067 15.9089C22.3384 15.6902 22.4778 15.3913 22.4965 15.0733C22.5151 14.7552 22.4117 14.442 22.2072 14.1977C22.0027 13.9534 21.7126 13.7964 21.3963 13.7587L21.25 13.75Z" fill="#002E62"/>
<path d="M12.5 8.75H10C9.36928 8.7498 8.76179 8.98801 8.29932 9.41687C7.83684 9.84573 7.55355 10.4336 7.50625 11.0625L7.5 11.25V13.75C7.4998 14.3807 7.73801 14.9882 8.16687 15.4507C8.59573 15.9132 9.18356 16.1964 9.8125 16.2437L10 16.25H12.5C13.1307 16.2502 13.7382 16.012 14.2007 15.5831C14.6632 15.1543 14.9464 14.5664 14.9937 13.9375L15 13.75V11.25C15.0002 10.6193 14.762 10.0118 14.3331 9.54932C13.9043 9.08684 13.3164 8.80355 12.6875 8.75625L12.5 8.75ZM21.25 18.75H8.75C8.41848 18.75 8.10054 18.8817 7.86612 19.1161C7.6317 19.3505 7.5 19.6685 7.5 20C7.5 20.3315 7.6317 20.6495 7.86612 20.8839C8.10054 21.1183 8.41848 21.25 8.75 21.25H21.25C21.5815 21.25 21.8995 21.1183 22.1339 20.8839C22.3683 20.6495 22.5 20.3315 22.5 20C22.5 19.6685 22.3683 19.3505 22.1339 19.1161C21.8995 18.8817 21.5815 18.75 21.25 18.75Z" fill="#002E62"/>
</svg>
