<svg width="60" height="60" viewBox="0 0 60 60" fill="none" xmlns="http://www.w3.org/2000/svg">
<rect x="0.46875" y="0.46875" width="59.0625" height="59.0625" rx="29.5312" fill="#FEFCE8"/>
<rect x="0.46875" y="0.46875" width="59.0625" height="59.0625" rx="29.5312" stroke="#FBDBA7" stroke-width="0.9375"/>
<path d="M39.8026 27.9995C40.2593 30.2408 39.9338 32.5709 38.8804 34.6013C37.827 36.6317 36.1095 38.2396 34.0141 39.1568C31.9187 40.0741 29.5722 40.2453 27.3659 39.6419C25.1595 39.0385 23.2268 37.6969 21.8898 35.8409C20.5529 33.9849 19.8927 31.7267 20.0192 29.4429C20.1458 27.159 21.0514 24.9876 22.5852 23.2907C24.119 21.5938 26.1881 20.4739 28.4476 20.118C30.7071 19.762 33.0203 20.1914 35.0016 21.3345M27.0016 28.9995L30.0016 31.9995L40.0016 21.9995" stroke="#F5A524" stroke-width="2" stroke-linecap="round" stroke-linejoin="round"/>
</svg>
