<svg width="50" height="50" viewBox="0 0 50 50" fill="none" xmlns="http://www.w3.org/2000/svg">
<rect x="0.390625" y="0.390625" width="49.2188" height="49.2188" rx="24.6094" fill="#F4F4F5"/>
<rect x="0.390625" y="0.390625" width="49.2188" height="49.2188" rx="24.6094" stroke="#E4E4E7" stroke-width="0.78125"/>
<path d="M24 28H26C26.5304 28 27.0391 27.7893 27.4142 27.4142C27.7893 27.0391 28 26.5304 28 26C28 25.4696 27.7893 24.9609 27.4142 24.5858C27.0391 24.2107 26.5304 24 26 24H23C22.4 24 21.9 24.2 21.6 24.6L16 30M20 34L21.6 32.6C21.9 32.2 22.4 32 23 32H27C28.1 32 29.1 31.6 29.8 30.8L34.4 26.4C34.7859 26.0353 35.0111 25.5323 35.0261 25.0016C35.0411 24.4708 34.8447 23.9559 34.48 23.57C34.1153 23.1841 33.6123 22.9589 33.0816 22.9439C32.5508 22.9289 32.0359 23.1253 31.65 23.49L27.45 27.39M15 29L21 35M31.9 22C31.9 23.6016 30.6016 24.9 29 24.9C27.3984 24.9 26.1 23.6016 26.1 22C26.1 20.3984 27.3984 19.1 29 19.1C30.6016 19.1 31.9 20.3984 31.9 22ZM22 18C22 19.6569 20.6569 21 19 21C17.3431 21 16 19.6569 16 18C16 16.3431 17.3431 15 19 15C20.6569 15 22 16.3431 22 18Z" stroke="#002E62" stroke-width="1.5" stroke-linecap="round" stroke-linejoin="round"/>
</svg>
