<svg width="60" height="60" viewBox="0 0 60 60" fill="none" xmlns="http://www.w3.org/2000/svg">
<rect x="0.46875" y="0.46875" width="59.0625" height="59.0625" rx="29.5312" fill="#EDFCF4"/>
<rect x="0.46875" y="0.46875" width="59.0625" height="59.0625" rx="29.5312" stroke="#ACF1CE" stroke-width="0.9375"/>
<path d="M32.7013 24.2997C32.5181 24.4867 32.4155 24.738 32.4155 24.9997C32.4155 25.2615 32.5181 25.5128 32.7013 25.6997L34.3013 27.2997C34.4882 27.483 34.7396 27.5856 35.0013 27.5856C35.2631 27.5856 35.5144 27.483 35.7013 27.2997L39.4713 23.5297C39.9742 24.6409 40.1264 25.879 39.9078 27.0789C39.6892 28.2788 39.11 29.3836 38.2476 30.246C37.3852 31.1084 36.2804 31.6876 35.0805 31.9062C33.8806 32.1248 32.6425 31.9726 31.5313 31.4697L24.6213 38.3797C24.2235 38.7776 23.6839 39.0011 23.1213 39.0011C22.5587 39.0011 22.0191 38.7776 21.6213 38.3797C21.2235 37.9819 21 37.4423 21 36.8797C21 36.3171 21.2235 35.7776 21.6213 35.3797L28.5313 28.4697C28.0285 27.3585 27.8762 26.1205 28.0949 24.9206C28.3135 23.7207 28.8926 22.6159 29.755 21.7535C30.6175 20.891 31.7223 20.3119 32.9222 20.0933C34.1221 19.8747 35.3601 20.0269 36.4713 20.5297L32.7013 24.2997Z" stroke="#359F6A" stroke-width="2" stroke-linecap="round" stroke-linejoin="round"/>
</svg>
