<svg width="50" height="50" viewBox="0 0 50 50" fill="none" xmlns="http://www.w3.org/2000/svg">
<rect x="0.390625" y="0.390625" width="49.2188" height="49.2188" rx="24.6094" fill="#F4F4F5"/>
<rect x="0.390625" y="0.390625" width="49.2188" height="49.2188" rx="24.6094" stroke="#E4E4E7" stroke-width="0.78125"/>
<path d="M25 33C27.1217 33 29.1566 32.1571 30.6569 30.6569C32.1571 29.1566 33 27.1217 33 25C33 22.8783 32.1571 20.8434 30.6569 19.3431C29.1566 17.8429 27.1217 17 25 17M25 33C22.8783 33 20.8434 32.1571 19.3431 30.6569C17.8429 29.1566 17 27.1217 17 25M25 33V35M25 17C22.8783 17 20.8434 17.8429 19.3431 19.3431C17.8429 20.8434 17 22.8783 17 25M25 17V15M17 25H15M27 25C27 25.5304 26.7893 26.0391 26.4142 26.4142C26.0391 26.7893 25.5304 27 25 27C24.4696 27 23.9609 26.7893 23.5858 26.4142C23.2107 26.0391 23 25.5304 23 25C23 24.4696 23.2107 23.9609 23.5858 23.5858C23.9609 23.2107 24.4696 23 25 23C25.5304 23 26.0391 23.2107 26.4142 23.5858C26.7893 23.9609 27 24.4696 27 25ZM27 25H35M30 33.66L29 31.93M24 23.27L20 16.34M33.66 30L31.93 29M16.34 20L18.07 21M33.66 20L31.93 21M16.34 30L18.07 29M30 16.34L29 18.07M24 26.73L20 33.66" stroke="#002E62" stroke-width="1.5" stroke-linecap="round" stroke-linejoin="round"/>
</svg>
