<svg width="60" height="60" viewBox="0 0 60 60" fill="none" xmlns="http://www.w3.org/2000/svg">
<rect x="0.46875" y="0.46875" width="59.0625" height="59.0625" rx="29.5312" fill="#FEFCE8"/>
<rect x="0.46875" y="0.46875" width="59.0625" height="59.0625" rx="29.5312" stroke="#FBDBA7" stroke-width="0.9375"/>
<path d="M33.75 38.4375V36.5625C33.75 35.5679 33.3549 34.6141 32.6517 33.9109C31.9484 33.2076 30.9946 32.8125 30 32.8125H24.375C23.3804 32.8125 22.4266 33.2076 21.7233 33.9109C21.0201 34.6141 20.625 35.5679 20.625 36.5625V38.4375M33.75 21.6825C34.5541 21.891 35.2663 22.3606 35.7747 23.0176C36.2831 23.6746 36.5589 24.4818 36.5589 25.3125C36.5589 26.1432 36.2831 26.9504 35.7747 27.6074C35.2663 28.2644 34.5541 28.734 33.75 28.9425M39.375 38.4375V36.5625C39.3744 35.7316 39.0978 34.9245 38.5888 34.2678C38.0797 33.6111 37.367 33.1421 36.5625 32.9344M30.9375 25.3125C30.9375 27.3836 29.2586 29.0625 27.1875 29.0625C25.1164 29.0625 23.4375 27.3836 23.4375 25.3125C23.4375 23.2414 25.1164 21.5625 27.1875 21.5625C29.2586 21.5625 30.9375 23.2414 30.9375 25.3125Z" stroke="#F5A524" stroke-width="1.875" stroke-linecap="round" stroke-linejoin="round"/>
</svg>
