<svg width="45" height="45" viewBox="0 0 45 45" fill="none" xmlns="http://www.w3.org/2000/svg">
<rect x="0.351562" y="0.351562" width="44.2969" height="44.2969" rx="22.1484" fill="#FEFCE8"/>
<rect x="0.351562" y="0.351562" width="44.2969" height="44.2969" rx="22.1484" stroke="#F9C97C" stroke-width="0.703125"/>
<path d="M20.6693 26.1635V24.3321C20.6693 23.8464 20.8623 23.3806 21.2057 23.0371C21.5492 22.6937 22.015 22.5007 22.5007 22.5007H29.8263C30.312 22.5007 30.7778 22.3078 31.1213 21.9643C31.4648 21.6209 31.6577 21.155 31.6577 20.6693V17.9222C31.6577 17.4365 31.4648 16.9707 31.1213 16.6272C30.7778 16.2838 30.312 16.0908 29.8263 16.0908H27.9949M15.1751 13.3438H26.1635C27.175 13.3438 27.9949 14.1637 27.9949 15.1751V17.0065C27.9949 18.018 27.175 18.8379 26.1635 18.8379H15.1751C14.1637 18.8379 13.3438 18.018 13.3438 17.0065V15.1751C13.3438 14.1637 14.1637 13.3438 15.1751 13.3438ZM19.7536 26.1635H21.585C22.0908 26.1635 22.5007 26.5735 22.5007 27.0792V30.742C22.5007 31.2477 22.0908 31.6577 21.585 31.6577H19.7536C19.2479 31.6577 18.8379 31.2477 18.8379 30.742V27.0792C18.8379 26.5735 19.2479 26.1635 19.7536 26.1635Z" stroke="#C4841D" stroke-width="1.28721" stroke-linecap="round" stroke-linejoin="round"/>
</svg>
