<svg width="60" height="60" viewBox="0 0 60 60" fill="none" xmlns="http://www.w3.org/2000/svg">
<rect x="0.46875" y="0.46875" width="59.0625" height="59.0625" rx="29.5312" fill="#F2EAFA"/>
<rect x="0.46875" y="0.46875" width="59.0625" height="59.0625" rx="29.5312" stroke="#C9A9E9" stroke-width="0.9375"/>
<path d="M28.125 33.75V31.875C28.125 31.3777 28.3225 30.9008 28.6742 30.5492C29.0258 30.1975 29.5027 30 30 30H37.5C37.9973 30 38.4742 29.8025 38.8258 29.4508C39.1775 29.0992 39.375 28.6223 39.375 28.125V25.3125C39.375 24.8152 39.1775 24.3383 38.8258 23.9867C38.4742 23.635 37.9973 23.4375 37.5 23.4375H35.625M22.5 20.625H33.75C34.7855 20.625 35.625 21.4645 35.625 22.5V24.375C35.625 25.4105 34.7855 26.25 33.75 26.25H22.5C21.4645 26.25 20.625 25.4105 20.625 24.375V22.5C20.625 21.4645 21.4645 20.625 22.5 20.625ZM27.1875 33.75H29.0625C29.5803 33.75 30 34.1697 30 34.6875V38.4375C30 38.9553 29.5803 39.375 29.0625 39.375H27.1875C26.6697 39.375 26.25 38.9553 26.25 38.4375V34.6875C26.25 34.1697 26.6697 33.75 27.1875 33.75Z" stroke="#7828C8" stroke-width="1.875" stroke-linecap="round" stroke-linejoin="round"/>
</svg>
