<svg width="45" height="45" viewBox="0 0 45 45" fill="none" xmlns="http://www.w3.org/2000/svg">
<rect x="0.351562" y="0.351562" width="44.2969" height="44.2969" rx="22.1484" fill="#EDFCF4"/>
<rect x="0.351562" y="0.351562" width="44.2969" height="44.2969" rx="22.1484" stroke="#86EAB8" stroke-width="0.703125"/>
<path d="M22.1085 24.2009H23.9399C24.4256 24.2009 24.8914 24.008 25.2349 23.6645C25.5783 23.3211 25.7713 22.8553 25.7713 22.3695C25.7713 21.8838 25.5783 21.418 25.2349 21.0746C24.8914 20.7311 24.4256 20.5382 23.9399 20.5382H21.1928C20.6433 20.5382 20.1855 20.7213 19.9108 21.0876L14.7829 26.0323M18.4457 29.6951L19.9108 28.4132C20.1855 28.0469 20.6433 27.8637 21.1928 27.8637H24.8556C25.8628 27.8637 26.7785 27.4975 27.4195 26.7649L31.6317 22.7358C31.9851 22.4019 32.1913 21.9413 32.2051 21.4553C32.2188 20.9693 32.0389 20.4978 31.705 20.1444C31.371 19.791 30.9104 19.5848 30.4244 19.5711C29.9385 19.5573 29.4669 19.7372 29.1136 20.0711L25.2676 23.6424M13.8672 25.1166L19.3614 30.6108M29.3425 18.7068C29.3425 20.1734 28.1536 21.3623 26.687 21.3623C25.2203 21.3623 24.0314 20.1734 24.0314 18.7068C24.0314 17.2402 25.2203 16.0512 26.687 16.0512C28.1536 16.0512 29.3425 17.2402 29.3425 18.7068ZM20.2771 15.044C20.2771 16.5611 19.0472 17.7911 17.53 17.7911C16.0128 17.7911 14.7829 16.5611 14.7829 15.044C14.7829 13.5268 16.0128 12.2969 17.53 12.2969C19.0472 12.2969 20.2771 13.5268 20.2771 15.044Z" stroke="#0E793C" stroke-width="1.28198" stroke-linecap="round" stroke-linejoin="round"/>
</svg>
