<svg width="45" height="45" viewBox="0 0 45 45" fill="none" xmlns="http://www.w3.org/2000/svg">
<rect x="0.351562" y="0.351562" width="44.2969" height="44.2969" rx="22.1484" fill="#FEE7EF"/>
<rect x="0.351562" y="0.351562" width="44.2969" height="44.2969" rx="22.1484" stroke="#FAA0BF" stroke-width="0.703125"/>
<path d="M25.2462 30.7415V23.4159C25.2462 23.1731 25.1497 22.9402 24.978 22.7685C24.8063 22.5967 24.5733 22.5003 24.3305 22.5003H20.6677C20.4248 22.5003 20.1919 22.5967 20.0202 22.7685C19.8485 22.9402 19.752 23.1731 19.752 23.4159V30.7415M14.2578 20.6689C14.2577 20.4024 14.3158 20.1392 14.4279 19.8976C14.5401 19.6559 14.7036 19.4416 14.907 19.2697L21.3169 13.7764C21.6475 13.497 22.0663 13.3438 22.4991 13.3438C22.9319 13.3438 23.3507 13.497 23.6813 13.7764L30.0911 19.2697C30.2946 19.4416 30.4581 19.6559 30.5702 19.8976C30.6824 20.1392 30.7404 20.4024 30.7404 20.6689V28.9101C30.7404 29.3959 30.5474 29.8617 30.204 30.2051C29.8605 30.5486 29.3947 30.7415 28.909 30.7415H16.0892C15.6035 30.7415 15.1377 30.5486 14.7942 30.2051C14.4508 29.8617 14.2578 29.3959 14.2578 28.9101V20.6689Z" stroke="#F31260" stroke-width="1.28721" stroke-linecap="round" stroke-linejoin="round"/>
</svg>
