<svg width="60" height="60" viewBox="0 0 60 60" fill="none" xmlns="http://www.w3.org/2000/svg">
<rect x="0.46875" y="0.46875" width="59.0625" height="59.0625" rx="29.5312" fill="#EDFCF4"/>
<rect x="0.46875" y="0.46875" width="59.0625" height="59.0625" rx="29.5312" stroke="#ACF1CE" stroke-width="0.9375"/>
<path d="M32.3438 38.437V30.937C32.3438 30.6884 32.245 30.4499 32.0692 30.2741C31.8933 30.0983 31.6549 29.9995 31.4062 29.9995H27.6562C27.4076 29.9995 27.1692 30.0983 26.9933 30.2741C26.8175 30.4499 26.7188 30.6884 26.7188 30.937V38.437M21.0938 28.1245C21.0937 27.8518 21.1531 27.5823 21.2679 27.3349C21.3827 27.0875 21.5501 26.8681 21.7584 26.692L28.3209 21.0679C28.6594 20.7819 29.0881 20.625 29.5312 20.625C29.9744 20.625 30.4031 20.7819 30.7416 21.0679L37.3041 26.692C37.5124 26.8681 37.6798 27.0875 37.7946 27.3349C37.9094 27.5823 37.9688 27.8518 37.9688 28.1245V36.562C37.9688 37.0593 37.7712 37.5362 37.4196 37.8878C37.0679 38.2395 36.591 38.437 36.0938 38.437H22.9688C22.4715 38.437 21.9946 38.2395 21.6429 37.8878C21.2913 37.5362 21.0938 37.0593 21.0938 36.562V28.1245Z" stroke="#359F6A" stroke-width="1.875" stroke-linecap="round" stroke-linejoin="round"/>
</svg>
