<svg width="60" height="60" viewBox="0 0 60 60" fill="none" xmlns="http://www.w3.org/2000/svg">
<rect x="0.46875" y="0.46875" width="59.0625" height="59.0625" rx="29.5312" fill="#EDFCF4"/>
<rect x="0.46875" y="0.46875" width="59.0625" height="59.0625" rx="29.5312" stroke="#ACF1CE" stroke-width="0.9375"/>
<path d="M31.4 20.0001H24C23.4696 20.0001 22.9609 20.2109 22.5858 20.5859C22.2107 20.961 22 21.4697 22 22.0001V38.0001C22 38.5306 22.2107 39.0393 22.5858 39.4144C22.9609 39.7894 23.4696 40.0001 24 40.0001H36C36.5304 40.0001 37.0391 39.7894 37.4142 39.4144C37.7893 39.0393 38 38.5306 38 38.0001V30.6001M20 24.0001H24M20 28.0001H24M20 32.0001H24M20 36.0001H24M39.378 23.6261C39.7764 23.2278 40.0001 22.6875 40.0001 22.1241C40.0001 21.5608 39.7764 21.0205 39.378 20.6221C38.9796 20.2238 38.4394 20 37.876 20C37.3126 20 36.7724 20.2238 36.374 20.6221L31.364 25.6341C31.1262 25.8718 30.9522 26.1655 30.858 26.4881L30.021 29.3581C29.9959 29.4442 29.9944 29.5354 30.0166 29.6222C30.0389 29.7091 30.0841 29.7883 30.1474 29.8517C30.2108 29.9151 30.2901 29.9603 30.3769 29.9825C30.4637 30.0048 30.555 30.0032 30.641 29.9781L33.511 29.1411C33.8337 29.0469 34.1274 28.8729 34.365 28.6351L39.378 23.6261Z" stroke="#359F6A" stroke-width="2" stroke-linecap="round" stroke-linejoin="round"/>
</svg>
