<svg width="87" height="87" viewBox="0 0 87 87" fill="none" xmlns="http://www.w3.org/2000/svg">
<path d="M43.5009 18.6445C38.1749 18.6445 32.9685 20.2239 28.5401 23.1828C24.1118 26.1418 20.6603 30.3474 18.6221 35.268C16.5839 40.1885 16.0507 45.603 17.0897 50.8266C18.1287 56.0502 20.6934 60.8485 24.4595 64.6145C28.2255 68.3805 33.0237 70.9452 38.2473 71.9843C43.471 73.0233 48.8854 72.49 53.806 70.4519C58.7265 68.4137 62.9322 64.9622 65.8911 60.5338C68.8501 56.1054 70.4294 50.8991 70.4294 45.5731C70.4213 38.4337 67.5816 31.589 62.5333 26.5407C57.485 21.4923 50.6403 18.6526 43.5009 18.6445ZM43.5009 70.4303C38.5846 70.4303 33.7787 68.9724 29.691 66.2411C25.6032 63.5097 22.4172 59.6276 20.5358 55.0855C18.6545 50.5435 18.1622 45.5455 19.1213 40.7237C20.0804 35.9019 22.4479 31.4728 25.9242 27.9965C29.4005 24.5201 33.8296 22.1527 38.6515 21.1936C43.4733 20.2345 48.4712 20.7267 53.0133 22.6081C57.5553 24.4895 61.4375 27.6755 64.1688 31.7632C66.9002 35.851 68.358 40.6568 68.358 45.5731C68.3506 52.1634 65.7293 58.4816 61.0693 63.1416C56.4093 67.8016 50.0911 70.4228 43.5009 70.4303Z" fill="#0BCEB2"/>
<path d="M62.1313 52.4099C61.8749 52.3116 61.5899 52.3191 61.339 52.4307C61.0881 52.5424 60.8918 52.7491 60.7932 53.0054C60.6066 53.4922 60.3995 53.9708 60.1723 54.4399C60.113 54.5624 60.0784 54.6953 60.0706 54.8312C60.0627 54.967 60.0816 55.103 60.1264 55.2315C60.1711 55.36 60.2407 55.4785 60.3312 55.5801C60.4217 55.6816 60.5314 55.7644 60.6539 55.8236C60.9018 55.9389 61.1849 55.9532 61.4432 55.8634C61.7015 55.7736 61.9147 55.5868 62.0376 55.3425C62.2894 54.8206 62.5196 54.2885 62.7274 53.7475C62.8257 53.4912 62.8182 53.2063 62.7065 52.9554C62.5948 52.7046 62.3876 52.5084 62.1313 52.4099ZM62.0376 35.797C61.9783 35.6746 61.8955 35.5651 61.7938 35.4747C61.6922 35.3843 61.5737 35.3148 61.4453 35.2702C61.3168 35.2255 61.1807 35.2067 61.045 35.2146C60.9092 35.2226 60.7763 35.2572 60.6539 35.3165C60.5315 35.3758 60.4219 35.4586 60.3315 35.5602C60.2411 35.6619 60.1716 35.7803 60.127 35.9088C60.0824 36.0373 60.0635 36.1733 60.0714 36.3091C60.0794 36.4449 60.114 36.5778 60.1733 36.7002C61.4856 39.472 62.158 42.5033 62.1406 45.57C62.1406 46.7904 62.0372 48.0087 61.8315 49.2116C61.8067 49.3464 61.8088 49.4848 61.8379 49.6187C61.8669 49.7527 61.9223 49.8795 62.0007 49.9919C62.0792 50.1043 62.1791 50.2 62.2948 50.2735C62.4105 50.347 62.5397 50.3967 62.6748 50.4199C62.8098 50.4431 62.9482 50.4393 63.0818 50.4086C63.2154 50.378 63.3415 50.3211 63.453 50.2413C63.5644 50.1615 63.6589 50.0604 63.731 49.9438C63.8031 49.8273 63.8513 49.6975 63.8729 49.5622C64.0987 48.2435 64.2122 46.908 64.2121 45.57C64.2288 42.1909 63.4855 38.8512 62.0371 35.7981L62.0376 35.797ZM25.1641 49.2116C24.9583 48.0087 24.8549 46.7904 24.8549 45.57C24.8376 42.5033 25.5099 39.472 26.8223 36.7002C26.8816 36.5778 26.9162 36.4449 26.9241 36.3091C26.9321 36.1733 26.9132 36.0373 26.8685 35.9088C26.8239 35.7803 26.7544 35.6619 26.664 35.5602C26.5736 35.4586 26.4641 35.3758 26.3417 35.3165C26.2193 35.2572 26.0864 35.2226 25.9506 35.2146C25.8148 35.2067 25.6788 35.2255 25.5503 35.2702C25.4218 35.3148 25.3034 35.3843 25.2017 35.4747C25.1001 35.5651 25.0173 35.6746 24.958 35.797C23.5096 38.8505 22.7664 42.1905 22.7835 45.57C22.7834 46.9081 22.8968 48.2438 23.1227 49.5627C23.1448 49.6976 23.1934 49.8268 23.2657 49.9428C23.338 50.0588 23.4325 50.1593 23.5439 50.2386C23.6552 50.3179 23.7811 50.3744 23.9144 50.4048C24.0476 50.4352 24.1856 50.4389 24.3203 50.4158C24.455 50.3926 24.5838 50.343 24.6992 50.2698C24.8147 50.1966 24.9145 50.1013 24.9929 49.9894C25.0714 49.8775 25.1269 49.7511 25.1563 49.6176C25.1856 49.4841 25.1883 49.3461 25.1641 49.2116ZM26.2024 53.0054C26.1537 52.8784 26.0804 52.7623 25.9868 52.6636C25.8932 52.5649 25.781 52.4856 25.6568 52.4303C25.5325 52.3749 25.3986 52.3446 25.2626 52.341C25.1266 52.3374 24.9912 52.3607 24.8642 52.4094C24.7372 52.4581 24.6211 52.5314 24.5224 52.625C24.4237 52.7186 24.3444 52.8307 24.2891 52.955C24.2337 53.0793 24.2034 53.2132 24.1998 53.3492C24.1962 53.4852 24.2195 53.6205 24.2682 53.7475C24.476 54.2885 24.7061 54.8206 24.958 55.3425C25.0172 55.465 25.1 55.5746 25.2016 55.6651C25.3032 55.7556 25.4216 55.8252 25.5501 55.8699C25.6786 55.9146 25.8146 55.9336 25.9504 55.9257C26.0863 55.9179 26.2192 55.8834 26.3417 55.8241C26.4642 55.7649 26.5738 55.6821 26.6643 55.5805C26.7548 55.4789 26.8243 55.3605 26.8691 55.232C26.9138 55.1035 26.9328 54.9675 26.9249 54.8317C26.9171 54.6958 26.8825 54.5629 26.8233 54.4404C26.5959 53.9711 26.3891 53.4924 26.2024 53.0054ZM36.0624 62.8654C35.5758 62.6793 35.0974 62.4724 34.6284 62.2456C34.5057 62.1831 34.3718 62.1457 34.2345 62.1356C34.0972 62.1255 33.9593 62.1429 33.8287 62.1867C33.6982 62.2305 33.5778 62.2999 33.4744 62.3909C33.371 62.4818 33.2868 62.5925 33.2267 62.7163C33.1666 62.8402 33.1318 62.9748 33.1243 63.1123C33.1168 63.2498 33.1368 63.3874 33.1832 63.517C33.2295 63.6467 33.3012 63.7658 33.3941 63.8674C33.487 63.969 33.5993 64.0511 33.7243 64.1088C34.238 64.3584 34.7745 64.5904 35.3198 64.7996C35.5764 64.8947 35.8601 64.8857 36.1101 64.7744C36.3602 64.6631 36.5568 64.4584 36.6579 64.2041C36.7564 63.9477 36.749 63.6626 36.6373 63.4117C36.5256 63.1607 36.3188 62.9639 36.0624 62.8654ZM52.3676 62.245C49.596 63.5578 46.5646 64.2303 43.4978 64.2129C42.2775 64.213 41.0594 64.1094 39.8567 63.9032C39.586 63.8567 39.3078 63.9196 39.0834 64.0781C38.859 64.2367 38.7068 64.4778 38.6602 64.7486C38.6137 65.0194 38.6766 65.2976 38.8351 65.522C38.9937 65.7464 39.2348 65.8986 39.5056 65.9451C40.8243 66.171 42.1599 66.2845 43.4978 66.2843C46.8773 66.3012 50.2174 65.5578 53.2708 64.1093C53.518 63.9896 53.7075 63.7765 53.7976 63.517C53.8878 63.2575 53.8711 62.9728 53.7514 62.7256C53.6316 62.4784 53.4185 62.2889 53.159 62.1987C52.8995 62.1086 52.6149 62.1253 52.3676 62.245ZM34.1763 28.9986C34.3328 28.9988 34.4872 28.9634 34.6279 28.895C35.0969 28.6678 35.5753 28.4606 36.0619 28.2741C36.3163 28.1742 36.5209 27.9778 36.6312 27.7276C36.7414 27.4775 36.7482 27.1939 36.6502 26.9387C36.5522 26.6836 36.3573 26.4775 36.108 26.3654C35.8587 26.2533 35.5752 26.2444 35.3193 26.3404C34.7779 26.548 34.2455 26.7784 33.7237 27.0313C33.513 27.1337 33.3431 27.3045 33.242 27.5159C33.1408 27.7273 33.1144 27.9667 33.1669 28.1951C33.2195 28.4235 33.3479 28.6273 33.5312 28.7732C33.7146 28.9192 33.942 28.9986 34.1763 28.9986ZM39.8562 27.2369C41.0591 27.0307 42.2773 26.9271 43.4978 26.9272C46.5646 26.9097 49.596 27.5823 52.3676 28.895C52.6149 29.0148 52.8995 29.0315 53.159 28.9413C53.4185 28.8512 53.6316 28.6617 53.7514 28.4145C53.8711 28.1672 53.8878 27.8826 53.7976 27.6231C53.7075 27.3636 53.518 27.1505 53.2708 27.0307C50.2174 25.5822 46.8773 24.8389 43.4978 24.8557C42.1599 24.8556 40.8243 24.969 39.5056 25.1949C39.2348 25.2415 38.9937 25.3937 38.8351 25.6181C38.6766 25.8425 38.6137 26.1207 38.6602 26.3915C38.7068 26.6622 38.859 26.9034 39.0834 27.062C39.3078 27.2205 39.5854 27.2834 39.8562 27.2369Z" fill="#2D4356"/>
<path d="M57.4834 35.6399C57.4835 34.8395 57.2461 34.0571 56.8015 33.3916C56.3568 32.7261 55.7248 32.2074 54.9853 31.9012C54.2458 31.5949 53.4321 31.5148 52.6471 31.671C51.8621 31.8272 51.1411 32.2127 50.5752 32.7787L43.5013 39.8532L36.4274 32.7793C36.0531 32.3967 35.6068 32.0922 35.1141 31.8834C34.6214 31.6745 34.0921 31.5655 33.557 31.5626C33.0219 31.5596 32.4915 31.6629 31.9965 31.8663C31.5016 32.0697 31.0519 32.3693 30.6735 32.7477C30.2951 33.1261 29.9955 33.5758 29.7921 34.0707C29.5886 34.5657 29.4854 35.0961 29.4883 35.6312C29.4913 36.1664 29.6003 36.6956 29.8092 37.1883C30.018 37.681 30.3225 38.1274 30.705 38.5016L37.779 45.5755L30.705 52.6494C30.3225 53.0237 30.018 53.47 29.8092 53.9627C29.6003 54.4554 29.4913 54.9847 29.4883 55.5198C29.4854 56.0549 29.5886 56.5853 29.7921 57.0803C29.9955 57.5752 30.2951 58.0249 30.6735 58.4033C31.0519 58.7817 31.5016 59.0813 31.9965 59.2847C32.4915 59.4882 33.0219 59.5914 33.557 59.5885C34.0921 59.5855 34.6214 59.4765 35.1141 59.2676C35.6068 59.0588 36.0531 58.7543 36.4274 58.3718L43.5013 51.2989L50.5752 58.3728C51.3398 59.1207 52.3668 59.5395 53.4364 59.5395C54.5059 59.5395 55.533 59.1207 56.2975 58.3728C56.6733 57.9971 56.9714 57.551 57.1747 57.0601C57.3781 56.5692 57.4828 56.043 57.4828 55.5116C57.4828 54.9803 57.3781 54.4541 57.1747 53.9632C56.9714 53.4722 56.6733 53.0262 56.2975 52.6505L49.2236 45.5755L56.2975 38.5016C56.6746 38.1267 56.9736 37.6808 57.1772 37.1895C57.3807 36.6983 57.4848 36.1716 57.4834 35.6399ZM54.8336 37.0366L47.0274 44.8433C46.8332 45.0375 46.7241 45.3009 46.7241 45.5755C46.7241 45.8501 46.8332 46.1135 47.0274 46.3078L54.8336 54.1145C55.2035 54.4851 55.4112 54.9874 55.4112 55.5111C55.4112 56.0348 55.2035 56.5371 54.8336 56.9078C54.4573 57.2672 53.957 57.4678 53.4366 57.4678C52.9163 57.4678 52.416 57.2672 52.0397 56.9078L44.2335 49.1016C44.0393 48.9074 43.7759 48.7984 43.5013 48.7984C43.2267 48.7984 42.9633 48.9074 42.769 49.1016L34.9629 56.9078C34.5866 57.2672 34.0863 57.4678 33.5659 57.4678C33.0456 57.4678 32.5453 57.2672 32.169 56.9078C31.7991 56.5371 31.5913 56.0348 31.5913 55.5111C31.5913 54.9874 31.7991 54.4851 32.169 54.1145L39.9752 46.3078C40.1694 46.1135 40.2784 45.8501 40.2784 45.5755C40.2784 45.3009 40.1694 45.0375 39.9752 44.8433L32.169 37.036C31.7991 36.6654 31.5913 36.1631 31.5913 35.6394C31.5913 35.1157 31.7991 34.6134 32.169 34.2427C32.5453 33.8833 33.0456 33.6827 33.5659 33.6827C34.0863 33.6827 34.5866 33.8833 34.9629 34.2427L42.769 42.0489C42.9633 42.2431 43.2267 42.3521 43.5013 42.3521C43.7759 42.3521 44.0393 42.2431 44.2335 42.0489L52.0397 34.2427C52.416 33.8833 52.9163 33.6827 53.4366 33.6827C53.957 33.6827 54.4573 33.8833 54.8336 34.2427C55.2035 34.6134 55.4112 35.1157 55.4112 35.6394C55.4112 36.1631 55.2035 36.6659 54.8336 37.0366Z" fill="#0BCEB2"/>
<path d="M1.03571 78.714C1.60772 78.714 2.07143 78.2503 2.07143 77.6783C2.07143 77.1063 1.60772 76.6426 1.03571 76.6426C0.463705 76.6426 0 77.1063 0 77.6783C0 78.2503 0.463705 78.714 1.03571 78.714Z" fill="#2D4356"/>
<path d="M5.69475 76.6426H4.14118C3.86649 76.6426 3.60306 76.7517 3.40882 76.9459C3.21459 77.1402 3.10547 77.4036 3.10547 77.6783C3.10547 77.953 3.21459 78.2164 3.40882 78.4107C3.60306 78.6049 3.86649 78.714 4.14118 78.714H5.69475C5.96944 78.714 6.23288 78.6049 6.42711 78.4107C6.62135 78.2164 6.73047 77.953 6.73047 77.6783C6.73047 77.4036 6.62135 77.1402 6.42711 76.9459C6.23288 76.7517 5.96944 76.6426 5.69475 76.6426ZM82.8555 76.6426H81.3019C81.0272 76.6426 80.7638 76.7517 80.5695 76.9459C80.3753 77.1402 80.2662 77.4036 80.2662 77.6783C80.2662 77.953 80.3753 78.2164 80.5695 78.4107C80.7638 78.6049 81.0272 78.714 81.3019 78.714H82.8555C83.1302 78.714 83.3936 78.6049 83.5878 78.4107C83.7821 78.2164 83.8912 77.953 83.8912 77.6783C83.8912 77.4036 83.7821 77.1402 83.5878 76.9459C83.3936 76.7517 83.1302 76.6426 82.8555 76.6426Z" fill="#2D4356"/>
<path d="M85.9634 78.714C86.5355 78.714 86.9992 78.2503 86.9992 77.6783C86.9992 77.1063 86.5355 76.6426 85.9634 76.6426C85.3914 76.6426 84.9277 77.1063 84.9277 77.6783C84.9277 78.2503 85.3914 78.714 85.9634 78.714Z" fill="#2D4356"/>
<path d="M61.1839 80.7852H56.8815C56.6207 80.8054 56.3771 80.9233 56.1994 81.1153C56.0217 81.3073 55.923 81.5593 55.923 81.8209C55.923 82.0825 56.0217 82.3345 56.1994 82.5265C56.3771 82.7185 56.6207 82.8364 56.8815 82.8566H61.1839C61.4447 82.8364 61.6883 82.7185 61.866 82.5265C62.0437 82.3345 62.1424 82.0825 62.1424 81.8209C62.1424 81.5593 62.0437 81.3073 61.866 81.1153C61.6883 80.9233 61.4447 80.8054 61.1839 80.7852ZM30.1125 80.7852H25.8101C25.5493 80.8054 25.3057 80.9233 25.128 81.1153C24.9503 81.3073 24.8516 81.5593 24.8516 81.8209C24.8516 82.0825 24.9503 82.3345 25.128 82.5265C25.3057 82.7185 25.5493 82.8364 25.8101 82.8566H30.1125C30.3733 82.8364 30.6169 82.7185 30.7946 82.5265C30.9723 82.3345 31.071 82.0825 31.071 81.8209C31.071 81.5593 30.9723 81.3073 30.7946 81.1153C30.6169 80.9233 30.3733 80.8054 30.1125 80.7852ZM53.8541 80.7852H33.1398C32.8652 80.7852 32.6017 80.8943 32.4075 81.0885C32.2133 81.2827 32.1041 81.5462 32.1041 81.8209C32.1041 82.0956 32.2133 82.359 32.4075 82.5532C32.6017 82.7475 32.8652 82.8566 33.1398 82.8566H41.3945V83.8923H37.2827C37.008 83.8923 36.7446 84.0014 36.5503 84.1957C36.3561 84.3899 36.247 84.6533 36.247 84.928C36.247 85.2027 36.3561 85.4661 36.5503 85.6604C36.7446 85.8546 37.008 85.9637 37.2827 85.9637H50.2291C50.5038 85.9637 50.7673 85.8546 50.9615 85.6604C51.1557 85.4661 51.2648 85.2027 51.2648 84.928C51.2648 84.6533 51.1557 84.3899 50.9615 84.1957C50.7673 84.0014 50.5038 83.8923 50.2291 83.8923H45.5995V82.8566H53.8541C54.1288 82.8566 54.3923 82.7475 54.5865 82.5532C54.7807 82.359 54.8898 82.0956 54.8898 81.8209C54.8898 81.5462 54.7807 81.2827 54.5865 81.0885C54.3923 80.8943 54.1288 80.7852 53.8541 80.7852Z" fill="#0BCEB2"/>
<path d="M78.0511 76.6401H55.0272C62.3161 73.9359 68.4223 68.7554 72.2782 62.0047C76.134 55.2539 77.494 47.3625 76.1203 39.7105C74.7466 32.0585 70.7266 25.133 64.7634 20.145C58.8002 15.1569 51.2732 12.424 43.4989 12.424C35.7246 12.424 28.1977 15.1569 22.2344 20.145C16.2712 25.133 12.2513 32.0585 10.8775 39.7105C9.50384 47.3625 10.8638 55.2539 14.7197 62.0047C18.5755 68.7554 24.6818 73.9359 31.9706 76.6401H8.9467C8.79936 76.6208 8.6496 76.6332 8.50743 76.6765C8.36527 76.7197 8.23396 76.7928 8.12229 76.8908C8.01062 76.9889 7.92115 77.1096 7.85985 77.2449C7.79856 77.3803 7.76685 77.5272 7.76685 77.6758C7.76685 77.8244 7.79856 77.9713 7.85985 78.1067C7.92115 78.242 8.01062 78.3627 8.12229 78.4608C8.23396 78.5588 8.36527 78.6319 8.50743 78.6751C8.6496 78.7184 8.79936 78.7308 8.9467 78.7115H78.0511C78.1985 78.7308 78.3482 78.7184 78.4904 78.6751C78.6326 78.6319 78.7638 78.5588 78.8755 78.4608C78.9872 78.3627 79.0767 78.242 79.138 78.1067C79.1993 77.9713 79.231 77.8244 79.231 77.6758C79.231 77.5272 79.1993 77.3803 79.138 77.2449C79.0767 77.1096 78.9872 76.9889 78.8755 76.8908C78.7638 76.7928 78.6326 76.7197 78.4904 76.6765C78.3482 76.6332 78.1985 76.6208 78.0511 76.6401ZM12.4277 45.5687C12.4277 39.4233 14.25 33.416 17.6642 28.3063C21.0784 23.1966 25.9311 19.2141 31.6086 16.8624C37.2862 14.5107 43.5336 13.8954 49.5609 15.0943C55.5882 16.2932 61.1246 19.2524 65.47 23.5978C69.8154 27.9433 72.7747 33.4797 73.9736 39.5069C75.1725 45.5342 74.5572 51.7816 72.2054 57.4592C69.8537 63.1367 65.8712 67.9894 60.7615 71.4036C55.6519 74.8178 49.6445 76.6401 43.4992 76.6401C35.2614 76.6308 27.3636 73.3542 21.5386 67.5292C15.7136 61.7042 12.4371 53.8065 12.4277 45.5687ZM18.642 10.3539C18.9493 10.3539 19.2497 10.2627 19.5051 10.092C19.7606 9.92132 19.9597 9.67869 20.0773 9.39481C20.1949 9.11093 20.2257 8.79856 20.1657 8.4972C20.1058 8.19583 19.9578 7.91901 19.7406 7.70174C19.5233 7.48447 19.2465 7.33651 18.9451 7.27656C18.6437 7.21662 18.3314 7.24739 18.0475 7.36497C17.7636 7.48256 17.521 7.68168 17.3503 7.93717C17.1796 8.19265 17.0885 8.49302 17.0885 8.80028C17.0889 9.21219 17.2527 9.60711 17.5439 9.89837C17.8352 10.1896 18.2301 10.3534 18.642 10.3539ZM18.642 8.0235C18.7957 8.0235 18.9458 8.06906 19.0736 8.15441C19.2013 8.23976 19.3009 8.36108 19.3597 8.50302C19.4185 8.64496 19.4339 8.80115 19.4039 8.95183C19.3739 9.10251 19.2999 9.24092 19.1913 9.34955C19.0827 9.45819 18.9442 9.53217 18.7936 9.56214C18.6429 9.59212 18.4867 9.57673 18.3448 9.51794C18.2028 9.45915 18.0815 9.35958 17.9961 9.23184C17.9108 9.1041 17.8652 8.95392 17.8652 8.80028C17.8654 8.59431 17.9473 8.39681 18.0929 8.25116C18.2385 8.10552 18.436 8.02364 18.642 8.0235ZM84.151 9.836C83.9461 9.836 83.7459 9.89674 83.5755 10.0105C83.4052 10.1244 83.2725 10.2861 83.1941 10.4754C83.1157 10.6646 83.0952 10.8729 83.1351 11.0738C83.1751 11.2747 83.2738 11.4592 83.4186 11.6041C83.5634 11.7489 83.748 11.8476 83.9489 11.8875C84.1498 11.9275 84.3581 11.907 84.5473 11.8286C84.7366 11.7502 84.8983 11.6174 85.0121 11.4471C85.1259 11.2768 85.1867 11.0766 85.1867 10.8717C85.1864 10.5971 85.0772 10.3338 84.883 10.1397C84.6888 9.94548 84.4256 9.83627 84.151 9.836ZM84.151 11.3896C84.0485 11.3896 83.9484 11.3592 83.8633 11.3023C83.7781 11.2454 83.7117 11.1645 83.6725 11.0699C83.6333 10.9753 83.6231 10.8711 83.6431 10.7707C83.663 10.6702 83.7123 10.578 83.7848 10.5055C83.8572 10.4331 83.9495 10.3838 84.0499 10.3638C84.1504 10.3438 84.2545 10.3541 84.3491 10.3933C84.4438 10.4325 84.5246 10.4988 84.5815 10.584C84.6384 10.6692 84.6688 10.7693 84.6688 10.8717C84.6687 11.009 84.6141 11.1407 84.517 11.2377C84.4199 11.3348 84.2883 11.3894 84.151 11.3896ZM4.40095 1.5508C4.1961 1.5508 3.99586 1.61155 3.82554 1.72535C3.65521 1.83916 3.52246 2.00091 3.44407 2.19017C3.36568 2.37942 3.34517 2.58766 3.38514 2.78857C3.4251 2.98948 3.52374 3.17403 3.66859 3.31888C3.81344 3.46372 3.99798 3.56237 4.19889 3.60233C4.3998 3.64229 4.60805 3.62178 4.7973 3.54339C4.98655 3.465 5.14831 3.33225 5.26211 3.16193C5.37592 2.99161 5.43666 2.79136 5.43666 2.58652C5.43639 2.31191 5.32718 2.04863 5.13301 1.85446C4.93883 1.66028 4.67555 1.55108 4.40095 1.5508ZM4.40095 3.10437C4.29853 3.10437 4.1984 3.074 4.11324 3.0171C4.02808 2.9602 3.96171 2.87932 3.92251 2.78469C3.88332 2.69007 3.87306 2.58594 3.89304 2.48549C3.91302 2.38503 3.96235 2.29276 4.03477 2.22034C4.10719 2.14791 4.19947 2.09859 4.29992 2.07861C4.40037 2.05863 4.5045 2.06888 4.59912 2.10808C4.69375 2.14727 4.77463 2.21365 4.83153 2.29881C4.88843 2.38397 4.91881 2.48409 4.91881 2.58652C4.91867 2.72382 4.86407 2.85546 4.76698 2.95254C4.66989 3.04963 4.53825 3.10424 4.40095 3.10437ZM43.812 1.32657C43.6652 1.46948 43.5642 1.65269 43.5216 1.85303C43.479 2.05337 43.4967 2.26184 43.5726 2.45209C43.6484 2.64235 43.779 2.80583 43.9478 2.92189C44.1165 3.03795 44.3159 3.10136 44.5207 3.10411C44.7255 3.10686 44.9265 3.04883 45.0984 2.93735C45.2702 2.82586 45.4051 2.66594 45.486 2.4778C45.567 2.28965 45.5903 2.08173 45.5531 1.88032C45.5159 1.67891 45.4198 1.49305 45.277 1.34625C45.0852 1.14954 44.8232 1.03699 44.5485 1.0333C44.2738 1.02961 44.0089 1.13509 43.812 1.32657ZM44.8953 2.43996C44.8219 2.51136 44.7289 2.55938 44.6282 2.57794C44.5275 2.5965 44.4235 2.58478 44.3294 2.54425C44.2354 2.50372 44.1554 2.43621 44.0997 2.35025C44.044 2.26429 44.0151 2.16375 44.0165 2.06133C44.018 1.95892 44.0498 1.85924 44.1079 1.77489C44.166 1.69054 44.2478 1.62531 44.3429 1.58746C44.4381 1.54961 44.5424 1.54083 44.6425 1.56224C44.7427 1.58364 44.8343 1.63427 44.9057 1.70771C45.0013 1.80626 45.0539 1.9387 45.0519 2.07598C45.05 2.21326 44.9937 2.34416 44.8953 2.43996Z" fill="#2D4356"/>
<path d="M32.1085 10.5318C32.1085 10.327 32.0478 10.1267 31.934 9.9564C31.8202 9.78607 31.6584 9.65332 31.4692 9.57493C31.2799 9.49654 31.0717 9.47603 30.8708 9.516C30.6699 9.55596 30.4853 9.6546 30.3405 9.79945C30.1956 9.9443 30.097 10.1288 30.057 10.3298C30.017 10.5307 30.0376 10.7389 30.1159 10.9282C30.1943 11.1174 30.3271 11.2792 30.4974 11.393C30.6677 11.5068 30.868 11.5675 31.0728 11.5675C31.3474 11.5672 31.6107 11.458 31.8049 11.2639C31.9991 11.0697 32.1083 10.8064 32.1085 10.5318ZM30.555 10.5318C30.555 10.4294 30.5853 10.3293 30.6422 10.2441C30.6991 10.1589 30.78 10.0926 30.8746 10.0534C30.9693 10.0142 31.0734 10.0039 31.1739 10.0239C31.2743 10.0439 31.3666 10.0932 31.439 10.1656C31.5114 10.2381 31.5607 10.3303 31.5807 10.4308C31.6007 10.5312 31.5905 10.6354 31.5513 10.73C31.5121 10.8246 31.4457 10.9055 31.3605 10.9624C31.2754 11.0193 31.1752 11.0497 31.0728 11.0497C30.9355 11.0495 30.8039 10.9949 30.7068 10.8978C30.6097 10.8007 30.5551 10.6691 30.555 10.5318Z" fill="#2D4356"/>
<path d="M6.94987 20.9962L7.71993 19.9838L7.23366 19.7083L6.73962 20.8424H6.72305L6.22125 19.716L5.72618 19.9998L6.48846 20.9884V21.0045L5.29688 20.8507V21.4017L6.49623 21.2479V21.2639L5.72618 22.252L6.18811 22.5441L6.71529 21.4017H6.73082L7.21709 22.5358L7.7277 22.2442L6.94987 21.2717V21.2556L8.17305 21.4017V20.8507L6.94987 21.0122V20.9962ZM56.8293 11.6452L56.3861 12.2144L56.6522 12.3822L56.9557 11.7245H56.9645L57.2447 12.3775L57.5388 12.2097L57.0909 11.6499V11.6406L57.7952 11.7245V11.407L57.0909 11.5002V11.4909L57.5342 10.9078L57.2545 10.7493L56.9697 11.4024H56.9604L56.6709 10.754L56.3861 10.9171L56.8252 11.4863V11.4961L56.139 11.407V11.7245L56.8293 11.6359V11.6452ZM72.4852 3.77796V3.23783L71.2853 3.39681V3.38076L72.0409 2.38751L71.5639 2.11719L71.0792 3.22954H71.0632L70.5707 2.12496L70.0849 2.40304L70.8327 3.37299V3.38904L69.6639 3.23783V3.77796L70.8405 3.62726V3.64331L70.0849 4.61274L70.5381 4.89912L71.0554 3.77796H71.0709L71.5474 4.89083L72.0486 4.60497L71.2853 3.65108V3.63503L72.4852 3.77796ZM72.4733 21.0164L73.1248 20.1593L72.7136 19.9263L72.2952 20.8859H72.2812L71.8565 19.933L71.4381 20.1733L72.0828 21.0097V21.0231L71.0746 20.8931V21.3592L72.0896 21.2292V21.2427L71.4381 22.079L71.8286 22.326L72.275 21.3592H72.2879L72.6996 22.3188L73.1315 22.0723L72.4733 21.2494V21.236L73.5085 21.3592V20.8931L72.4733 21.0299V21.0164Z" fill="#0BCEB2"/>
</svg>
