<svg width="74" height="75" viewBox="0 0 74 75" fill="none" xmlns="http://www.w3.org/2000/svg">
<g clip-path="url(#clip0_380_831)">
<path d="M27.0411 26.5413C27.3619 29.1533 27.9901 32.2749 29.6622 34.7291C29.0161 35.1155 27.6579 36.2148 26.6879 38.9983C25.2357 39.5762 19.9771 41.6797 16.5213 43.1986C14.2931 44.1778 12.914 47.0906 12.914 49.2366L12.9607 53.7975H14.7227L14.6759 49.2276C14.6759 47.673 15.7681 45.4541 17.2302 44.8116C19.5898 43.7745 22.8021 42.4605 25.0479 41.554L22.1214 45.7306C21.9923 45.9148 21.9386 46.1414 21.9712 46.364C22.0039 46.5865 22.1204 46.7882 22.2969 46.9275L24.4257 48.6079L21.9072 52.1085C21.7947 52.2651 21.7367 52.4542 21.742 52.6468C21.7472 52.8395 21.8156 53.0252 21.9364 53.1753L22.4373 53.7975H24.6987L23.7293 52.5931L26.3481 48.9529C26.4805 48.7687 26.5367 48.5406 26.5052 48.316C26.4736 48.0914 26.3566 47.8876 26.1786 47.747L24.0416 46.0602L28.0747 40.3041C28.1442 40.2047 28.1923 40.0921 28.216 39.9732C28.2215 39.9587 28.2301 39.9459 28.2348 39.9311C28.4399 39.2636 28.713 38.6189 29.0497 38.0071C28.2985 43.2534 28.4095 48.5871 29.3784 53.7975H31.1767C30.5923 50.838 30.3122 47.8264 30.3407 44.8098C30.9841 44.5616 31.5297 44.1116 31.8958 43.5272C32.3597 42.887 32.9168 42.3198 33.5485 41.8445L34.8212 44.489C34.8403 44.522 34.8615 44.5537 34.8847 44.5838L32.7196 53.7975H34.5291L36.5995 44.988H37.4037L39.4693 53.7975H41.2746L39.1186 44.5866C39.1425 44.5556 39.1643 44.523 39.1838 44.489L40.4565 41.8445C41.0883 42.3198 41.6454 42.887 42.1093 43.5272C42.4759 44.1124 43.0225 44.5628 43.667 44.8107C43.6952 47.827 43.4144 50.8383 42.8292 53.7975H44.6267C45.5956 48.5866 45.7066 43.2524 44.9552 38.0058C45.292 38.618 45.5651 39.2632 45.7704 39.9311C45.7751 39.946 45.7836 39.9588 45.7891 39.9733C45.8128 40.0921 45.8609 40.2048 45.9304 40.3041L49.9635 46.0602L47.8265 47.747C47.6485 47.8876 47.5315 48.0914 47.4999 48.316C47.4684 48.5406 47.5246 48.7687 47.657 48.9529L50.2758 52.5931L49.3064 53.7975H51.5678L52.0686 53.1753C52.1895 53.0252 52.2578 52.8395 52.2631 52.6469C52.2684 52.4542 52.2104 52.2651 52.0979 52.1085L49.5793 48.6079L51.7082 46.9276C51.8847 46.7882 52.0012 46.5865 52.0338 46.364C52.0665 46.1414 52.0127 45.9148 51.8837 45.7307L48.9572 41.554C51.2029 42.4604 54.4151 43.7743 56.7749 44.8116C58.237 45.4541 59.3292 47.673 59.3292 49.2185L59.2823 53.7975H61.0444L61.0911 49.2276C61.0911 47.0906 59.712 44.1778 57.4838 43.1986C54.028 41.6797 48.7694 39.5762 47.3172 38.9983C46.3631 36.2605 45.0333 35.1519 44.375 34.7484C45.9884 32.3729 46.6214 29.3252 46.9632 26.5413C47.026 26.0299 47.0995 25.5161 47.1731 25.002C47.6557 21.6264 48.1547 18.1357 45.7888 15.0769C43.7559 12.4455 41.2137 10.9638 38.2328 10.6728C37.3955 10.6143 36.5541 10.617 35.7172 10.6807C32.7264 10.9838 30.2732 12.4216 28.2171 15.0765C25.8504 18.137 26.3494 21.6294 26.832 25.0068C26.9051 25.5193 26.9787 26.0316 27.0411 26.5413ZM32.6154 40.3387C31.8006 40.9305 31.0842 41.647 30.4926 42.4619L30.4032 42.5792C30.5011 40.5106 30.736 38.4508 31.1064 36.4133C31.2292 36.5259 31.3559 36.6355 31.4864 36.7419C31.7826 37.9467 32.3077 39.0834 33.0331 40.0899C32.8862 40.1591 32.7463 40.2424 32.6154 40.3387ZM37.8366 43.2261H36.1685L35.3206 41.4642H38.6844L37.8366 43.2261ZM39.0706 39.7023H34.9347C34.5532 39.214 34.2122 38.6954 33.9151 38.1516C34.6635 38.4403 35.4418 38.6442 36.2356 38.7596C36.4893 38.7998 36.7457 38.8205 37.0025 38.8215C37.2904 38.8196 37.5777 38.7946 37.8616 38.7467C38.6205 38.6297 39.3652 38.4338 40.0835 38.1623C39.7881 38.7022 39.4494 39.2173 39.0706 39.7023ZM43.5125 42.4619C42.9211 41.6473 42.205 40.931 41.3905 40.3393C41.2593 40.2429 41.1191 40.1595 40.9718 40.0901C41.6867 39.0963 42.2078 37.9766 42.5077 36.7896C42.6449 36.6799 42.7777 36.5667 42.9063 36.4501C43.2729 38.4718 43.506 40.5154 43.604 42.5678C43.5617 42.5199 43.5242 42.4774 43.5125 42.4619ZM29.6104 16.1549C31.3547 13.9026 33.4104 12.6855 35.897 12.4334C36.1564 12.4063 36.6046 12.3925 37.0438 12.3925C37.4383 12.3925 37.8254 12.4037 38.0616 12.4265C40.5745 12.6717 42.6461 13.891 44.3947 16.1544C46.305 18.6242 45.8796 21.601 45.4288 24.7525C45.3535 25.2782 45.2787 25.8036 45.2142 26.3267C44.3831 33.0988 42.102 36.2927 37.585 37.0065C37.2259 37.0733 36.8579 37.0769 36.4975 37.0173C31.9926 36.3426 29.6155 33.0454 28.7901 26.3267C28.726 25.8053 28.6512 25.2816 28.5763 24.7575C28.1259 21.604 27.7001 18.6255 29.6104 16.1549Z" fill="#2D4356"/>
<path d="M0.880952 67.0119C1.36749 67.0119 1.7619 66.6175 1.7619 66.131C1.7619 65.6444 1.36749 65.25 0.880952 65.25C0.394416 65.25 0 65.6444 0 66.131C0 66.6175 0.394416 67.0119 0.880952 67.0119Z" fill="#2D4356"/>
<path d="M4.84301 65.25H3.52158C3.28793 65.25 3.06386 65.3428 2.89865 65.508C2.73344 65.6732 2.64063 65.8973 2.64062 66.131C2.64063 66.3646 2.73344 66.5887 2.89865 66.7539C3.06386 66.9191 3.28793 67.0119 3.52158 67.0119H4.84301C5.07665 67.0119 5.30072 66.9191 5.46593 66.7539C5.63114 66.5887 5.72396 66.3646 5.72396 66.131C5.72396 65.8973 5.63114 65.6732 5.46593 65.508C5.30072 65.3428 5.07665 65.25 4.84301 65.25ZM70.474 65.25H69.1525C68.9189 65.25 68.6948 65.3428 68.5296 65.508C68.3644 65.6732 68.2716 65.8973 68.2716 66.131C68.2716 66.3646 68.3644 66.5887 68.5296 66.7539C68.6948 66.9191 68.9189 67.0119 69.1525 67.0119H70.474C70.7076 67.0119 70.9317 66.9191 71.0969 66.7539C71.2621 66.5887 71.3549 66.3646 71.3549 66.131C71.3549 65.8973 71.2621 65.6732 71.0969 65.508C70.9317 65.3428 70.7076 65.25 70.474 65.25Z" fill="#2D4356"/>
<path d="M73.1192 67.0119C73.6058 67.0119 74.0002 66.6175 74.0002 66.131C74.0002 65.6444 73.6058 65.25 73.1192 65.25C72.6327 65.25 72.2383 65.6444 72.2383 66.131C72.2383 66.6175 72.6327 67.0119 73.1192 67.0119Z" fill="#2D4356"/>
<path d="M52.0417 68.7734H48.3824C48.1609 68.7912 47.9543 68.8917 47.8036 69.0549C47.6529 69.2182 47.5692 69.4322 47.5692 69.6544C47.5692 69.8766 47.6529 70.0906 47.8036 70.2538C47.9543 70.4171 48.1609 70.5176 48.3824 70.5353H52.0417C52.2632 70.5176 52.4699 70.4171 52.6206 70.2538C52.7713 70.0906 52.8549 69.8766 52.8549 69.6544C52.8549 69.4322 52.7713 69.2182 52.6206 69.0549C52.4699 68.8917 52.2632 68.7912 52.0417 68.7734ZM25.6132 68.7734H21.9538C21.7324 68.7912 21.5257 68.8917 21.375 69.0549C21.2243 69.2182 21.1406 69.4322 21.1406 69.6544C21.1406 69.8766 21.2243 70.0906 21.375 70.2538C21.5257 70.4171 21.7324 70.5176 21.9538 70.5353H25.6132C25.8346 70.5176 26.0413 70.4171 26.192 70.2538C26.3427 70.0906 26.4264 69.8766 26.4264 69.6544C26.4264 69.4322 26.3427 69.2182 26.192 69.0549C26.0413 68.8917 25.8346 68.7912 25.6132 68.7734ZM45.8073 68.7734H28.1883C27.9546 68.7734 27.7305 68.8663 27.5653 69.0315C27.4001 69.1967 27.3073 69.4207 27.3073 69.6544C27.3073 69.888 27.4001 70.1121 27.5653 70.2773C27.7305 70.4425 27.9546 70.5353 28.1883 70.5353H35.2094V71.4163H31.7121C31.4784 71.4163 31.2543 71.5091 31.0891 71.6743C30.9239 71.8395 30.8311 72.0636 30.8311 72.2972C30.8311 72.5309 30.9239 72.755 31.0891 72.9202C31.2543 73.0854 31.4784 73.1782 31.7121 73.1782H42.724C42.9576 73.1782 43.1817 73.0854 43.3469 72.9202C43.5121 72.755 43.6049 72.5309 43.6049 72.2972C43.6049 72.0636 43.5121 71.8395 43.3469 71.6743C43.1817 71.5091 42.9576 71.4163 42.724 71.4163H38.7861V70.5353H45.8073C46.0409 70.5353 46.265 70.4425 46.4302 70.2773C46.5954 70.1121 46.6883 69.888 46.6883 69.6544C46.6883 69.4207 46.5954 69.1967 46.4302 69.0315C46.265 68.8663 46.0409 68.7734 45.8073 68.7734Z" fill="#0BCEB2"/>
<path d="M66.3908 65.2505H62.1843V60.8457H60.4224V65.2505H13.5117V60.8457H11.7498V65.2505H7.61369C7.4883 65.234 7.36085 65.2445 7.23984 65.2812C7.11883 65.3179 7.00705 65.3801 6.91198 65.4635C6.81691 65.5468 6.74074 65.6496 6.68855 65.7648C6.63637 65.88 6.60938 66.005 6.60938 66.1314C6.60938 66.2579 6.63637 66.3829 6.68855 66.4981C6.74074 66.6133 6.81691 66.716 6.91198 66.7994C7.00705 66.8828 7.11883 66.9449 7.23984 66.9816C7.36085 67.0184 7.4883 67.0288 7.61369 67.0124H66.3908C66.5162 67.0288 66.6437 67.0184 66.7647 66.9816C66.8857 66.9449 66.9975 66.8828 67.0925 66.7994C67.1876 66.716 67.2638 66.6133 67.316 66.4981C67.3681 66.3829 67.3951 66.2579 67.3951 66.1314C67.3951 66.005 67.3681 65.88 67.316 65.7648C67.2638 65.6496 67.1876 65.5468 67.0925 65.4635C66.9975 65.3801 66.8857 65.3179 66.7647 65.2812C66.6437 65.2445 66.5162 65.234 66.3908 65.2505Z" fill="#2D4356"/>
<path d="M64.3086 55.5596H9.68955C9.45611 55.5603 9.23244 55.6533 9.06738 55.8184C8.90232 55.9834 8.80928 56.2071 8.80859 56.4405V59.9643C8.80928 60.1978 8.90232 60.4214 9.06738 60.5865C9.23244 60.7516 9.45611 60.8446 9.68955 60.8453H64.3086C64.542 60.8446 64.7657 60.7516 64.9308 60.5865C65.0958 60.4214 65.1889 60.1978 65.1895 59.9643V56.4405C65.1889 56.2071 65.0958 55.9834 64.9308 55.8184C64.7657 55.6533 64.542 55.5603 64.3086 55.5596ZM63.4276 59.0834H10.5705V57.3215H63.4276V59.0834Z" fill="#0BCEB2"/>
<path d="M36.9217 5.39558C37.183 5.39558 37.4385 5.31808 37.6558 5.17288C37.8731 5.02768 38.0425 4.8213 38.1425 4.57984C38.2425 4.33838 38.2687 4.07269 38.2177 3.81636C38.1667 3.56002 38.0409 3.32457 37.8561 3.13976C37.6713 2.95496 37.4358 2.8291 37.1795 2.77812C36.9232 2.72713 36.6575 2.7533 36.416 2.85331C36.1745 2.95333 35.9682 3.1227 35.823 3.34001C35.6778 3.55731 35.6003 3.8128 35.6003 4.07415C35.6007 4.42449 35.74 4.76037 35.9877 5.0081C36.2355 5.25583 36.5713 5.39518 36.9217 5.39558ZM36.9217 3.41344C37.0524 3.41344 37.1801 3.45219 37.2888 3.52479C37.3974 3.59739 37.4821 3.70058 37.5321 3.82131C37.5821 3.94204 37.5952 4.07489 37.5697 4.20305C37.5442 4.33122 37.4813 4.44895 37.3889 4.54135C37.2965 4.63375 37.1788 4.69668 37.0506 4.72217C36.9224 4.74767 36.7896 4.73458 36.6688 4.68457C36.5481 4.63457 36.4449 4.54988 36.3723 4.44123C36.2997 4.33257 36.261 4.20483 36.261 4.07415C36.2611 3.89897 36.3308 3.73102 36.4547 3.60715C36.5786 3.48328 36.7465 3.41361 36.9217 3.41344ZM17.3166 1.82129C17.1424 1.82129 16.9721 1.87296 16.8272 1.96976C16.6823 2.06656 16.5694 2.20414 16.5027 2.36512C16.4361 2.52609 16.4186 2.70322 16.4526 2.87411C16.4866 3.04499 16.5705 3.20197 16.6937 3.32517C16.8169 3.44837 16.9739 3.53227 17.1448 3.56627C17.3156 3.60026 17.4928 3.58281 17.6537 3.51614C17.8147 3.44946 17.9523 3.33654 18.0491 3.19167C18.1459 3.0468 18.1976 2.87648 18.1976 2.70224C18.1973 2.46868 18.1044 2.24476 17.9393 2.07961C17.7741 1.91446 17.5502 1.82156 17.3166 1.82129ZM17.3166 3.14272C17.2295 3.14272 17.1443 3.11688 17.0719 3.06848C16.9995 3.02008 16.943 2.95129 16.9097 2.8708C16.8763 2.79032 16.8676 2.70175 16.8846 2.61631C16.9016 2.53086 16.9436 2.45238 17.0052 2.39078C17.0668 2.32918 17.1452 2.28722 17.2307 2.27023C17.3161 2.25323 17.4047 2.26196 17.4852 2.29529C17.5657 2.32863 17.6345 2.38509 17.6829 2.45753C17.7313 2.52996 17.7571 2.61512 17.7571 2.70224C17.757 2.81903 17.7105 2.931 17.628 3.01358C17.5454 3.09616 17.4334 3.1426 17.3166 3.14272ZM61.5898 3.1932C61.4156 3.1932 61.2453 3.24487 61.1004 3.34167C60.9555 3.43847 60.8426 3.57605 60.7759 3.73703C60.7092 3.898 60.6918 4.07513 60.7258 4.24602C60.7598 4.41691 60.8437 4.57388 60.9669 4.69708C61.0901 4.82028 61.2471 4.90419 61.4179 4.93818C61.5888 4.97217 61.766 4.95472 61.9269 4.88805C62.0879 4.82137 62.2255 4.70846 62.3223 4.56358C62.4191 4.41871 62.4708 4.24839 62.4708 4.07415C62.4705 3.84059 62.3776 3.61667 62.2124 3.45152C62.0473 3.28637 61.8234 3.19347 61.5898 3.1932ZM61.5898 4.51463C61.5027 4.51463 61.4175 4.4888 61.3451 4.4404C61.2727 4.392 61.2162 4.3232 61.1829 4.24272C61.1495 4.16223 61.1408 4.07366 61.1578 3.98822C61.1748 3.90278 61.2167 3.82429 61.2783 3.76269C61.34 3.70109 61.4184 3.65914 61.5039 3.64214C61.5893 3.62514 61.6779 3.63387 61.7584 3.66721C61.8389 3.70054 61.9077 3.757 61.9561 3.82944C62.0045 3.90187 62.0303 3.98704 62.0303 4.07415C62.0302 4.19094 61.9837 4.30291 61.9011 4.38549C61.8186 4.46807 61.7066 4.51451 61.5898 4.51463ZM48.9375 9.08412C48.7633 9.08412 48.5929 9.13579 48.4481 9.23259C48.3032 9.32939 48.1903 9.46697 48.1236 9.62795C48.0569 9.78892 48.0395 9.96605 48.0735 10.1369C48.1075 10.3078 48.1914 10.4648 48.3146 10.588C48.4378 10.7112 48.5947 10.7951 48.7656 10.8291C48.9365 10.8631 49.1137 10.8456 49.2746 10.779C49.4356 10.7123 49.5732 10.5994 49.67 10.4545C49.7668 10.3096 49.8185 10.1393 49.8185 9.96507C49.8182 9.73151 49.7253 9.50759 49.5601 9.34244C49.395 9.17729 49.1711 9.08439 48.9375 9.08412ZM48.9375 10.4055C48.8504 10.4055 48.7652 10.3797 48.6928 10.3313C48.6204 10.2829 48.5639 10.2141 48.5306 10.1336C48.4972 10.0531 48.4885 9.96458 48.5055 9.87914C48.5225 9.7937 48.5644 9.71521 48.626 9.65361C48.6876 9.59201 48.7661 9.55006 48.8516 9.53306C48.937 9.51606 49.0256 9.52479 49.1061 9.55813C49.1866 9.59146 49.2553 9.64792 49.3037 9.72036C49.3521 9.79279 49.378 9.87796 49.378 9.96507C49.3779 10.0819 49.3314 10.1938 49.2488 10.2764C49.1663 10.359 49.0543 10.4054 48.9375 10.4055ZM3.4455 5.56534C3.4455 5.3911 3.39383 5.22078 3.29703 5.07591C3.20023 4.93103 3.06265 4.81812 2.90167 4.75144C2.7407 4.68477 2.56357 4.66732 2.39268 4.70131C2.22179 4.7353 2.06482 4.81921 1.94162 4.94241C1.81842 5.06561 1.73451 5.22258 1.70052 5.39347C1.66653 5.56436 1.68398 5.74149 1.75065 5.90246C1.81733 6.06344 1.93024 6.20102 2.07512 6.29782C2.21999 6.39462 2.39031 6.44629 2.56455 6.44629C2.79811 6.44602 3.02203 6.35312 3.18718 6.18797C3.35233 6.02282 3.44523 5.7989 3.4455 5.56534ZM2.12407 5.56534C2.12407 5.47822 2.1499 5.39306 2.1983 5.32062C2.2467 5.24819 2.3155 5.19173 2.39598 5.15839C2.47647 5.12505 2.56504 5.11633 2.65048 5.13332C2.73592 5.15032 2.81441 5.19227 2.87601 5.25387C2.93761 5.31547 2.97956 5.39396 2.99656 5.4794C3.01356 5.56485 3.00483 5.65341 2.97149 5.7339C2.93815 5.81439 2.8817 5.88318 2.80926 5.93158C2.73683 5.97998 2.65166 6.00581 2.56455 6.00581C2.44776 6.0057 2.33579 5.95925 2.25321 5.87667C2.17063 5.79409 2.12419 5.68212 2.12407 5.56534Z" fill="#2D4356"/>
<path d="M20.5158 10.2957L21.1704 9.43409L20.7572 9.2002L20.3365 10.1644H20.3224L19.8956 9.2068L19.475 9.44818L20.1229 10.2891V10.3027L19.1094 10.1714V10.6401L20.1295 10.5093V10.5234L19.475 11.3638L19.8674 11.6122L20.3158 10.6401H20.3295L20.7431 11.6052L21.1774 11.3572L20.5158 10.53V10.5163L21.5562 10.6401V10.1714L20.5158 10.3093V10.2957Z" fill="#0BCEB2"/>
<path d="M6.82197 19.9476L6.44492 20.4317L6.67089 20.5748L6.92901 20.015H6.93693L7.17523 20.5708L7.42542 20.4277L7.04441 19.9515V19.9436L7.64346 20.015V19.7454L7.04441 19.8247V19.8167L7.42146 19.3208L7.18316 19.1855L6.94134 19.741H6.93297L6.68718 19.1895L6.44492 19.3283L6.81801 19.8128V19.8207L6.23438 19.7454V20.015L6.82197 19.9396V19.9476Z" fill="#0BCEB2"/>
<path d="M62.7908 17.811V17.3512L61.7702 17.4864V17.4728L62.4124 16.6279L62.0067 16.3984L61.5944 17.3446H61.5808L61.1619 16.405L60.7492 16.6416L61.3848 17.4662V17.4798L60.3906 17.3512V17.811L61.3914 17.6829V17.6961L60.7492 18.5207L61.1342 18.7642L61.5742 17.811H61.5874L61.9931 18.7572L62.419 18.514L61.7702 17.7027V17.6895L62.7908 17.811Z" fill="#0BCEB2"/>
<path d="M71.4319 8.1147L71.986 7.38571L71.6363 7.1875L71.2808 8.0037H71.2689L70.9073 7.19323L70.5514 7.39761L71.0998 8.10898V8.12043L70.2422 8.00987V8.4063L71.1055 8.29574V8.30719L70.5514 9.01856L70.8835 9.22867L71.2632 8.4063H71.2747L71.6244 9.2225L71.9918 9.01283L71.4319 8.31292V8.30146L72.3124 8.4063V8.00987L71.4319 8.12615V8.1147Z" fill="#0BCEB2"/>
<path d="M36.9996 38.8216C36.7428 38.8206 36.4864 38.7999 36.2327 38.7597C29.2078 37.7075 27.6206 31.2826 27.0382 26.5414C26.9758 26.0317 26.9022 25.5194 26.8291 25.0068C26.3465 21.6295 25.8475 18.1371 28.2142 15.0766C30.2703 12.4217 32.7235 10.9839 35.7143 10.6808C36.5513 10.617 37.3917 10.6143 38.229 10.6729H38.2299C41.2109 10.9639 43.7531 12.4455 45.786 15.077C48.1518 18.1358 47.6528 21.6265 47.1702 25.0021C47.0966 25.5161 47.0231 26.03 46.9603 26.5414C46.3327 31.6533 44.7312 37.6606 37.8587 38.7468C37.5748 38.7947 37.2875 38.8197 36.9996 38.8216ZM37.0409 12.3926C36.6017 12.3926 36.1535 12.4064 35.8941 12.4335C33.4074 12.6855 31.3517 13.9027 29.6075 16.1549C27.6972 18.6255 28.123 21.6041 28.5734 24.7576C28.6482 25.2817 28.7231 25.8054 28.7872 26.3267C29.6126 33.0455 31.9896 36.3426 36.4946 37.0173C36.8549 37.0771 37.223 37.0735 37.582 37.0066C42.0991 36.2927 44.3802 33.0989 45.2112 26.3268C45.2757 25.8037 45.3506 25.2783 45.4259 24.7526C45.8767 21.6011 46.3021 18.6242 44.3918 16.1545C42.6432 13.8911 40.5716 12.6718 38.0586 12.4266C37.8225 12.4038 37.4354 12.3926 37.0409 12.3926Z" fill="#0BCEB2"/>
</g>
<defs>
<clipPath id="clip0_380_831">
<rect width="74" height="74" fill="white" transform="translate(0 0.5)"/>
</clipPath>
</defs>
</svg>
