<svg width="30" height="30" viewBox="0 0 30 30" fill="none" xmlns="http://www.w3.org/2000/svg">
<g clip-path="url(#clip0_2350_133)">
<path fill-rule="evenodd" clip-rule="evenodd" d="M14.1473 3.78285C14.4286 3.76176 14.7131 3.75098 15 3.75098C21.2091 3.75098 26.25 8.79191 26.25 15.001C26.25 21.21 21.2091 26.251 15 26.251C8.79094 26.251 3.75 21.21 3.75 15.001C3.75 14.7141 3.76078 14.4296 3.78187 14.1483C4.18312 19.0838 8.32078 22.9697 13.3594 22.9697C18.6628 22.9697 22.9688 18.6638 22.9688 13.3604C22.9688 8.32176 19.0828 4.1841 14.1473 3.78285Z" fill="#43CC88"/>
<path fill-rule="evenodd" clip-rule="evenodd" d="M15.4688 11.7197C15.7275 11.7197 15.9375 11.5097 15.9375 11.251V10.3135C15.9375 10.0547 15.7275 9.84473 15.4688 9.84473H14.5312C14.2725 9.84473 14.0625 10.0547 14.0625 10.3135V11.251C14.0625 11.5097 14.2725 11.7197 14.5312 11.7197H15.4688Z" fill="#002E62"/>
<path fill-rule="evenodd" clip-rule="evenodd" d="M15.4688 20.1572C15.7275 20.1572 15.9375 19.947 15.9375 19.688V13.5943C15.9375 13.3353 15.7275 13.125 15.4688 13.125H14.5312C14.2725 13.125 14.0625 13.3353 14.0625 13.5943V19.688C14.0625 19.947 14.2725 20.1572 14.5312 20.1572H15.4688Z" fill="#002E62"/>
<path fill-rule="evenodd" clip-rule="evenodd" d="M22.2896 22.2929C18.2652 26.3173 11.7302 26.3173 7.7058 22.2929C3.68139 18.2685 3.6814 11.7335 7.70581 7.70908C11.7302 3.68467 18.2652 3.68466 22.2896 7.70907C25.4621 10.8815 26.1343 15.6139 24.305 19.447C24.0819 19.9143 24.2803 20.474 24.7469 20.6971C25.2138 20.9199 25.7743 20.7214 25.997 20.2544C28.1584 15.7249 27.3649 10.1322 23.6157 6.38299C18.8594 1.62672 11.136 1.62672 6.37971 6.38298C1.62345 11.1392 1.62345 18.8627 6.37972 23.619C11.136 28.3752 18.8594 28.3752 23.6157 23.619C23.9816 23.253 23.9816 22.6588 23.6157 22.2929C23.2498 21.927 22.6555 21.927 22.2896 22.2929Z" fill="#002E62"/>
</g>
<defs>
<clipPath id="clip0_2350_133">
<rect width="30" height="30" fill="white"/>
</clipPath>
</defs>
</svg>
