<svg width="30" height="30" viewBox="0 0 30 30" fill="none" xmlns="http://www.w3.org/2000/svg">
<path opacity="0.3" fill-rule="evenodd" clip-rule="evenodd" d="M15.8375 2.77105L26.4625 8.70855C26.7744 8.86427 27.0367 9.10385 27.22 9.40039C27.4033 9.69693 27.5002 10.0387 27.5 10.3873V12.1873C27.5 13.0498 26.8 13.7498 25.9375 13.7498H25V23.7498H26.25C26.5815 23.7498 26.8995 23.8815 27.1339 24.1159C27.3683 24.3503 27.5 24.6683 27.5 24.9998C27.5 25.3313 27.3683 25.6493 27.1339 25.8837C26.8995 26.1181 26.5815 26.2498 26.25 26.2498H3.75C3.41848 26.2498 3.10054 26.1181 2.86612 25.8837C2.6317 25.6493 2.5 25.3313 2.5 24.9998C2.5 24.6683 2.6317 24.3503 2.86612 24.1159C3.10054 23.8815 3.41848 23.7498 3.75 23.7498H5V13.7498H4.0625C3.2 13.7498 2.5 13.0498 2.5 12.1873V10.3873C2.5 9.73481 2.8375 9.1348 3.3825 8.7948L14.1613 2.77105C14.6888 2.5073 15.31 2.5073 15.8375 2.77105Z" fill="#002E62"/>
<path fill-rule="evenodd" clip-rule="evenodd" d="M15 7.5C14.6685 7.5 14.3505 7.6317 14.1161 7.86612C13.8817 8.10054 13.75 8.41848 13.75 8.75C13.75 9.08152 13.8817 9.39946 14.1161 9.63388C14.3505 9.8683 14.6685 10 15 10C15.3315 10 15.6495 9.8683 15.8839 9.63388C16.1183 9.39946 16.25 9.08152 16.25 8.75C16.25 8.41848 16.1183 8.10054 15.8839 7.86612C15.6495 7.6317 15.3315 7.5 15 7.5ZM21.25 13.75H8.75V23.75H11.25V16.25H13.75V23.75H16.25V16.25H18.75V23.75H21.25V13.75Z" fill="#002E62"/>
</svg>
