<svg width="74" height="74" viewBox="0 0 74 74" fill="none" xmlns="http://www.w3.org/2000/svg">
<g clip-path="url(#clip0_712_938)">
<path d="M61.1848 28.8957L55.3365 26.0156V25.4341C56.2533 23.9778 56.6245 22.1566 56.8244 20.4856C56.861 20.1799 56.9035 19.873 56.9463 19.5657C57.2234 17.576 57.5371 15.3209 56.0718 13.3775C55.5387 12.6077 54.8465 11.9612 54.0421 11.4819C53.2377 11.0025 52.3398 10.7013 51.409 10.5987L51.4075 10.5985C50.8935 10.5607 50.3773 10.5623 49.8635 10.6032C48.9393 10.7102 48.0486 11.0129 47.2507 11.4912C46.4528 11.9695 45.766 12.6124 45.2361 13.3771C43.7704 15.3211 44.0844 17.5766 44.3614 19.5667C44.4042 19.8737 44.447 20.1804 44.4834 20.4856C44.6668 22.0239 45.0236 23.8441 45.9332 25.3322V26.0178L43.0224 27.4594C42.9132 26.5057 42.5523 25.5981 41.9767 24.8299C41.4435 24.0601 40.7513 23.4136 39.9469 22.9342C39.1425 22.4549 38.2446 22.1537 37.3138 22.0511L37.3123 22.0509C36.7983 22.0133 36.2821 22.0149 35.7683 22.0556C34.8442 22.1626 33.9534 22.4653 33.1555 22.9436C32.3576 23.4219 31.6708 24.0648 31.1409 24.8294C30.6445 25.4884 30.3082 26.2539 30.1585 27.0652L28.0271 26.0156V25.4341C28.9439 23.9778 29.3151 22.1566 29.515 20.4856C29.5515 20.1799 29.5941 19.873 29.6369 19.5657C29.9139 17.576 30.2277 15.3209 28.7624 13.3775C28.2293 12.6077 27.5371 11.9612 26.7327 11.4819C25.9283 11.0025 25.0304 10.7013 24.0996 10.5987L24.0981 10.5985C23.584 10.5607 23.0679 10.5623 22.5541 10.6032C21.6299 10.7102 20.7392 11.0129 19.9413 11.4912C19.1434 11.9695 18.4566 12.6124 17.9267 13.3771C16.461 15.3211 16.775 17.5766 17.052 19.5667C17.0948 19.8737 17.1376 20.1804 17.1739 20.4856C17.3574 22.0239 17.7142 23.8441 18.6238 25.3322V26.0178L12.8075 28.8985C12.3935 29.106 8.76342 31.0049 8.80902 33.7306V39.2021C8.80902 39.4358 8.90183 39.6599 9.06704 39.8251C9.23226 39.9903 9.45633 40.0831 9.68997 40.0831C9.92362 40.0831 10.1477 39.9903 10.3129 39.8251C10.4781 39.6599 10.5709 39.4358 10.5709 39.2021L10.5707 33.716C10.5475 32.3268 12.8051 30.8729 13.5931 30.4754L18.6233 27.9842V29.26C18.6234 29.4575 18.6897 29.6493 18.8117 29.8046L22.6291 34.6591C22.7115 34.7639 22.8166 34.8486 22.9365 34.9068C23.0564 34.9651 23.1879 34.9954 23.3212 34.9955C23.4544 34.9955 23.5863 34.9653 23.7061 34.9072C23.826 34.849 23.9311 34.7645 24.0136 34.6599L27.8397 29.8052C27.9622 29.6499 28.0288 29.4578 28.0288 29.26V27.9805L30.0462 28.9739C30.08 29.6707 30.1744 30.3596 30.2662 31.0191C30.309 31.326 30.3518 31.6327 30.3882 31.9379C30.5716 33.4763 30.9284 35.2965 31.838 36.7846V37.4702L26.0217 40.3509C25.6077 40.5584 21.9777 42.4573 22.0233 45.183V50.6545C22.0233 50.8882 22.1161 51.1122 22.2813 51.2774C22.4465 51.4427 22.6706 51.5355 22.9042 51.5355C23.1378 51.5355 23.3619 51.4427 23.5271 51.2774C23.6923 51.1122 23.7852 50.8882 23.7852 50.6545L23.7849 45.1684C23.7617 43.7792 26.0194 42.3253 26.8074 41.9278L31.8376 39.4366V40.7124C31.8376 40.9099 31.904 41.1017 32.026 41.257L35.8434 46.1115C35.9258 46.2162 36.0309 46.3009 36.1508 46.3592C36.2706 46.4175 36.4022 46.4478 36.5355 46.4478C36.6687 46.4478 36.8006 46.4177 36.9204 46.3595C37.0402 46.3014 37.1453 46.2169 37.2278 46.1123L41.054 41.2576C41.1764 41.1023 41.243 40.9102 41.243 40.7124V39.4329L46.2932 41.9196C47.0832 42.3313 49.3367 43.8138 49.3324 45.183V49.5252C49.3324 49.7588 49.4253 49.9829 49.5905 50.1481C49.7557 50.3133 49.9797 50.4061 50.2134 50.4061C50.447 50.4061 50.6711 50.3133 50.8363 50.1481C51.0015 49.9829 51.0943 49.7588 51.0943 49.5252V45.1858C51.1029 42.5165 47.5164 40.5705 47.0896 40.3481L41.2413 37.468V36.8865C42.1581 35.4301 42.5293 33.6089 42.7292 31.9379C42.7658 31.6323 42.8084 31.3254 42.8512 31.0181C42.9235 30.4986 42.9975 29.9609 43.0425 29.4156L45.9328 27.9842V29.26C45.9328 29.4575 45.9992 29.6493 46.1212 29.8046L49.9385 34.6591C50.0209 34.7639 50.126 34.8486 50.2459 34.9068C50.3658 34.9651 50.4973 34.9954 50.6306 34.9955C50.7638 34.9955 50.8957 34.9653 51.0156 34.9072C51.1354 34.849 51.2405 34.7645 51.323 34.6599L55.1492 29.8052C55.2716 29.6499 55.3382 29.4578 55.3382 29.26V27.9805L60.3884 30.4672C61.1784 30.8789 63.4319 32.3614 63.4276 33.7306V38.0728C63.4276 38.3064 63.5204 38.5305 63.6856 38.6957C63.8509 38.8609 64.0749 38.9537 64.3086 38.9537C64.5422 38.9537 64.7663 38.8609 64.9315 38.6957C65.0967 38.5305 65.1895 38.3064 65.1895 38.0728V33.7334C65.1981 31.0641 61.6115 29.1181 61.1848 28.8957ZM26.2669 28.9546L23.3225 32.6903L20.3852 28.9551V27.5777L20.3857 27.5734V27.1853C21.1269 27.668 21.9649 27.9825 22.8408 28.1064C23.0079 28.1332 23.1768 28.1469 23.346 28.1475C23.5339 28.1465 23.7213 28.13 23.9065 28.0982C24.7442 27.9723 25.5471 27.6754 26.2652 27.226V28.1272C26.2652 28.1331 26.2668 28.1385 26.267 28.1443L26.2669 28.9546ZM27.7656 20.2765C27.2967 24.1956 26.0968 25.9577 23.623 26.3593C23.4534 26.3925 23.2791 26.3945 23.1087 26.3651C20.6386 25.9851 19.3869 24.1644 18.9234 20.2769C18.8857 19.9603 18.8414 19.6422 18.7971 19.3237C18.5448 17.5117 18.3065 15.8001 19.3337 14.4378C19.7185 13.8662 20.222 13.3842 20.8099 13.0248C21.3978 12.6654 22.0563 12.437 22.7405 12.3553C22.8784 12.3406 23.1238 12.3329 23.3647 12.3329C23.5823 12.3329 23.7964 12.3391 23.9239 12.3518C24.6127 12.4306 25.2762 12.6578 25.8686 13.018C26.4611 13.3781 26.9682 13.8626 27.3552 14.4378C28.3822 15.7997 28.1441 17.5111 27.8918 19.3229C27.8475 19.6416 27.8032 19.9599 27.7656 20.2765ZM39.4811 40.407L36.5368 44.1427L33.5995 40.4074V39.0301L33.5999 39.0258V38.6377C34.3411 39.1204 35.1792 39.4348 36.055 39.5588C36.2221 39.5856 36.391 39.5993 36.5602 39.5998C36.7481 39.5988 36.9355 39.5824 37.1207 39.5506C37.9585 39.4247 38.7614 39.1278 39.4795 38.6783V39.5796C39.4795 39.5855 39.4811 39.5909 39.4812 39.5967L39.4811 40.407ZM41.106 30.7752C41.0617 31.094 41.0174 31.4123 40.9798 31.7289C40.5109 35.648 39.311 37.4101 36.8372 37.8116C36.6676 37.8448 36.4933 37.8468 36.323 37.8175C33.8528 37.4374 32.6011 35.6168 32.1376 31.7293C32.1 31.4127 32.0557 31.0946 32.0114 30.7761C31.7591 28.9641 31.5208 27.2525 32.548 25.8902C32.9327 25.3185 33.4362 24.8365 34.0241 24.4771C34.6121 24.1177 35.2706 23.8894 35.9548 23.8076C36.0926 23.793 36.338 23.7852 36.5789 23.7852C36.7966 23.7852 37.0106 23.7915 37.1381 23.8042C37.8269 23.8829 38.4905 24.1102 39.0829 24.4704C39.6753 24.8305 40.1825 25.3149 40.5694 25.8902C41.5964 27.2521 41.3583 28.9634 41.106 30.7752ZM53.5763 28.9546L50.632 32.6903L47.6947 28.9551V27.5777L47.6951 27.5734V27.1853C48.4363 27.668 49.2744 27.9825 50.1502 28.1064C50.3173 28.1332 50.4862 28.1469 50.6554 28.1475C50.8433 28.1465 51.0308 28.13 51.2159 28.0982C52.0537 27.9723 52.8566 27.6754 53.5747 27.226V28.1272C53.5747 28.1331 53.5763 28.1385 53.5764 28.1443L53.5763 28.9546ZM55.075 20.2765C54.6061 24.1956 53.4062 25.9577 50.9324 26.3593C50.7628 26.3925 50.5885 26.3945 50.4182 26.3651C47.948 25.9851 46.6963 24.1644 46.2328 20.2769C46.1952 19.9603 46.1509 19.6422 46.1066 19.3237C45.8543 17.5117 45.616 15.8001 46.6432 14.4378C47.0279 13.8662 47.5314 13.3842 48.1193 13.0248C48.7072 12.6654 49.3658 12.437 50.05 12.3553C50.1878 12.3406 50.4332 12.3329 50.6741 12.3329C50.8918 12.3329 51.1058 12.3391 51.2333 12.3518C51.9221 12.4306 52.5856 12.6578 53.1781 13.018C53.7705 13.3781 54.2777 13.8626 54.6646 14.4378C55.6916 15.7997 55.4535 17.5111 55.2012 19.3229C55.1569 19.6416 55.1126 19.9599 55.075 20.2765Z" fill="#2D4356"/>
<path d="M39.5707 55.8683L36.0142 59.4246L34.4347 57.8189C34.2709 57.6523 34.0476 57.5577 33.814 57.5557C33.5803 57.5538 33.3555 57.6447 33.189 57.8086C33.0224 57.9724 32.9277 58.1957 32.9258 58.4293C32.9239 58.6629 33.0148 58.8877 33.1786 59.0543L35.381 61.2934C35.4626 61.3763 35.5597 61.4423 35.6669 61.4875C35.7741 61.5327 35.8891 61.5562 36.0054 61.5567H36.009C36.1247 61.5567 36.2393 61.5339 36.3462 61.4896C36.453 61.4454 36.5501 61.3804 36.6319 61.2986L40.8164 57.1141C40.9816 56.9489 41.0744 56.7248 41.0744 56.4912C41.0744 56.2576 40.9816 56.0335 40.8164 55.8684C40.6512 55.7032 40.4272 55.6104 40.1936 55.6104C39.9599 55.6104 39.7359 55.7032 39.5707 55.8683Z" fill="#0BCEB2"/>
<path d="M0.880952 66.9523C1.36749 66.9523 1.7619 66.5579 1.7619 66.0714C1.7619 65.5848 1.36749 65.1904 0.880952 65.1904C0.394416 65.1904 0 65.5848 0 66.0714C0 66.5579 0.394416 66.9523 0.880952 66.9523Z" fill="#2D4356"/>
<path d="M4.84691 65.1904H3.52548C3.29184 65.1904 3.06777 65.2832 2.90256 65.4485C2.73735 65.6137 2.64453 65.8377 2.64453 66.0714C2.64453 66.305 2.73735 66.5291 2.90256 66.6943C3.06777 66.8595 3.29184 66.9523 3.52548 66.9523H4.84691C5.08056 66.9523 5.30463 66.8595 5.46984 66.6943C5.63505 66.5291 5.72786 66.305 5.72786 66.0714C5.72786 65.8377 5.63505 65.6137 5.46984 65.4485C5.30463 65.2832 5.08056 65.1904 4.84691 65.1904ZM70.4779 65.1904H69.1564C68.9228 65.1904 68.6987 65.2832 68.5335 65.4485C68.3683 65.6137 68.2755 65.8377 68.2755 66.0714C68.2755 66.305 68.3683 66.5291 68.5335 66.6943C68.6987 66.8595 68.9228 66.9523 69.1564 66.9523H70.4779C70.7115 66.9523 70.9356 66.8595 71.1008 66.6943C71.266 66.5291 71.3588 66.305 71.3588 66.0714C71.3588 65.8377 71.266 65.6137 71.1008 65.4485C70.9356 65.2832 70.7115 65.1904 70.4779 65.1904Z" fill="#2D4356"/>
<path d="M73.1192 66.9523C73.6058 66.9523 74.0002 66.5579 74.0002 66.0714C74.0002 65.5848 73.6058 65.1904 73.1192 65.1904C72.6327 65.1904 72.2383 65.5848 72.2383 66.0714C72.2383 66.5579 72.6327 66.9523 73.1192 66.9523Z" fill="#2D4356"/>
<path d="M52.0457 68.7139H48.3863C48.1648 68.7316 47.9582 68.8321 47.8075 68.9954C47.6568 69.1586 47.5731 69.3726 47.5731 69.5948C47.5731 69.817 47.6568 70.031 47.8075 70.1943C47.9582 70.3575 48.1648 70.458 48.3863 70.4758H52.0457C52.2671 70.458 52.4738 70.3575 52.6245 70.1943C52.7752 70.031 52.8588 69.817 52.8588 69.5948C52.8588 69.3726 52.7752 69.1586 52.6245 68.9954C52.4738 68.8321 52.2671 68.7316 52.0457 68.7139ZM25.6171 68.7139H21.9577C21.7363 68.7316 21.5296 68.8321 21.3789 68.9954C21.2282 69.1586 21.1445 69.3726 21.1445 69.5948C21.1445 69.817 21.2282 70.031 21.3789 70.1943C21.5296 70.3575 21.7363 70.458 21.9577 70.4758H25.6171C25.8385 70.458 26.0452 70.3575 26.1959 70.1943C26.3466 70.031 26.4303 69.817 26.4303 69.5948C26.4303 69.3726 26.3466 69.1586 26.1959 68.9954C26.0452 68.8321 25.8385 68.7316 25.6171 68.7139ZM45.8112 68.7139H28.1922C27.9585 68.7139 27.7344 68.8067 27.5692 68.9719C27.404 69.1371 27.3112 69.3612 27.3112 69.5948C27.3112 69.8285 27.404 70.0525 27.5692 70.2177C27.7344 70.383 27.9585 70.4758 28.1922 70.4758H35.2134V71.3567H31.716C31.4823 71.3567 31.2583 71.4495 31.093 71.6147C30.9278 71.78 30.835 72.004 30.835 72.2377C30.835 72.4713 30.9278 72.6954 31.093 72.8606C31.2583 73.0258 31.4823 73.1186 31.716 73.1186H42.7279C42.9615 73.1186 43.1856 73.0258 43.3508 72.8606C43.516 72.6954 43.6088 72.4713 43.6088 72.2377C43.6088 72.004 43.516 71.78 43.3508 71.6147C43.1856 71.4495 42.9615 71.3567 42.7279 71.3567H38.79V70.4758H45.8112C46.0449 70.4758 46.2689 70.383 46.4341 70.2177C46.5993 70.0525 46.6922 69.8285 46.6922 69.5948C46.6922 69.3612 46.5993 69.1371 46.4341 68.9719C46.2689 68.8067 46.0449 68.7139 45.8112 68.7139Z" fill="#0BCEB2"/>
<path d="M66.3883 65.1904H42.1169C43.4986 64.1226 44.5116 62.6494 45.0141 60.977C45.5167 59.3047 45.4836 57.5171 44.9194 55.8646C44.3552 54.2121 43.2883 52.7774 41.8681 51.7615C40.4478 50.7456 38.7454 50.1994 36.9992 50.1994C35.253 50.1994 33.5505 50.7456 32.1303 51.7615C30.71 52.7774 29.6431 54.2121 29.0789 55.8646C28.5148 57.5171 28.4817 59.3047 28.9842 60.977C29.4867 62.6494 30.4998 64.1226 31.8814 65.1904H7.61003C7.4847 65.174 7.35732 65.1846 7.2364 65.2213C7.11547 65.2581 7.00379 65.3203 6.9088 65.4037C6.81382 65.487 6.73772 65.5897 6.68558 65.7049C6.63345 65.82 6.60648 65.9449 6.60648 66.0713C6.60648 66.1977 6.63345 66.3227 6.68558 66.4378C6.73772 66.5529 6.81382 66.6556 6.9088 66.739C7.00379 66.8224 7.11547 66.8846 7.2364 66.9213C7.35732 66.9581 7.4847 66.9687 7.61003 66.9523H66.3883C66.5137 66.9687 66.641 66.9581 66.762 66.9213C66.8829 66.8846 66.9946 66.8224 67.0896 66.739C67.1845 66.6556 67.2606 66.5529 67.3128 66.4378C67.3649 66.3227 67.3919 66.1977 67.3919 66.0713C67.3919 65.9449 67.3649 65.82 67.3128 65.7049C67.2606 65.5897 67.1845 65.487 67.0896 65.4037C66.9946 65.3203 66.8829 65.2581 66.762 65.2213C66.641 65.1846 66.5137 65.174 66.3883 65.1904ZM30.3921 58.5832C30.3921 57.2764 30.7796 55.999 31.5056 54.9125C32.2316 53.8259 33.2635 52.9791 34.4708 52.479C35.6781 51.979 37.0065 51.8481 38.2882 52.1031C39.5698 52.358 40.7471 52.9873 41.6711 53.9113C42.5951 54.8353 43.2244 56.0126 43.4793 57.2942C43.7343 58.5759 43.6034 59.9044 43.1034 61.1117C42.6033 62.319 41.7564 63.3508 40.6699 64.0768C39.5834 64.8028 38.3059 65.1903 36.9992 65.1903C35.2475 65.1883 33.5681 64.4916 32.3294 63.2529C31.0908 62.0143 30.394 60.3349 30.3921 58.5832ZM30.0858 3.52372C30.3471 3.52372 30.6026 3.44622 30.8199 3.30102C31.0372 3.15582 31.2066 2.94944 31.3066 2.70798C31.4066 2.46652 31.4328 2.20082 31.3818 1.94449C31.3308 1.68816 31.205 1.4527 31.0202 1.2679C30.8354 1.08309 30.5999 0.957238 30.3436 0.906251C30.0872 0.855263 29.8215 0.881432 29.5801 0.981448C29.3386 1.08146 29.1322 1.25083 28.987 1.46814C28.8418 1.68545 28.7643 1.94093 28.7643 2.20229C28.7647 2.55263 28.9041 2.88851 29.1518 3.13624C29.3996 3.38397 29.7354 3.52332 30.0858 3.52372ZM30.0858 1.54157C30.2164 1.54157 30.3442 1.58032 30.4528 1.65292C30.5615 1.72553 30.6462 1.82871 30.6962 1.94944C30.7462 2.07017 30.7593 2.20302 30.7338 2.33119C30.7083 2.45935 30.6454 2.57708 30.553 2.66948C30.4606 2.76189 30.3428 2.82481 30.2147 2.85031C30.0865 2.8758 29.9537 2.86272 29.8329 2.81271C29.7122 2.7627 29.609 2.67802 29.5364 2.56936C29.4638 2.46071 29.4251 2.33297 29.4251 2.20229C29.4252 2.02711 29.4949 1.85915 29.6188 1.73528C29.7426 1.61141 29.9106 1.54175 30.0858 1.54157ZM71.3563 21.143C71.1821 21.143 71.0118 21.1947 70.8669 21.2915C70.722 21.3883 70.6091 21.5259 70.5424 21.6869C70.4757 21.8478 70.4583 22.025 70.4923 22.1958C70.5263 22.3667 70.6102 22.5237 70.7334 22.6469C70.8566 22.7701 71.0136 22.854 71.1845 22.888C71.3553 22.922 71.5325 22.9045 71.6935 22.8379C71.8544 22.7712 71.992 22.6583 72.0888 22.5134C72.1856 22.3685 72.2373 22.1982 72.2373 22.024C72.237 21.7904 72.1441 21.5665 71.979 21.4013C71.8138 21.2362 71.5899 21.1433 71.3563 21.143ZM71.3563 22.4645C71.2692 22.4645 71.184 22.4386 71.1116 22.3902C71.0392 22.3418 70.9827 22.273 70.9494 22.1925C70.916 22.1121 70.9073 22.0235 70.9243 21.938C70.9413 21.8526 70.9833 21.7741 71.0449 21.7125C71.1065 21.6509 71.185 21.609 71.2704 21.592C71.3558 21.575 71.4444 21.5837 71.5249 21.617C71.6054 21.6504 71.6742 21.7068 71.7226 21.7793C71.771 21.8517 71.7968 21.9369 71.7968 22.024C71.7967 22.1408 71.7502 22.2527 71.6677 22.3353C71.5851 22.4179 71.4731 22.4643 71.3563 22.4645ZM40.3621 8.85992C40.1879 8.85992 40.0175 8.91158 39.8727 9.00838C39.7278 9.10518 39.6149 9.24277 39.5482 9.40374C39.4815 9.56471 39.4641 9.74185 39.4981 9.91273C39.5321 10.0836 39.616 10.2406 39.7392 10.3638C39.8624 10.487 40.0193 10.5709 40.1902 10.6049C40.3611 10.6389 40.5382 10.6214 40.6992 10.5548C40.8602 10.4881 40.9978 10.3752 41.0946 10.2303C41.1914 10.0854 41.243 9.9151 41.243 9.74087C41.2428 9.50731 41.1499 9.28339 40.9847 9.11823C40.8196 8.95308 40.5957 8.86018 40.3621 8.85992ZM40.3621 10.1813C40.275 10.1813 40.1898 10.1555 40.1174 10.1071C40.0449 10.0587 39.9885 9.98992 39.9552 9.90943C39.9218 9.82894 39.9131 9.74038 39.9301 9.65493C39.9471 9.56949 39.989 9.491 40.0506 9.4294C40.1122 9.3678 40.1907 9.32585 40.2762 9.30886C40.3616 9.29186 40.4502 9.30058 40.5307 9.33392C40.6111 9.36726 40.6799 9.42372 40.7283 9.49615C40.7767 9.56859 40.8026 9.65375 40.8026 9.74087C40.8025 9.85765 40.756 9.96962 40.6734 10.0522C40.5909 10.1348 40.4789 10.1812 40.3621 10.1813ZM69.7286 4.40467C69.5544 4.40467 69.3841 4.45634 69.2392 4.55314C69.0943 4.64994 68.9814 4.78752 68.9147 4.9485C68.8481 5.10947 68.8306 5.2866 68.8646 5.45749C68.8986 5.62838 68.9825 5.78535 69.1057 5.90855C69.2289 6.03175 69.3859 6.11566 69.5568 6.14965C69.7277 6.18364 69.9048 6.16619 70.0658 6.09952C70.2267 6.03284 70.3643 5.91992 70.4611 5.77505C70.5579 5.63018 70.6096 5.45986 70.6096 5.28562C70.6093 5.05206 70.5164 4.82814 70.3513 4.66299C70.1861 4.49784 69.9622 4.40494 69.7286 4.40467ZM69.7286 5.7261C69.6415 5.7261 69.5564 5.70026 69.4839 5.65186C69.4115 5.60346 69.355 5.53467 69.3217 5.45419C69.2883 5.3737 69.2796 5.28513 69.2966 5.19969C69.3136 5.11425 69.3556 5.03576 69.4172 4.97416C69.4788 4.91256 69.5573 4.87061 69.6427 4.85361C69.7281 4.83661 69.8167 4.84534 69.8972 4.87867C69.9777 4.91201 70.0465 4.96847 70.0949 5.04091C70.1433 5.11334 70.1691 5.1985 70.1691 5.28562C70.169 5.40241 70.1226 5.51438 70.04 5.59696C69.9574 5.67954 69.8454 5.72598 69.7286 5.7261ZM4.26972 4.84515C4.26972 4.67091 4.21805 4.50059 4.12125 4.35572C4.02445 4.21084 3.88686 4.09793 3.72589 4.03125C3.56492 3.96457 3.38779 3.94713 3.2169 3.98112C3.04601 4.01511 2.88904 4.09902 2.76584 4.22222C2.64263 4.34542 2.55873 4.50239 2.52474 4.67328C2.49075 4.84417 2.50819 5.0213 2.57487 5.18227C2.64155 5.34324 2.75446 5.48083 2.89933 5.57763C3.04421 5.67443 3.21453 5.7261 3.38877 5.7261C3.62233 5.72583 3.84625 5.63293 4.0114 5.46778C4.17655 5.30263 4.26945 5.07871 4.26972 4.84515ZM2.94829 4.84515C2.94829 4.75803 2.97412 4.67287 3.02252 4.60043C3.07092 4.52799 3.13972 4.47154 3.2202 4.4382C3.30069 4.40486 3.38925 4.39614 3.4747 4.41313C3.56014 4.43013 3.63863 4.47208 3.70023 4.53368C3.76183 4.59528 3.80378 4.67377 3.82078 4.75921C3.83777 4.84466 3.82905 4.93322 3.79571 5.01371C3.76237 5.0942 3.70592 5.16299 3.63348 5.21139C3.56104 5.25979 3.47588 5.28562 3.38877 5.28562C3.27198 5.28551 3.16001 5.23906 3.07743 5.15648C2.99485 5.0739 2.94841 4.96193 2.94829 4.84515Z" fill="#2D4356"/>
<path d="M4.01191 19.2492L4.66646 18.3877L4.25285 18.1533L3.83264 19.118H3.81854L3.39172 18.1599L2.97062 18.4013L3.619 19.2422V19.2558L2.60547 19.125V19.5937L3.62561 19.4629V19.4765L2.97062 20.3174L3.36353 20.5654L3.81193 19.5937H3.82559L4.23919 20.5583L4.6735 20.3103L4.01191 19.4831V19.4695L5.05231 19.5937V19.125L4.01191 19.2629V19.2492Z" fill="#0BCEB2"/>
<path d="M16.7009 8.92706L16.3234 9.41115L16.5498 9.55386L16.8079 8.99446H16.8158L17.0541 9.5499L17.3039 9.40718L16.9229 8.93103V8.9231L17.5224 8.99446V8.72444L16.9229 8.80373V8.7958L17.3004 8.29982L17.0621 8.16504L16.8198 8.72048H16.8119L16.5661 8.169L16.3234 8.30775L16.6969 8.79184V8.79977L16.1133 8.72444V8.99446L16.7009 8.91913V8.92706Z" fill="#0BCEB2"/>
<path d="M65.1892 14.5444V14.085L64.1686 14.2203V14.2066L64.8109 13.3618L64.4052 13.1318L63.9929 14.078H63.9792L63.5603 13.1384L63.1476 13.3754L63.7832 14.2V14.2136L62.7891 14.085V14.5444L63.7898 14.4163V14.4299L63.1476 15.2545L63.533 15.4981L63.9726 14.5444H63.9858L64.3915 15.491L64.8175 15.2479L64.1686 14.4365V14.4229L65.1892 14.5444Z" fill="#0BCEB2"/>
<path d="M52.6975 2.76998L53.2517 2.04099L52.9019 1.84277L52.546 2.65898H52.5341L52.1729 1.8485L51.817 2.05288L52.3654 2.76425V2.7757L51.5078 2.66514V3.06157L52.3711 2.95101V2.96246L51.817 3.67383L52.1491 3.88394L52.5284 3.06157H52.5398L52.89 3.87777L53.2574 3.66811L52.6975 2.96819V2.95674L53.5781 3.06157V2.66514L52.6975 2.78143V2.76998Z" fill="#0BCEB2"/>
<path d="M50.6541 28.1472C50.4849 28.1467 50.3161 28.1329 50.1491 28.1061C45.8046 27.4381 44.8341 23.4368 44.4818 20.4853C44.4457 20.1801 44.4027 19.8734 44.3601 19.5665C44.0831 17.5764 43.7691 15.3209 45.235 13.3768C45.765 12.6122 46.4519 11.9694 47.2498 11.4911C48.0478 11.0128 48.9385 10.71 49.8626 10.603C50.3764 10.5624 50.8924 10.5608 51.4064 10.5983L51.4081 10.5985C52.3389 10.7011 53.2368 11.0022 54.0411 11.4816C54.8454 11.961 55.5375 12.6074 56.0706 13.3773C57.5361 15.3203 57.2225 17.5751 56.9455 19.5646C56.9029 19.8721 56.8599 20.1793 56.8238 20.4851C56.4427 23.6678 55.4611 27.4088 51.2146 28.0979C51.0294 28.1297 50.842 28.1462 50.6541 28.1472ZM50.673 12.3326C50.4321 12.3326 50.1865 12.3404 50.0489 12.355C49.3646 12.4369 48.7061 12.6653 48.1181 13.0247C47.5301 13.384 47.0265 13.866 46.6416 14.4376C45.6149 15.7999 45.8527 17.5114 46.1052 19.3235C46.1495 19.642 46.1938 19.9601 46.2317 20.2767C46.695 24.1642 47.9472 25.985 50.4171 26.3648C50.5874 26.3939 50.7616 26.392 50.9311 26.359C53.4054 25.9575 54.6051 24.1952 55.0744 20.2763C55.1118 19.9594 55.1561 19.6407 55.2004 19.3217C55.4525 17.5104 55.6903 15.7994 54.6636 14.4376C54.2767 13.8624 53.7695 13.378 53.1772 13.0178C52.5849 12.6577 51.9214 12.4303 51.2327 12.3515C51.1049 12.3389 50.8907 12.3326 50.673 12.3326ZM23.3446 28.1472C23.1754 28.1467 23.0066 28.1329 22.8396 28.1061C18.495 27.4381 17.5246 23.4368 17.1723 20.4853C17.1362 20.1801 17.0932 19.8734 17.0506 19.5665C16.7736 17.5764 16.4595 15.3209 17.9255 13.3768C18.4555 12.6122 19.1424 11.9694 19.9403 11.4911C20.7382 11.0128 21.629 10.71 22.5531 10.603C23.0668 10.5624 23.5829 10.5608 24.0969 10.5983L24.0986 10.5985C25.0294 10.7011 25.9272 11.0022 26.7316 11.4816C27.5359 11.961 28.228 12.6074 28.7611 13.3773C30.2266 15.3203 29.913 17.5751 29.636 19.5646C29.5934 19.8721 29.5504 20.1793 29.5142 20.4851C29.1331 23.6678 28.1515 27.4088 23.9051 28.0979C23.7199 28.1297 23.5324 28.1462 23.3446 28.1472ZM23.3635 12.3326C23.1226 12.3326 22.877 12.3404 22.7394 12.355C22.0551 12.4369 21.3966 12.6653 20.8086 13.0247C20.2206 13.384 19.717 13.866 19.3321 14.4376C18.3053 15.7999 18.5432 17.5114 18.7957 19.3235C18.84 19.642 18.8843 19.9601 18.9222 20.2767C19.3855 24.1642 20.6376 25.985 23.1076 26.3648C23.2779 26.3939 23.452 26.392 23.6216 26.359C26.0959 25.9575 27.2956 24.1952 27.7649 20.2763C27.8023 19.9594 27.8466 19.6407 27.8909 19.3217C28.143 17.5104 28.3808 15.7994 27.3541 14.4376C26.9671 13.8624 26.46 13.378 25.8677 13.0178C25.2753 12.6577 24.6119 12.4303 23.9232 12.3515C23.7954 12.3389 23.5811 12.3326 23.3635 12.3326ZM36.5589 39.5996C36.3897 39.5991 36.2209 39.5853 36.0539 39.5585C31.7093 38.8905 30.7389 34.8892 30.3866 31.9377C30.3505 31.6325 30.3074 31.3258 30.2649 31.0189C29.9878 29.0288 29.6738 26.7733 31.1398 24.8292C31.6698 24.0646 32.3566 23.4218 33.1546 22.9435C33.9525 22.4652 34.8432 22.1624 35.7674 22.0554C36.2811 22.0146 36.7972 22.0131 37.3112 22.0506L37.3129 22.0509C38.2436 22.1534 39.1415 22.4546 39.9459 22.934C40.7502 23.4134 41.4423 24.0598 41.9753 24.8296C43.4409 26.7726 43.1273 29.0275 42.8503 31.017C42.8077 31.3245 42.7647 31.6317 42.7285 31.9375C42.3474 35.1202 41.3658 38.8612 37.1193 39.5503C36.9342 39.5821 36.7467 39.5986 36.5589 39.5996ZM36.5778 23.785C36.3369 23.785 36.0913 23.7928 35.9536 23.8074C35.2694 23.8892 34.6109 24.1176 34.0229 24.477C33.4349 24.8364 32.9313 25.3183 32.5464 25.89C31.5196 27.2522 31.7575 28.9638 32.01 30.7758C32.0543 31.0944 32.0986 31.4125 32.1365 31.7291C32.5997 35.6166 33.8519 37.4374 36.3219 37.8172C36.4922 37.8462 36.6663 37.8442 36.8359 37.8114C39.3101 37.4099 40.5098 35.6475 40.9791 31.7286C41.0166 31.4118 41.0609 31.0931 41.1052 30.7741C41.3572 28.9627 41.5951 27.2518 40.5683 25.89C40.1814 25.3147 39.6743 24.8303 39.082 24.4702C38.4896 24.11 37.8262 23.8827 37.1374 23.8039C37.0097 23.7913 36.7954 23.785 36.5778 23.785Z" fill="#0BCEB2"/>
</g>
<defs>
<clipPath id="clip0_712_938">
<rect width="74" height="74" fill="white"/>
</clipPath>
</defs>
</svg>
