<svg width="101" height="101" viewBox="0 0 101 101" fill="none" xmlns="http://www.w3.org/2000/svg">
<path d="M75.7493 34.5723H52.904C51.9477 34.5733 51.0308 34.9537 50.3545 35.6299C49.6783 36.3062 49.2979 37.2231 49.2969 38.1794V64.6318C49.2979 65.5881 49.6783 66.505 50.3545 67.1813C51.0308 67.8575 51.9477 68.2379 52.904 68.2389H75.7493C76.7056 68.2379 77.6225 67.8575 78.2987 67.1813C78.975 66.505 79.3554 65.5881 79.3564 64.6318V38.1794C79.3554 37.2231 78.975 36.3062 78.2987 35.6299C77.6225 34.9537 76.7056 34.5733 75.7493 34.5723ZM76.9516 64.6318C76.9513 64.9506 76.8245 65.2562 76.5991 65.4816C76.3737 65.707 76.068 65.8338 75.7493 65.8342H52.904C52.5852 65.8338 52.2796 65.707 52.0542 65.4816C51.8288 65.2562 51.702 64.9506 51.7016 64.6318V38.1794C51.702 37.8606 51.8288 37.555 52.0542 37.3296C52.2796 37.1042 52.5852 36.9774 52.904 36.977H75.7493C76.068 36.9774 76.3737 37.1042 76.5991 37.3296C76.8245 37.555 76.9513 37.8606 76.9516 38.1794V64.6318Z" fill="#2D4356"/>
<path d="M33.6674 39.2055C33.6667 38.568 33.4132 37.9567 32.9623 37.5059C32.5115 37.055 31.9002 36.8015 31.2626 36.8008H28.8579C28.2203 36.8015 27.609 37.055 27.1582 37.5059C26.7074 37.9567 26.4538 38.568 26.4531 39.2055V41.6103C26.4538 42.2479 26.7074 42.8591 27.1582 43.31C27.609 43.7608 28.2203 44.0144 28.8579 44.0151H31.2626C31.9002 44.0144 32.5115 43.7608 32.9623 43.31C33.4132 42.8591 33.6667 42.2479 33.6674 41.6103V39.2055ZM28.8579 41.6103V39.2055H31.2626L31.2641 41.6103H28.8579Z" fill="#0BCEB2"/>
<path d="M45.6894 37.5781H37.2727C36.9538 37.5781 36.648 37.7048 36.4225 37.9303C36.197 38.1558 36.0703 38.4616 36.0703 38.7805C36.0703 39.0994 36.197 39.4052 36.4225 39.6307C36.648 39.8562 36.9538 39.9829 37.2727 39.9829H45.6894C46.0083 39.9829 46.3141 39.8562 46.5396 39.6307C46.7651 39.4052 46.8917 39.0994 46.8917 38.7805C46.8917 38.4616 46.7651 38.1558 46.5396 37.9303C46.3141 37.7048 46.0083 37.5781 45.6894 37.5781Z" fill="#2D4356"/>
<path d="M37.2727 43.5903H43.2846C43.6035 43.5903 43.9093 43.4636 44.1348 43.2381C44.3603 43.0127 44.487 42.7068 44.487 42.3879C44.487 42.069 44.3603 41.7632 44.1348 41.5377C43.9093 41.3122 43.6035 41.1855 43.2846 41.1855H37.2727C36.9538 41.1855 36.648 41.3122 36.4225 41.5377C36.197 41.7632 36.0703 42.069 36.0703 42.3879C36.0703 42.7068 36.197 43.0127 36.4225 43.2381C36.648 43.4636 36.9538 43.5903 37.2727 43.5903Z" fill="#0BCEB2"/>
<path d="M33.6674 48.8247C33.6667 48.1871 33.4132 47.5758 32.9623 47.125C32.5115 46.6742 31.9002 46.4206 31.2626 46.4199H28.8579C28.2203 46.4206 27.609 46.6742 27.1582 47.125C26.7074 47.5758 26.4538 48.1871 26.4531 48.8247V51.2294C26.4538 51.867 26.7074 52.4783 27.1582 52.9291C27.609 53.38 28.2203 53.6335 28.8579 53.6342H31.2626C31.9002 53.6335 32.5115 53.38 32.9623 52.9291C33.4132 52.4783 33.6667 51.867 33.6674 51.2294V48.8247ZM28.8579 51.2294V48.8247H31.2626L31.2641 51.2294H28.8579ZM37.2746 49.6014H45.6912C46.0101 49.6014 46.3159 49.4747 46.5414 49.2492C46.7669 49.0238 46.8936 48.7179 46.8936 48.399C46.8936 48.0801 46.7669 47.7743 46.5414 47.5488C46.3159 47.3233 46.0101 47.1967 45.6912 47.1967H37.2746C36.9557 47.1967 36.6498 47.3233 36.4243 47.5488C36.1989 47.7743 36.0722 48.0801 36.0722 48.399C36.0722 48.7179 36.1989 49.0238 36.4243 49.2492C36.6498 49.4747 36.9557 49.6014 37.2746 49.6014Z" fill="#2D4356"/>
<path d="M37.2746 53.2085H43.2865C43.6054 53.2085 43.9112 53.0818 44.1367 52.8563C44.3622 52.6308 44.4888 52.325 44.4888 52.0061C44.4888 51.6872 44.3622 51.3814 44.1367 51.1559C43.9112 50.9304 43.6054 50.8037 43.2865 50.8037H37.2746C36.9557 50.8037 36.6498 50.9304 36.4243 51.1559C36.1989 51.3814 36.0722 51.6872 36.0722 52.0061C36.0722 52.325 36.1989 52.6308 36.4243 52.8563C36.6498 53.0818 36.9557 53.2085 37.2746 53.2085ZM33.6674 58.4436C33.6667 57.8061 33.4132 57.1948 32.9623 56.744C32.5115 56.2931 31.9002 56.0396 31.2626 56.0389H28.8579C28.2203 56.0396 27.609 56.2931 27.1582 56.744C26.7074 57.1948 26.4538 57.8061 26.4531 58.4436V60.8484C26.4538 61.486 26.7074 62.0972 27.1582 62.5481C27.609 62.9989 28.2203 63.2525 28.8579 63.2532H31.2626C31.9002 63.2525 32.5115 62.9989 32.9623 62.5481C33.4132 62.0972 33.6667 61.486 33.6674 60.8484V58.4436ZM28.8579 60.8484V58.4436H31.2626L31.2641 60.8484H28.8579Z" fill="#0BCEB2"/>
<path d="M37.2727 59.2212H45.6894C46.0083 59.2212 46.3141 59.0945 46.5396 58.869C46.7651 58.6435 46.8917 58.3377 46.8917 58.0188C46.8917 57.6999 46.7651 57.3941 46.5396 57.1686C46.3141 56.9431 46.0083 56.8164 45.6894 56.8164H37.2727C36.9538 56.8164 36.648 56.9431 36.4225 57.1686C36.197 57.3941 36.0703 57.6999 36.0703 58.0188C36.0703 58.3377 36.197 58.6435 36.4225 58.869C36.648 59.0945 36.9538 59.2212 37.2727 59.2212Z" fill="#2D4356"/>
<path d="M37.2727 62.8276H43.2846C43.6035 62.8276 43.9093 62.7009 44.1348 62.4754C44.3603 62.25 44.487 61.9441 44.487 61.6252C44.487 61.3063 44.3603 61.0005 44.1348 60.775C43.9093 60.5495 43.6035 60.4229 43.2846 60.4229H37.2727C36.9538 60.4229 36.648 60.5495 36.4225 60.775C36.197 61.0005 36.0703 61.3063 36.0703 61.6252C36.0703 61.9441 36.197 62.25 36.4225 62.4754C36.648 62.7009 36.9538 62.8276 37.2727 62.8276Z" fill="#0BCEB2"/>
<path d="M33.6674 68.063C33.6667 67.4254 33.4132 66.8141 32.9623 66.3633C32.5115 65.9125 31.9002 65.6589 31.2626 65.6582H28.8579C28.2203 65.6589 27.609 65.9125 27.1582 66.3633C26.7074 66.8141 26.4538 67.4254 26.4531 68.063V70.4677C26.4538 71.1053 26.7074 71.7166 27.1582 72.1674C27.609 72.6182 28.2203 72.8718 28.8579 72.8725H31.2626C31.9002 72.8718 32.5115 72.6182 32.9623 72.1674C33.4132 71.7166 33.6667 71.1053 33.6674 70.4677V68.063ZM28.8579 70.4677V68.063H31.2626L31.2641 70.4677H28.8579ZM37.2746 68.8397H45.6912C46.0101 68.8397 46.3159 68.713 46.5414 68.4875C46.7669 68.262 46.8936 67.9562 46.8936 67.6373C46.8936 67.3184 46.7669 67.0126 46.5414 66.7871C46.3159 66.5616 46.0101 66.4349 45.6912 66.4349H37.2746C36.9557 66.4349 36.6498 66.5616 36.4243 66.7871C36.1989 67.0126 36.0722 67.3184 36.0722 67.6373C36.0722 67.9562 36.1989 68.262 36.4243 68.4875C36.6498 68.713 36.9557 68.8397 37.2746 68.8397Z" fill="#2D4356"/>
<path d="M37.2746 72.4468H43.2865C43.6054 72.4468 43.9112 72.3201 44.1367 72.0946C44.3622 71.8691 44.4888 71.5633 44.4888 71.2444C44.4888 70.9255 44.3622 70.6197 44.1367 70.3942C43.9112 70.1687 43.6054 70.042 43.2865 70.042H37.2746C36.9557 70.042 36.6498 70.1687 36.4243 70.3942C36.1989 70.6197 36.0722 70.9255 36.0722 71.2444C36.0722 71.5633 36.1989 71.8691 36.4243 72.0946C36.6498 72.3201 36.9557 72.4468 37.2746 72.4468ZM31.2626 75.2772H28.8579C28.2203 75.2778 27.609 75.5314 27.1582 75.9823C26.7074 76.4331 26.4538 77.0444 26.4531 77.6819V80.0867C26.4538 80.7243 26.7074 81.3355 27.1582 81.7864C27.609 82.2372 28.2203 82.4908 28.8579 82.4915H31.2626C31.9002 82.4908 32.5115 82.2372 32.9623 81.7864C33.4132 81.3355 33.6667 80.7243 33.6674 80.0867V77.6819C33.6667 77.0444 33.4132 76.4331 32.9623 75.9823C32.5115 75.5314 31.9002 75.2778 31.2626 75.2772ZM28.8579 80.0867V77.6819H31.2626L31.2641 80.0867H28.8579Z" fill="#0BCEB2"/>
<path d="M57.7132 76.0537H37.2727C36.9538 76.0537 36.648 76.1804 36.4225 76.4059C36.197 76.6314 36.0703 76.9372 36.0703 77.2561C36.0703 77.575 36.197 77.8808 36.4225 78.1063C36.648 78.3318 36.9538 78.4585 37.2727 78.4585H57.7132C58.0321 78.4585 58.3379 78.3318 58.5634 78.1063C58.7889 77.8808 58.9156 77.575 58.9156 77.2561C58.9156 76.9372 58.7889 76.6314 58.5634 76.4059C58.3379 76.1804 58.0321 76.0537 57.7132 76.0537Z" fill="#2D4356"/>
<path d="M36.0703 80.8637C36.0703 81.1826 36.197 81.4884 36.4225 81.7139C36.648 81.9394 36.9538 82.0661 37.2727 82.0661H62.5227C62.8416 82.0661 63.1474 81.9394 63.3729 81.7139C63.5984 81.4884 63.7251 81.1826 63.7251 80.8637C63.7251 80.5448 63.5984 80.239 63.3729 80.0135C63.1474 79.788 62.8416 79.6613 62.5227 79.6613H37.2727C36.9538 79.6613 36.648 79.788 36.4225 80.0135C36.197 80.239 36.0703 80.5448 36.0703 80.8637ZM71.8637 43.9721L60.4053 56.256L56.7888 52.3788C56.6814 52.2621 56.552 52.1678 56.408 52.1014C56.264 52.0349 56.1083 51.9976 55.9498 51.9915C55.7914 51.9855 55.6333 52.0109 55.4847 52.0662C55.336 52.1215 55.1998 52.2057 55.0839 52.3139C54.9679 52.422 54.8745 52.5521 54.809 52.6965C54.7435 52.8409 54.7073 52.9969 54.7023 53.1554C54.6973 53.3139 54.7238 53.4718 54.7801 53.62C54.8364 53.7683 54.9215 53.9039 55.0304 54.0191L59.5261 58.8386C59.6386 58.9592 59.7747 59.0554 59.926 59.1212C60.0772 59.1869 60.2404 59.2208 60.4053 59.2208C60.5702 59.2208 60.7334 59.1869 60.8846 59.1212C61.0359 59.0554 61.172 58.9592 61.2845 58.8386L73.6221 45.6125C73.7311 45.4972 73.8161 45.3616 73.8725 45.2133C73.9288 45.0651 73.9552 44.9072 73.9502 44.7487C73.9453 44.5902 73.909 44.4342 73.8435 44.2898C73.778 44.1454 73.6846 44.0153 73.5686 43.9072C73.4527 43.799 73.3165 43.7148 73.1679 43.6595C73.0192 43.6042 72.8611 43.5788 72.7027 43.5849C72.5442 43.5909 72.3885 43.6282 72.2445 43.6947C72.1006 43.7611 71.9711 43.8554 71.8637 43.9721Z" fill="#0BCEB2"/>
<path d="M1.20238 89.8813C1.86644 89.8813 2.40476 89.343 2.40476 88.6789C2.40476 88.0149 1.86644 87.4766 1.20238 87.4766C0.538324 87.4766 0 88.0149 0 88.6789C0 89.343 0.538324 89.8813 1.20238 89.8813Z" fill="#2D4356"/>
<path d="M6.61142 87.4766H4.80785C4.48896 87.4766 4.18313 87.6032 3.95764 87.8287C3.73215 88.0542 3.60547 88.3601 3.60547 88.6789C3.60547 88.9978 3.73215 89.3037 3.95764 89.5292C4.18313 89.7546 4.48896 89.8813 4.80785 89.8813H6.61142C6.93031 89.8813 7.23614 89.7546 7.46163 89.5292C7.68712 89.3037 7.8138 88.9978 7.8138 88.6789C7.8138 88.3601 7.68712 88.0542 7.46163 87.8287C7.23614 87.6032 6.93031 87.4766 6.61142 87.4766ZM96.1888 87.4766H94.3852C94.0663 87.4766 93.7605 87.6032 93.535 87.8287C93.3095 88.0542 93.1828 88.3601 93.1828 88.6789C93.1828 88.9978 93.3095 89.3037 93.535 89.5292C93.7605 89.7546 94.0663 89.8813 94.3852 89.8813H96.1888C96.5077 89.8813 96.8135 89.7546 97.039 89.5292C97.2645 89.3037 97.3912 88.9978 97.3912 88.6789C97.3912 88.3601 97.2645 88.0542 97.039 87.8287C96.8135 87.6032 96.5077 87.4766 96.1888 87.4766Z" fill="#2D4356"/>
<path d="M99.7961 89.8813C100.46 89.8813 100.999 89.343 100.999 88.6789C100.999 88.0149 100.46 87.4766 99.7961 87.4766C99.1321 87.4766 98.5938 88.0149 98.5938 88.6789C98.5938 89.343 99.1321 89.8813 99.7961 89.8813Z" fill="#2D4356"/>
<path d="M71.0313 92.2861H66.0368C65.7345 92.3104 65.4525 92.4475 65.2468 92.6704C65.0411 92.8932 64.9269 93.1853 64.9269 93.4885C64.9269 93.7917 65.0411 94.0839 65.2468 94.3067C65.4525 94.5295 65.7345 94.6667 66.0368 94.6909H71.0313C71.3336 94.6667 71.6156 94.5295 71.8213 94.3067C72.027 94.0839 72.1412 93.7917 72.1412 93.4885C72.1412 93.1853 72.027 92.8932 71.8213 92.6704C71.6156 92.4475 71.3336 92.3104 71.0313 92.2861ZM34.9599 92.2861H29.9654C29.6631 92.3104 29.381 92.4475 29.1754 92.6704C28.9697 92.8932 28.8555 93.1853 28.8555 93.4885C28.8555 93.7917 28.9697 94.0839 29.1754 94.3067C29.381 94.5295 29.6631 94.6667 29.9654 94.6909H34.9599C35.2622 94.6667 35.5442 94.5295 35.7499 94.3067C35.9556 94.0839 36.0698 93.7917 36.0698 93.4885C36.0698 93.1853 35.9556 92.8932 35.7499 92.6704C35.5442 92.4475 35.2622 92.3104 34.9599 92.2861ZM62.5222 92.2861H38.4745C38.1556 92.2861 37.8498 92.4128 37.6243 92.6383C37.3988 92.8638 37.2722 93.1696 37.2722 93.4885C37.2722 93.8074 37.3988 94.1132 37.6243 94.3387C37.8498 94.5642 38.1556 94.6909 38.4745 94.6909H48.0575V95.8933H43.2841C42.9652 95.8933 42.6593 96.02 42.4338 96.2455C42.2084 96.4709 42.0817 96.7768 42.0817 97.0957C42.0817 97.4145 42.2084 97.7204 42.4338 97.9459C42.6593 98.1714 42.9652 98.298 43.2841 98.298H58.3138C58.6327 98.298 58.9385 98.1714 59.164 97.9459C59.3895 97.7204 59.5162 97.4145 59.5162 97.0957C59.5162 96.7768 59.3895 96.4709 59.164 96.2455C58.9385 96.02 58.6327 95.8933 58.3138 95.8933H52.9392V94.6909H62.5222C62.841 94.6909 63.1469 94.5642 63.3724 94.3387C63.5979 94.1132 63.7245 93.8074 63.7245 93.4885C63.7245 93.1696 63.5979 92.8638 63.3724 92.6383C63.1469 92.4128 62.841 92.2861 62.5222 92.2861Z" fill="#0BCEB2"/>
<path d="M90.6124 87.4768H70.7302C70.8686 87.091 70.9398 86.6843 70.9406 86.2745V70.6435H68.5359V86.2745C68.5355 86.5932 68.4087 86.8989 68.1833 87.1243C67.9579 87.3497 67.6523 87.4765 67.3335 87.4768H25.2502C24.9314 87.4765 24.6258 87.3497 24.4003 87.1243C24.1749 86.8989 24.0481 86.5932 24.0478 86.2745V28.5602C24.0481 28.2414 24.1749 27.9358 24.4003 27.7104C24.6258 27.485 24.9314 27.3582 25.2502 27.3578H32.4644V30.3637C32.4645 30.6826 32.5911 30.9885 32.8166 31.2139C33.0421 31.4394 33.3479 31.5661 33.6668 31.5661H58.9168C59.2357 31.5661 59.5415 31.4394 59.767 31.2139C59.9925 30.9885 60.1192 30.6826 60.1192 30.3637V27.3578H67.3335C67.6523 27.3582 67.9579 27.485 68.1833 27.7104C68.4087 27.9358 68.5355 28.2414 68.5359 28.5602V32.1673H70.9406V28.5602C70.9396 27.6038 70.5592 26.6869 69.883 26.0107C69.2067 25.3344 68.2898 24.9541 67.3335 24.953H60.1192V21.9471C60.1192 21.6282 59.9925 21.3224 59.767 21.0969C59.5415 20.8714 59.2357 20.7447 58.9168 20.7447H54.678C54.5283 18.6227 53.5798 16.6363 52.0235 15.186C50.4673 13.7356 48.4191 12.9292 46.2918 12.9292C44.1645 12.9292 42.1163 13.7356 40.5601 15.186C39.0039 16.6363 38.0553 18.6227 37.9056 20.7447H33.6668C33.3479 20.7447 33.0421 20.8714 32.8166 21.0969C32.5911 21.3224 32.4645 21.6282 32.4644 21.9471V24.953H25.2502C24.2938 24.9541 23.3769 25.3344 22.7007 26.0107C22.0244 26.6869 21.6441 27.6038 21.643 28.5602V86.2745C21.6439 86.6843 21.715 87.091 21.8534 87.4768H10.3879C10.2169 87.4545 10.043 87.4689 9.87798 87.5191C9.71294 87.5693 9.56051 87.6541 9.43086 87.7679C9.30122 87.8817 9.19735 88.0219 9.1262 88.179C9.05504 88.3362 9.01823 88.5067 9.01823 88.6792C9.01823 88.8517 9.05504 89.0223 9.1262 89.1794C9.19735 89.3365 9.30122 89.4767 9.43086 89.5905C9.56051 89.7043 9.71294 89.7892 9.87798 89.8394C10.043 89.8895 10.2169 89.9039 10.3879 89.8816H90.6124C90.7834 89.9039 90.9573 89.8895 91.1223 89.8394C91.2874 89.7892 91.4398 89.7043 91.5694 89.5905C91.6991 89.4767 91.8029 89.3365 91.8741 89.1794C91.9453 89.0223 91.9821 88.8517 91.9821 88.6792C91.9821 88.5067 91.9453 88.3362 91.8741 88.179C91.8029 88.0219 91.6991 87.8817 91.5694 87.7679C91.4398 87.6541 91.2874 87.5693 91.1223 87.5191C90.9573 87.4689 90.7834 87.4545 90.6124 87.4768ZM46.2918 15.334C47.7816 15.3359 49.2178 15.8901 50.3226 16.8895C51.4275 17.889 52.1225 19.2626 52.2733 20.7447H40.3104C40.4612 19.2626 41.1562 17.889 42.261 16.8895C43.3658 15.8901 44.802 15.3359 46.2918 15.334ZM34.8692 23.1495H57.7144V29.1614H34.8692V23.1495ZM40.2799 6.31613C40.6366 6.31613 40.9853 6.21035 41.2819 6.01217C41.5785 5.81399 41.8097 5.53231 41.9462 5.20275C42.0827 4.87319 42.1184 4.51056 42.0488 4.1607C41.9792 3.81084 41.8075 3.48947 41.5552 3.23724C41.303 2.985 40.9816 2.81323 40.6318 2.74364C40.2819 2.67405 39.9193 2.70977 39.5897 2.84627C39.2602 2.98278 38.9785 3.21395 38.7803 3.51055C38.5821 3.80714 38.4763 4.15584 38.4763 4.51256C38.4769 4.99073 38.6671 5.44915 39.0052 5.78727C39.3433 6.12539 39.8017 6.31558 40.2799 6.31613ZM40.2799 3.61077C40.4583 3.61077 40.6326 3.66366 40.7809 3.76275C40.9292 3.86184 41.0448 4.00268 41.1131 4.16746C41.1813 4.33224 41.1992 4.51356 41.1644 4.68849C41.1296 4.86342 41.0437 5.0241 40.9176 5.15022C40.7915 5.27633 40.6308 5.36222 40.4558 5.39701C40.2809 5.43181 40.0996 5.41395 39.9348 5.3457C39.77 5.27744 39.6292 5.16186 39.5301 5.01356C39.431 4.86526 39.3781 4.69091 39.3781 4.51256C39.3784 4.27346 39.4734 4.04422 39.6425 3.87516C39.8116 3.70609 40.0408 3.61101 40.2799 3.61077ZM97.5762 27.959C97.3384 27.959 97.1059 28.0295 96.9082 28.1616C96.7105 28.2937 96.5563 28.4815 96.4653 28.7012C96.3743 28.9209 96.3505 29.1627 96.3969 29.3959C96.4433 29.6292 96.5578 29.8434 96.726 30.0116C96.8941 30.1797 97.1084 30.2943 97.3416 30.3406C97.5749 30.387 97.8166 30.3632 98.0363 30.2722C98.256 30.1812 98.4438 30.0271 98.5759 29.8294C98.7081 29.6316 98.7786 29.3992 98.7786 29.1614C98.7782 28.8426 98.6514 28.537 98.426 28.3116C98.2006 28.0861 97.895 27.9594 97.5762 27.959ZM97.5762 29.7626C97.4573 29.7626 97.3411 29.7273 97.2422 29.6612C97.1433 29.5952 97.0663 29.5013 97.0208 29.3914C96.9753 29.2816 96.9634 29.1607 96.9866 29.0441C97.0098 28.9275 97.067 28.8203 97.1511 28.7363C97.2352 28.6522 97.3423 28.5949 97.4589 28.5717C97.5755 28.5485 97.6964 28.5604 97.8063 28.6059C97.9161 28.6514 98.01 28.7285 98.0761 28.8274C98.1421 28.9262 98.1774 29.0425 98.1774 29.1614C98.1772 29.3208 98.1138 29.4736 98.0011 29.5863C97.8884 29.699 97.7356 29.7624 97.5762 29.7626ZM63.2167 14.1316C62.9789 14.1316 62.7465 14.2021 62.5487 14.3342C62.351 14.4664 62.1969 14.6541 62.1059 14.8739C62.0149 15.0936 61.9911 15.3353 62.0375 15.5686C62.0839 15.8018 62.1984 16.016 62.3665 16.1842C62.5347 16.3524 62.7489 16.4669 62.9822 16.5133C63.2154 16.5597 63.4572 16.5358 63.6769 16.4448C63.8966 16.3538 64.0844 16.1997 64.2165 16.002C64.3486 15.8043 64.4191 15.5718 64.4191 15.334C64.4188 15.0152 64.292 14.7096 64.0666 14.4842C63.8411 14.2588 63.5355 14.132 63.2167 14.1316ZM63.2167 15.9352C63.0978 15.9352 62.9816 15.8999 62.8827 15.8339C62.7839 15.7678 62.7068 15.6739 62.6613 15.564C62.6158 15.4542 62.6039 15.3333 62.6271 15.2167C62.6503 15.1001 62.7076 14.993 62.7916 14.9089C62.8757 14.8248 62.9828 14.7675 63.0995 14.7443C63.2161 14.7211 63.337 14.7331 63.4468 14.7786C63.5567 14.8241 63.6506 14.9011 63.7166 15C63.7827 15.0988 63.8179 15.2151 63.8179 15.334C63.8178 15.4934 63.7544 15.6462 63.6417 15.7589C63.529 15.8716 63.3761 15.935 63.2167 15.9352ZM95.1714 3.91137C94.9336 3.91137 94.7012 3.98188 94.5034 4.114C94.3057 4.24612 94.1516 4.43391 94.0606 4.65362C93.9696 4.87332 93.9458 5.11508 93.9922 5.34832C94.0386 5.58156 94.1531 5.7958 94.3212 5.96396C94.4894 6.13211 94.7036 6.24663 94.9369 6.29302C95.1701 6.33942 95.4119 6.31561 95.6316 6.2246C95.8513 6.1336 96.0391 5.97948 96.1712 5.78175C96.3033 5.58402 96.3738 5.35156 96.3738 5.11375C96.3734 4.79497 96.2467 4.48935 96.0212 4.26394C95.7958 4.03853 95.4902 3.91173 95.1714 3.91137ZM95.1714 5.71494C95.0525 5.71494 94.9363 5.67968 94.8374 5.61362C94.7386 5.54756 94.6615 5.45367 94.616 5.34381C94.5705 5.23396 94.5586 5.11308 94.5818 4.99646C94.605 4.87984 94.6623 4.77272 94.7463 4.68864C94.8304 4.60456 94.9375 4.54731 95.0541 4.52411C95.1708 4.50091 95.2916 4.51282 95.4015 4.55832C95.5114 4.60382 95.6052 4.68088 95.6713 4.77974C95.7374 4.87861 95.7726 4.99484 95.7726 5.11375C95.7725 5.27314 95.7091 5.42597 95.5964 5.53868C95.4837 5.65139 95.3308 5.71478 95.1714 5.71494ZM7.49851 8.18514C7.49851 7.94733 7.42799 7.71486 7.29587 7.51713C7.16376 7.3194 6.97597 7.16529 6.75626 7.07428C6.53656 6.98328 6.2948 6.95947 6.06156 7.00586C5.82832 7.05226 5.61408 7.16677 5.44592 7.33493C5.27776 7.50308 5.16325 7.71733 5.11685 7.95057C5.07046 8.1838 5.09427 8.42556 5.18528 8.64527C5.27628 8.86498 5.43039 9.05276 5.62812 9.18488C5.82586 9.317 6.05832 9.38752 6.29613 9.38752C6.61491 9.38716 6.92053 9.26036 7.14594 9.03495C7.37135 8.80954 7.49815 8.50392 7.49851 8.18514ZM5.69494 8.18514C5.69494 8.06623 5.7302 7.95 5.79626 7.85114C5.86232 7.75227 5.95621 7.67521 6.06607 7.62971C6.17592 7.58421 6.2968 7.5723 6.41342 7.5955C6.53004 7.6187 6.63716 7.67596 6.72124 7.76003C6.80532 7.84411 6.86257 7.95123 6.88577 8.06785C6.90897 8.18447 6.89706 8.30535 6.85156 8.4152C6.80606 8.52506 6.729 8.61895 6.63014 8.68501C6.53127 8.75107 6.41504 8.78633 6.29613 8.78633C6.13673 8.78617 5.98391 8.72278 5.8712 8.61007C5.75849 8.49736 5.6951 8.34454 5.69494 8.18514Z" fill="#2D4356"/>
<path d="M4.87663 26.0039L5.77 24.8286L5.20548 24.5088L4.63195 25.8254H4.61271L4.03016 24.5178L3.45542 24.8473L4.34037 25.9949V26.0136L2.95703 25.835V26.4747L4.34939 26.2961V26.3148L3.45542 27.4618L3.99168 27.8009L4.60369 26.4747H4.62233L5.18685 27.7913L5.77962 27.4528L4.87663 26.3238V26.3051L6.29664 26.4747V25.835L4.87663 26.0232V26.0039Z" fill="#0BCEB2"/>
<path d="M23.9465 17.4317L23.4319 18.0924L23.7403 18.2878L24.0926 17.5236H24.1034L24.4287 18.2817L24.7701 18.087L24.2501 17.4371V17.4262L25.0677 17.5236V17.1551L24.2501 17.2633V17.2525L24.7647 16.5756L24.4395 16.3916L24.1088 17.1497H24.098L23.7626 16.397L23.4319 16.5864L23.9411 17.2477V17.2585L23.1445 17.1551V17.5236L23.9465 17.4208V17.4317Z" fill="#0BCEB2"/>
<path d="M84.912 21.344V20.717L83.5196 20.9016V20.8829L84.3962 19.7298L83.8425 19.416L83.2798 20.7074H83.2611L82.6894 19.425L82.1261 19.7485L82.9936 20.8739V20.8925L81.6367 20.717V21.344L83.0026 21.1691V21.1877L82.1261 22.3132L82.6515 22.6456L83.2521 21.344H83.2702L83.8239 22.636L84.4052 22.3041L83.5196 21.1967V21.1781L84.912 21.344Z" fill="#0BCEB2"/>
<path d="M77.1629 3.96765L77.9192 2.97268L77.4418 2.70215L76.9567 3.81615H76.9404L76.4469 2.70996L75.9611 2.98832L76.7096 3.95984V3.97547L75.5391 3.82397V4.36504L76.7174 4.21414V4.23037L75.9611 5.2007L76.4144 5.48746L76.9326 4.36504H76.9483L77.4256 5.47965L77.927 5.19288L77.1629 4.23819V4.22196L78.3647 4.36504V3.82397L77.1629 3.98329V3.96765Z" fill="#0BCEB2"/>
</svg>
