<svg width="30" height="30" viewBox="0 0 30 30" fill="none" xmlns="http://www.w3.org/2000/svg">
<path opacity="0.3" fill-rule="evenodd" clip-rule="evenodd" d="M21.25 2.5C22.2446 2.5 23.1984 2.89509 23.9017 3.59835C24.6049 4.30161 25 5.25544 25 6.25V26.25C24.9999 26.4854 24.9332 26.716 24.8078 26.9153C24.6823 27.1145 24.5032 27.2742 24.2909 27.3761C24.0787 27.478 23.842 27.5179 23.6081 27.4911C23.3741 27.4644 23.1525 27.3721 22.9688 27.225L20.625 25.35L18.2812 27.225C18.0411 27.4174 17.7385 27.5144 17.4313 27.4976C17.1241 27.4807 16.8339 27.3512 16.6163 27.1338L15 25.5175L13.3837 27.1338C13.1663 27.3514 12.8761 27.4811 12.5689 27.4982C12.2617 27.5153 11.959 27.4184 11.7188 27.2262L9.375 25.35L7.03125 27.225C6.84747 27.3721 6.62586 27.4644 6.39195 27.4911C6.15804 27.5179 5.92133 27.478 5.70909 27.3761C5.49684 27.2742 5.31768 27.1145 5.19223 26.9153C5.06678 26.716 5.00015 26.4854 5 26.25V6.25C5 5.25544 5.39509 4.30161 6.09835 3.59835C6.80161 2.89509 7.75544 2.5 8.75 2.5H21.25Z" fill="#002E62"/>
<path fill-rule="evenodd" clip-rule="evenodd" d="M18.75 10H11.25C10.9314 10.0004 10.625 10.1223 10.3933 10.3411C10.1616 10.5598 10.0222 10.8587 10.0035 11.1767C9.98486 11.4948 10.0883 11.808 10.2928 12.0523C10.4973 12.2966 10.7874 12.4536 11.1038 12.4913L11.25 12.5H18.75C19.0686 12.4996 19.375 12.3777 19.6067 12.1589C19.8384 11.9402 19.9778 11.6413 19.9965 11.3233C20.0151 11.0052 19.9117 10.692 19.7072 10.4477C19.5027 10.2034 19.2126 10.0464 18.8962 10.0087L18.75 10ZM15 15H11.25C10.9185 15 10.6005 15.1317 10.3661 15.3661C10.1317 15.6005 10 15.9185 10 16.25C10 16.5815 10.1317 16.8995 10.3661 17.1339C10.6005 17.3683 10.9185 17.5 11.25 17.5H15C15.3315 17.5 15.6495 17.3683 15.8839 17.1339C16.1183 16.8995 16.25 16.5815 16.25 16.25C16.25 15.9185 16.1183 15.6005 15.8839 15.3661C15.6495 15.1317 15.3315 15 15 15Z" fill="#002E62"/>
</svg>
