<svg width="24" height="25" viewBox="0 0 24 25" fill="none" xmlns="http://www.w3.org/2000/svg">
<path d="M12.218 2.5H11.778C11.2476 2.5 10.7389 2.71071 10.3638 3.08579C9.98876 3.46086 9.77805 3.96957 9.77805 4.5V4.68C9.77769 5.03073 9.68511 5.37519 9.50959 5.67884C9.33407 5.98248 9.08179 6.23464 8.77805 6.41L8.34805 6.66C8.04401 6.83554 7.69912 6.92795 7.34805 6.92795C6.99698 6.92795 6.65209 6.83554 6.34805 6.66L6.19805 6.58C5.73911 6.31526 5.19389 6.24344 4.68205 6.38031C4.17022 6.51717 3.7336 6.85154 3.46805 7.31L3.24805 7.69C2.98331 8.14893 2.91149 8.69416 3.04836 9.206C3.18522 9.71783 3.51958 10.1544 3.97805 10.42L4.12805 10.52C4.43032 10.6945 4.68167 10.9451 4.8571 11.2468C5.03253 11.5486 5.12594 11.891 5.12805 12.24V12.75C5.12945 13.1024 5.0377 13.449 4.86209 13.7545C4.68649 14.0601 4.43326 14.3138 4.12805 14.49L3.97805 14.58C3.51958 14.8456 3.18522 15.2822 3.04836 15.794C2.91149 16.3058 2.98331 16.8511 3.24805 17.31L3.46805 17.69C3.7336 18.1485 4.17022 18.4828 4.68205 18.6197C5.19389 18.7566 5.73911 18.6847 6.19805 18.42L6.34805 18.34C6.65209 18.1645 6.99698 18.0721 7.34805 18.0721C7.69912 18.0721 8.04401 18.1645 8.34805 18.34L8.77805 18.59C9.08179 18.7654 9.33407 19.0175 9.50959 19.3212C9.68511 19.6248 9.77769 19.9693 9.77805 20.32V20.5C9.77805 21.0304 9.98876 21.5391 10.3638 21.9142C10.7389 22.2893 11.2476 22.5 11.778 22.5H12.218C12.7485 22.5 13.2572 22.2893 13.6323 21.9142C14.0073 21.5391 14.218 21.0304 14.218 20.5V20.32C14.2184 19.9693 14.311 19.6248 14.4865 19.3212C14.662 19.0175 14.9143 18.7654 15.218 18.59L15.648 18.34C15.9521 18.1645 16.297 18.0721 16.648 18.0721C16.9991 18.0721 17.344 18.1645 17.648 18.34L17.798 18.42C18.257 18.6847 18.8022 18.7566 19.314 18.6197C19.8259 18.4828 20.2625 18.1485 20.528 17.69L20.748 17.3C21.0128 16.8411 21.0846 16.2958 20.9477 15.784C20.8109 15.2722 20.4765 14.8356 20.018 14.57L19.868 14.49C19.5628 14.3138 19.3096 14.0601 19.134 13.7545C18.9584 13.449 18.8667 13.1024 18.868 12.75V12.25C18.8667 11.8976 18.9584 11.551 19.134 11.2455C19.3096 10.9399 19.5628 10.6862 19.868 10.51L20.018 10.42C20.4765 10.1544 20.8109 9.71783 20.9477 9.206C21.0846 8.69416 21.0128 8.14893 20.748 7.69L20.528 7.31C20.2625 6.85154 19.8259 6.51717 19.314 6.38031C18.8022 6.24344 18.257 6.31526 17.798 6.58L17.648 6.66C17.344 6.83554 16.9991 6.92795 16.648 6.92795C16.297 6.92795 15.9521 6.83554 15.648 6.66L15.218 6.41C14.9143 6.23464 14.662 5.98248 14.4865 5.67884C14.311 5.37519 14.2184 5.03073 14.218 4.68V4.5C14.218 3.96957 14.0073 3.46086 13.6323 3.08579C13.2572 2.71071 12.7485 2.5 12.218 2.5Z" stroke="#359F6A" stroke-width="1.6" stroke-linecap="round" stroke-linejoin="round"/>
<path d="M11.998 15.5C13.6549 15.5 14.998 14.1569 14.998 12.5C14.998 10.8431 13.6549 9.5 11.998 9.5C10.3412 9.5 8.99805 10.8431 8.99805 12.5C8.99805 14.1569 10.3412 15.5 11.998 15.5Z" stroke="#359F6A" stroke-width="1.6" stroke-linecap="round" stroke-linejoin="round"/>
</svg>
