<svg width="30" height="30" viewBox="0 0 30 30" fill="none" xmlns="http://www.w3.org/2000/svg">
<path opacity="0.3" fill-rule="evenodd" clip-rule="evenodd" d="M12.4569 3.51081C12.2079 3.32862 11.9181 3.21023 11.6128 3.16599C11.3075 3.12176 10.996 3.15302 10.7056 3.25706C9.34782 3.75492 8.08664 4.48448 6.97813 5.41331C6.74332 5.61266 6.56087 5.86646 6.44669 6.15254C6.33252 6.43863 6.2901 6.74831 6.32313 7.05456C6.41688 7.99581 6.25063 8.90456 5.79813 9.68706C5.34688 10.4708 4.64188 11.0696 3.77938 11.4583C3.20688 11.7121 2.79688 12.2333 2.68563 12.8496C2.43812 14.2722 2.43812 15.7269 2.68563 17.1496C2.80188 17.8208 3.26063 18.3071 3.77938 18.5421C4.64188 18.9296 5.34688 19.5296 5.79938 20.3121C6.25063 21.0958 6.41688 22.0033 6.32313 22.9446C6.26688 23.5096 6.45688 24.1496 6.97813 24.5858C8.08664 25.5146 9.34782 26.2442 10.7056 26.7421C11.2944 26.9533 11.9506 26.8583 12.4556 26.4883C13.2244 25.9358 14.0956 25.6246 15.0006 25.6246C15.9056 25.6246 16.7756 25.9358 17.5444 26.4883C18.0069 26.8208 18.6569 26.9758 19.2956 26.7421C20.6534 26.2442 21.9146 25.5146 23.0231 24.5858C23.5444 24.1496 23.7356 23.5108 23.6781 22.9446C23.5844 22.0033 23.7494 21.0946 24.2031 20.3121C24.6544 19.5283 25.3594 18.9308 26.2219 18.5421C26.7394 18.3071 27.1994 17.8208 27.3156 17.1496C27.5619 15.7268 27.5619 14.2723 27.3156 12.8496C27.2607 12.546 27.1323 12.2605 26.9417 12.018C26.751 11.7755 26.5039 11.5833 26.2219 11.4583C25.3594 11.0696 24.6544 10.4708 24.2019 9.68706C23.7494 8.90456 23.5844 7.99581 23.6781 7.05456C23.7108 6.74833 23.6683 6.43876 23.5541 6.15273C23.44 5.8667 23.2577 5.61287 23.0231 5.41331C21.9146 4.48448 20.6534 3.75492 19.2956 3.25706C19.0053 3.15367 18.6942 3.12275 18.3892 3.16697C18.0842 3.21119 17.7946 3.32922 17.5456 3.51081C16.7756 4.06206 15.9044 4.37456 15.0006 4.37456C14.0969 4.37456 13.2256 4.06331 12.4569 3.51081Z" fill="#002E62"/>
<path fill-rule="evenodd" clip-rule="evenodd" d="M11.25 14.9997C11.25 12.1135 14.375 10.3085 16.875 11.7522C17.4451 12.0814 17.9184 12.5547 18.2476 13.1248C18.5767 13.6949 18.75 14.3415 18.75 14.9997C18.75 17.886 15.625 19.691 13.125 18.2472C12.5549 17.9181 12.0816 17.4447 11.7524 16.8747C11.4233 16.3046 11.25 15.658 11.25 14.9997Z" fill="#002E62"/>
</svg>
