<svg width="68" height="68" viewBox="0 0 68 68" fill="none" xmlns="http://www.w3.org/2000/svg">
<g clip-path="url(#clip0_685_13563)">
<path fill-rule="evenodd" clip-rule="evenodd" d="M47.6271 47.8496C47.403 47.8489 47.1843 47.9181 47.0015 48.0476C46.8186 48.1771 46.6808 48.3605 46.6071 48.572C46.5598 48.7124 46.5406 48.8606 46.5504 49.0084C46.7367 51.905 46.6609 54.8125 46.3237 57.6954C46.0254 59.4507 45.2423 61.0877 44.0627 62.4214C43.1759 63.0929 42.1361 63.5292 41.0339 63.6964C35.8739 64.8476 30.5748 65.2484 25.3004 64.8864C18.1434 64.4897 10.8702 62.9597 7.55805 59.2254C6.64344 57.4719 6.12228 55.54 6.03089 53.5644C4.9428 44.5416 4.71511 35.4359 5.35089 26.3701C5.58605 21.1227 6.33405 15.9094 7.58922 10.8094C7.94622 8.91105 8.81889 7.15155 10.1052 5.71505C12.6269 3.70338 18.5939 3.19338 24.9887 3.27838C32.2847 3.22903 39.5608 4.04699 46.6637 5.71505C47.3721 5.97005 47.9387 6.59338 48.1937 6.39505C48.6669 7.75788 48.8964 9.19438 48.8737 10.6394C48.8737 13.2971 48.7037 16.2976 48.7037 18.0231C48.6923 18.2205 48.7419 18.4167 48.8458 18.585C48.9497 18.7533 49.1029 18.8855 49.2846 18.9637C49.4033 19.0191 49.5332 19.0462 49.6642 19.0431C49.7945 19.0468 49.9242 19.0249 50.0459 18.9785C50.1677 18.9321 50.2791 18.8622 50.3739 18.7728C50.4686 18.6833 50.5447 18.576 50.598 18.4571C50.6513 18.3382 50.6806 18.21 50.6842 18.0797C50.6842 15.9009 51.1659 12.4215 51.0242 9.30772C50.9882 7.92148 50.7101 6.55221 50.2026 5.26172C49.5027 4.34756 48.4986 3.71432 47.3721 3.47672C40.1075 1.42718 32.6186 0.278617 25.0737 0.0568822C17.6901 -0.226451 10.9269 0.566882 7.92639 2.89022C5.9948 4.75017 4.65615 7.13962 4.07872 9.75822C2.64784 15.0953 1.79296 20.5703 1.52872 26.0896C0.862023 35.4327 1.15634 44.8197 2.40705 54.1027C2.63655 56.7575 3.50072 59.3189 4.92589 61.5742C8.83022 65.7619 17.0356 67.6574 25.1559 67.969C34.7779 68.2807 44.2016 66.2691 46.0121 64.1469C47.4967 62.4639 48.4771 60.3927 48.8426 58.1771C49.1259 55.1171 49.1259 52.0401 48.8426 48.98C48.843 48.8238 48.8111 48.6691 48.7489 48.5258C48.6867 48.3824 48.5956 48.2535 48.4811 48.147C48.3667 48.0406 48.2315 47.959 48.0841 47.9073C47.9366 47.8556 47.78 47.835 47.6242 47.8467" fill="#0BCEB2"/>
<path fill-rule="evenodd" clip-rule="evenodd" d="M65.5969 27.1065C59.1454 28.3815 52.2973 29.4298 45.3953 30.5037C40.9498 31.212 36.4504 31.9458 32.0078 32.3992C28.3301 32.7675 24.6808 32.9658 21.0853 32.9942L23.6069 30.5858C25.5846 28.747 27.5368 26.9082 29.2623 24.9277L35.8016 17.1473C35.9788 16.954 36.0771 16.7013 36.0771 16.439C36.0771 16.1767 35.9788 15.924 35.8016 15.7307C35.7068 15.6356 35.5942 15.5601 35.4702 15.5086C35.3463 15.4572 35.2133 15.4307 35.0791 15.4307C34.9448 15.4307 34.8119 15.4572 34.6879 15.5086C34.5639 15.5601 34.4513 15.6356 34.3566 15.7307L27.1713 22.9217C24.9074 25.0467 22.1364 26.9677 19.6743 29.0898C17.9302 30.5788 16.329 32.2274 14.8916 34.0142C14.6924 34.2725 14.5513 34.5708 14.478 34.8886C14.4046 35.2064 14.4007 35.5364 14.4666 35.8558C14.562 36.2158 14.7396 36.5487 14.9854 36.8284C15.2312 37.1082 15.5386 37.3271 15.8833 37.468C16.3083 37.6663 17.1554 37.7797 17.5521 38.0063L21.1731 40.6073C23.5466 42.3703 25.8231 44.26 27.9929 46.2683C29.3831 47.6416 30.6751 49.1036 31.8689 50.6543C32.0359 50.9003 32.2928 51.0708 32.5843 51.1291C32.8758 51.1874 33.1785 51.1288 33.4273 50.966C33.6751 50.7938 33.8463 50.532 33.9045 50.2358C33.9626 49.9396 33.9033 49.6325 33.7389 49.3793C32.5985 47.628 31.3304 45.9631 29.9451 44.3983C27.876 42.1024 25.6745 39.9293 23.3519 37.8902L20.2693 35.3997C25.0774 35.8247 29.9111 35.8813 34.7278 35.5697C37.2183 35.3997 39.6804 35.1447 42.1426 34.8047C44.6048 34.4647 47.0103 34.0142 49.4413 33.4758C55.051 32.2086 60.603 30.6979 66.0814 28.9482C66.3336 28.8752 66.5479 28.7079 66.6798 28.481C66.8117 28.2541 66.8511 27.985 66.7897 27.7298C66.711 27.492 66.5427 27.2941 66.3206 27.1783C66.0984 27.0624 65.8398 27.0377 65.5998 27.1093" fill="#123757"/>
</g>
<defs>
<clipPath id="clip0_685_13563">
<rect width="68" height="68" fill="white"/>
</clipPath>
</defs>
</svg>
