<svg width="24" height="25" viewBox="0 0 24 25" fill="none" xmlns="http://www.w3.org/2000/svg">
<path d="M14 10.036V7.5C14 6.43913 14.4214 5.42172 15.1716 4.67157C15.9217 3.92143 16.9391 3.5 18 3.5H19.5C19.6326 3.5 19.7598 3.55268 19.8536 3.64645C19.9473 3.74021 20 3.86739 20 4V5.5C20 6.56087 19.5786 7.57828 18.8284 8.32843C18.0783 9.07857 17.0609 9.5 16 9.5C14.9391 9.5 13.9217 9.92143 13.1716 10.6716C12.4214 11.4217 12 12.4391 12 13.5M12 13.5C12 15.5 13 16.5 13 18.5C13 19.5819 12.6491 20.6345 12 21.5M12 13.5C12 12.5714 11.7414 11.6612 11.2533 10.8713C10.7651 10.0815 10.0666 9.44313 9.23607 9.02786C8.40554 8.6126 7.47578 8.43681 6.55097 8.5202C5.62616 8.60359 4.74285 8.94286 4 9.5C4 10.4286 4.25857 11.3388 4.74675 12.1287C5.23492 12.9185 5.9334 13.5569 6.76393 13.9721C7.59446 14.3874 8.52422 14.5632 9.44903 14.4798C10.3738 14.3964 11.2572 14.0571 12 13.5ZM5 21.5H19" stroke="#359F6A" stroke-width="1.6" stroke-linecap="round" stroke-linejoin="round"/>
</svg>
